<?xml version="1.0" encoding="utf-8"?><svg xmlns="http://www.w3.org/2000/svg" xmlns:xlink="http://www.w3.org/1999/xlink"><symbol viewBox="0 0 20 20" id="backward" xmlns="http://www.w3.org/2000/svg"><path d="M11.017 14.09a.75.75 0 00.848-1.238c-1.59-1.087-3.07-2.434-3.166-2.82.097-.447 1.577-1.794 3.166-2.884a.751.751 0 00-.848-1.238C9.59 6.888 7.2 8.718 7.2 10c0 1.285 2.39 3.114 3.816 4.09z"/><path fill-rule="evenodd" clip-rule="evenodd" d="M0 10c0 7.383 2.617 10 10 10s10-2.617 10-10S17.383 0 10 0 0 2.617 0 10zm1.5 0c0-6.514 1.986-8.5 8.5-8.5s8.5 1.986 8.5 8.5-1.986 8.5-8.5 8.5-8.5-1.986-8.5-8.5z"/></symbol><symbol viewBox="0 0 18 14" id="burger" xmlns="http://www.w3.org/2000/svg"><path fill-rule="evenodd" clip-rule="evenodd" d="M0 1a1 1 0 011-1h15.616a1 1 0 110 2H1a1 1 0 01-1-1zm7.66 6a1 1 0 011-1h7.957a1 1 0 110 2H8.659a1 1 0 01-1-1zm-3.478 6a1 1 0 011-1H16.62a1 1 0 110 2H5.18a1 1 0 01-1-1z"/></symbol><symbol viewBox="0 0 33 34" id="calendar" xmlns="http://www.w3.org/2000/svg"><path fill-rule="evenodd" clip-rule="evenodd" d="M23.311 5.318V3.114a1.032 1.032 0 00-2.062 0v4.487c0 .357.194.659.472.843a.999.999 0 01-.561.188c-.57 0-1.032-.462-1.032-1.031V4.623a30.55 30.55 0 00-3.628-.2c-1.56 0-2.95.094-4.2.282v-1.59a1.032 1.032 0 00-2.062 0V7.6c0 .357.194.659.472.843a.999.999 0 01-.561.188c-.57 0-1.032-.462-1.032-1.031V5.497c-2.934 1.132-4.655 3.237-5.47 6.59h25.706c-.863-3.557-2.772-5.69-6.042-6.769zm-.743 14.243c-.57 0-1.037-.462-1.037-1.031 0-.57.455-1.031 1.024-1.031h.013a1.032 1.032 0 010 2.062zm0 5.298c-.57 0-1.037-.462-1.037-1.031 0-.57.455-1.031 1.024-1.031h.013a1.03 1.03 0 110 2.062zm-6.049-5.298c-.57 0-1.038-.462-1.038-1.031 0-.57.456-1.031 1.026-1.031h.012a1.032 1.032 0 010 2.062zm0 5.298c-.57 0-1.038-.462-1.038-1.031 0-.57.456-1.031 1.026-1.031h.012a1.03 1.03 0 110 2.062zm-6.061-5.298c-.57 0-1.038-.462-1.038-1.031 0-.57.456-1.031 1.026-1.031h.012a1.032 1.032 0 010 2.062zm0 5.298c-.57 0-1.038-.462-1.038-1.031 0-.57.456-1.031 1.026-1.031h.012a1.03 1.03 0 110 2.062zm19.27-10.711H3.273a30.075 30.075 0 00-.213 3.715c0 9.92 3.517 13.438 13.439 13.438 9.923 0 13.44-3.517 13.44-13.438 0-1.36-.073-2.588-.213-3.715z"/></symbol><symbol viewBox="0 0 20 26" id="download" xmlns="http://www.w3.org/2000/svg"><path fill-rule="evenodd" clip-rule="evenodd" d="M1.293 10.04l1.414-1.414L9 14.92V1.333a1 1 0 112 0V14.92l6.293-6.293 1.414 1.415L10 18.748 1.293 10.04zM19.334 25.5H.667v-3h18.667v3z"/></symbol><symbol viewBox="0 0 33 33" id="home" xmlns="http://www.w3.org/2000/svg"><path fill-rule="evenodd" clip-rule="evenodd" d="M20.499 23.217h-7.996a1.032 1.032 0 010-2.063h7.996a1.032 1.032 0 010 2.063zm5.969-14.75c-.5-.44-1.067-.938-1.744-1.563-.307-.248-.642-.53-.998-.83-2.008-1.693-4.758-4.011-7.264-4.011-2.478 0-5.05 2.188-7.117 3.947-.383.325-.74.63-1.105.926A86.356 86.356 0 016.531 8.47c-3.282 2.889-3.9 3.646-3.9 10.385 0 12.082 3.495 12.082 13.87 12.082 10.372 0 13.867 0 13.867-12.082 0-6.74-.617-7.498-3.9-10.388z"/></symbol><symbol viewBox="0 0 33 34" id="loc" xmlns="http://www.w3.org/2000/svg"><path fill-rule="evenodd" clip-rule="evenodd" d="M16.514 18.855a3.94 3.94 0 01-3.937-3.937 3.94 3.94 0 013.937-3.936 3.942 3.942 0 013.938 3.936 3.942 3.942 0 01-3.938 3.937zM16.5 3.629c-6.065 0-11 4.996-11 11.136 0 7.436 6.4 14.99 11 14.99s11-7.553 11-14.99c0-6.14-4.935-11.136-11-11.136z"/></symbol><symbol viewBox="0 0 29 30" id="place" xmlns="http://www.w3.org/2000/svg"><path d="M1.35 14.633h3.653a.6.6 0 00.6-.6V9.572a.6.6 0 00-.6-.6H1.35a.6.6 0 00-.6.6v4.461a.6.6 0 00.6.6zM7.22 2.75v11.283a.6.6 0 00.6.6h13.36a.6.6 0 00.6-.6V2.83a.596.596 0 00-.283-.506C14.727-1.828 9.414.487 7.4 2.33a.566.566 0 00-.18.42zm17.795 19.372V16.85a.6.6 0 00-.6-.6H14.5l-1.533 12.267a.6.6 0 00.595.674h6c.331 0 .6-.277.468-.58-.432-.99-1.827-1.958-2.776-2.482a.626.626 0 01-.328-.544v-2.264a.6.6 0 01.6-.6h6.889a.6.6 0 00.6-.6zm2.635-7.489h-3.653a.6.6 0 01-.6-.6V9.572a.6.6 0 01.6-.6h3.653a.6.6 0 01.6.6v4.461a.6.6 0 01-.6.6z"/><path d="M21.78 2.75v11.283a.6.6 0 01-.6.6H7.82a.6.6 0 01-.6-.6V2.83c0-.205.108-.398.283-.506C14.273-1.828 19.586.487 21.6 2.33a.57.57 0 01.18.42zM3.985 22.122V16.85a.6.6 0 01.6-.6H14.5l.769 12.304a.6.6 0 01-.599.637H9.438c-.331 0-.6-.277-.468-.58.432-.99 1.827-1.958 2.776-2.482a.626.626 0 00.327-.544v-2.264a.6.6 0 00-.6-.6H4.585a.6.6 0 01-.6-.6z"/></symbol><symbol viewBox="0 0 11 11" id="shape-circle" xmlns="http://www.w3.org/2000/svg"><path fill-rule="evenodd" clip-rule="evenodd" d="M5.5 8.417a2.917 2.917 0 110-5.834 2.917 2.917 0 010 5.834zm0 1.75a4.667 4.667 0 110-9.334 4.667 4.667 0 010 9.334z"/></symbol><symbol viewBox="0 0 33 34" id="shield" xmlns="http://www.w3.org/2000/svg"><path fill-rule="evenodd" clip-rule="evenodd" d="M21.616 14.246l-5.36 5.362a1.03 1.03 0 01-1.459 0l-2.601-2.605a1.03 1.03 0 01.001-1.459 1.03 1.03 0 011.458 0l1.872 1.876 4.63-4.633a1.031 1.031 0 111.459 1.46zm5.455-7.42c-.834-.834-5.41-3.784-10.571-3.784-5.165 0-9.738 2.95-10.571 3.785-.8.8-.787 1.423-.726 4.88.026 1.402.06 3.31.06 5.948 0 8.965 7.318 12.687 11.237 12.687 3.917 0 11.236-3.722 11.236-12.687 0-2.639.034-4.549.06-5.95.062-3.456.073-4.078-.725-4.878z"/></symbol><symbol viewBox="0 0 35 34" id="users" xmlns="http://www.w3.org/2000/svg"><path fill-rule="evenodd" clip-rule="evenodd" d="M26.403 17.116c-1.568 0-3.039.316-4.276.852 4.33 1.252 7.397 4.25 7.48 7.756 2.255-.29 4.688-1.142 4.688-3.465 0-2.792-3.616-5.143-7.892-5.143zm-.041-1.98h.027c2.929 0 5.321-2.393 5.321-5.307a5.334 5.334 0 00-5.32-5.322c-.578 0-1.128.097-1.65.262a8.745 8.745 0 011.498 4.922 8.552 8.552 0 01-1.65 5.129 5.126 5.126 0 001.774.316zM12.86 17.955a11.058 11.058 0 00-4.263-.839c-4.277 0-7.893 2.351-7.893 5.143 0 2.323 2.42 3.162 4.675 3.465.069-3.507 3.135-6.504 7.48-7.77zm-4.263-2.819h.04c.62 0 1.21-.11 1.775-.316a8.662 8.662 0 01-1.664-5.13c0-1.829.55-3.52 1.499-4.923a5.453 5.453 0 00-1.65-.26c-2.93 0-5.308 2.392-5.308 5.32 0 2.915 2.379 5.308 5.308 5.308z"/><path fill-rule="evenodd" clip-rule="evenodd" d="M17.492 19.367c-5.446 0-10.048 2.964-10.048 6.473 0 4.538 7.562 4.538 10.048 4.538 4.315 0 10.052-.468 10.052-4.509 0-3.525-4.604-6.502-10.052-6.502zm.002-2.985h.045a6.617 6.617 0 004.707-1.97 6.616 6.616 0 001.936-4.717c0-3.689-3-6.69-6.688-6.69-3.688 0-6.687 3.001-6.687 6.69a6.694 6.694 0 006.687 6.687z"/></symbol><symbol viewBox="0 0 33 30" id="wallet" xmlns="http://www.w3.org/2000/svg"><path d="M23.95 0C29.642 0 33 3.308 33 8.97h-6.981c-3.24 0-5.867 2.644-5.867 5.835 0 3.19 2.627 5.778 5.867 5.778H33v.52C33 26.693 29.641 30 23.95 30H9.05C3.358 30 0 26.692 0 21.103V8.897C0 3.307 3.359 0 9.05 0h14.9zm7.818 11.454c.68 0 1.232.543 1.232 1.213v4.218a1.237 1.237 0 01-1.232 1.213h-5.617c-1.64.022-3.075-1.084-3.447-2.657a3.328 3.328 0 01.715-2.754 3.437 3.437 0 012.6-1.233h5.749zm-4.957 1.95h-.543a1.257 1.257 0 00-.891.354 1.22 1.22 0 00-.37.874c0 .688.562 1.248 1.261 1.256h.543c.696 0 1.261-.556 1.261-1.242 0-.686-.565-1.242-1.261-1.242zm-9.68-6.919H7.817c-.69 0-1.253.548-1.261 1.228 0 .688.562 1.249 1.261 1.257h9.314c.696 0 1.261-.556 1.261-1.243 0-.686-.565-1.242-1.261-1.242z"/></symbol></svg>