<svg width="20" height="20" viewBox="0 0 20 20" fill="none" xmlns="http://www.w3.org/2000/svg">
<path d="M11.0167 14.0896C11.1467 14.1786 11.2937 14.2206 11.4397 14.2206C11.6787 14.2206 11.9147 14.1066 12.0597 13.8946C12.2937 13.5526 12.2067 13.0856 11.8647 12.8516C10.2757 11.7646 8.79568 10.4176 8.69868 10.0316C8.79568 9.58464 10.2757 8.23764 11.8647 7.14764C12.2067 6.91364 12.2937 6.44764 12.0587 6.10564C11.8277 5.76464 11.3607 5.67764 11.0167 5.90964C9.59068 6.88764 7.20068 8.71764 7.20068 10.0006C7.20068 11.2846 9.59168 13.1136 11.0167 14.0896Z" fill="white"/>
<path fill-rule="evenodd" clip-rule="evenodd" d="M0 10C0 17.383 2.617 20 10 20C17.383 20 20 17.383 20 10C20 2.617 17.383 0 10 0C2.617 0 0 2.617 0 10ZM1.5 10C1.5 3.486 3.486 1.5 10 1.5C16.514 1.5 18.5 3.486 18.5 10C18.5 16.514 16.514 18.5 10 18.5C3.486 18.5 1.5 16.514 1.5 10Z" fill="white"/>
</svg>
