<svg width="20" height="20" viewBox="0 0 20 20" fill="none" xmlns="http://www.w3.org/2000/svg"><path d="M11.017 14.09a.75.75 0 0 0 .848-1.238c-1.59-1.087-3.07-2.434-3.166-2.82.097-.447 1.577-1.794 3.166-2.884a.751.751 0 0 0-.848-1.238C9.59 6.888 7.2 8.718 7.2 10c0 1.285 2.39 3.114 3.816 4.09z" fill="#fff"/><path fill-rule="evenodd" clip-rule="evenodd" d="M0 10c0 7.383 2.617 10 10 10s10-2.617 10-10S17.383 0 10 0 0 2.617 0 10zm1.5 0c0-6.514 1.986-8.5 8.5-8.5s8.5 1.986 8.5 8.5-1.986 8.5-8.5 8.5-8.5-1.986-8.5-8.5z" fill="#fff"/></svg>