<svg width="18" height="14" viewBox="0 0 18 14" fill="none" xmlns="http://www.w3.org/2000/svg">
<path fill-rule="evenodd" clip-rule="evenodd" d="M0 1C0 0.447715 0.447715 0 1 0L17 0C17.5523 0 18 0.447715 18 1C18 1.55228 17.5523 2 17 2H1C0.447715 2 0 1.55228 0 1Z" fill="black"/>
<path fill-rule="evenodd" clip-rule="evenodd" d="M4 7C4 6.44772 4.44772 6 5 6L17 6C17.5523 6 18 6.44772 18 7C18 7.55228 17.5523 8 17 8L5 8C4.44772 8 4 7.55228 4 7Z" fill="black"/>
<path fill-rule="evenodd" clip-rule="evenodd" d="M4 13C4 12.4477 4.44772 12 5 12L17 12C17.5523 12 18 12.4477 18 13C18 13.5523 17.5523 14 17 14L5 14C4.44772 14 4 13.5523 4 13Z" fill="black"/>
</svg>
