<svg width="18" height="14" viewBox="0 0 18 14" fill="none" xmlns="http://www.w3.org/2000/svg">
<path fill-rule="evenodd" clip-rule="evenodd" d="M0 1C0 0.447715 0.447715 0 1 0L16.6163 0C17.1686 0 17.6163 0.447715 17.6163 1C17.6163 1.55228 17.1686 2 16.6163 2H1C0.447715 2 0 1.55228 0 1Z" fill="white"/>
<path fill-rule="evenodd" clip-rule="evenodd" d="M7.65918 7C7.65918 6.44772 8.10689 6 8.65918 6H16.617C17.1693 6 17.617 6.44772 17.617 7C17.617 7.55228 17.1693 8 16.617 8H8.65918C8.10689 8 7.65918 7.55228 7.65918 7Z" fill="white"/>
<path fill-rule="evenodd" clip-rule="evenodd" d="M4.18164 13C4.18164 12.4477 4.62936 12 5.18164 12H16.6206C17.1729 12 17.6206 12.4477 17.6206 13C17.6206 13.5523 17.1729 14 16.6206 14H5.18164C4.62936 14 4.18164 13.5523 4.18164 13Z" fill="white"/>
</svg>
