<svg width="33" height="34" viewBox="0 0 33 34" fill="none" xmlns="http://www.w3.org/2000/svg">
<path fill-rule="evenodd" clip-rule="evenodd" d="M23.3115 5.31838V3.11426C23.3115 2.54501 22.8495 2.08301 22.2803 2.08301C21.711 2.08301 21.249 2.54501 21.249 3.11426V7.60088C21.249 7.95838 21.4429 8.25951 21.7207 8.44376C21.557 8.55376 21.3714 8.63213 21.1597 8.63213C20.5904 8.63213 20.1284 8.17013 20.1284 7.60088V4.62263C19.0257 4.49063 17.8239 4.42326 16.4998 4.42326C14.9405 4.42326 13.5504 4.51676 12.3005 4.70513V3.11426C12.3005 2.54501 11.8385 2.08301 11.2693 2.08301C10.7 2.08301 10.238 2.54501 10.238 3.11426V7.60088C10.238 7.95838 10.4319 8.25951 10.7097 8.44376C10.546 8.55376 10.3604 8.63213 10.1487 8.63213C9.57942 8.63213 9.11742 8.17013 9.11742 7.60088V5.49713C6.18317 6.62876 4.46167 8.73388 3.64767 12.0861H29.3533C28.4898 8.53038 26.5813 6.39638 23.3115 5.31838Z" fill="#FE6D19"/>
<path fill-rule="evenodd" clip-rule="evenodd" d="M22.5677 19.5611C21.9984 19.5611 21.5309 19.0991 21.5309 18.5299C21.5309 17.9606 21.986 17.4986 22.5553 17.4986H22.5677C23.1369 17.4986 23.5989 17.9606 23.5989 18.5299C23.5989 19.0991 23.1369 19.5611 22.5677 19.5611ZM22.5677 24.859C21.9984 24.859 21.5309 24.397 21.5309 23.8277C21.5309 23.2571 21.986 22.7965 22.5553 22.7965H22.5677C23.1369 22.7965 23.5989 23.2571 23.5989 23.8277C23.5989 24.397 23.1369 24.859 22.5677 24.859ZM16.519 19.5611C15.9498 19.5611 15.4809 19.0991 15.4809 18.5299C15.4809 17.9606 15.9374 17.4986 16.5067 17.4986H16.519C17.0883 17.4986 17.5503 17.9606 17.5503 18.5299C17.5503 19.0991 17.0883 19.5611 16.519 19.5611ZM16.519 24.859C15.9498 24.859 15.4809 24.397 15.4809 23.8277C15.4809 23.2571 15.9374 22.7965 16.5067 22.7965H16.519C17.0883 22.7965 17.5503 23.2571 17.5503 23.8277C17.5503 24.397 17.0883 24.859 16.519 24.859ZM10.458 19.5611C9.8888 19.5611 9.41992 19.0991 9.41992 18.5299C9.41992 17.9606 9.87642 17.4986 10.4457 17.4986H10.458C11.0273 17.4986 11.4893 17.9606 11.4893 18.5299C11.4893 19.0991 11.0273 19.5611 10.458 19.5611ZM10.458 24.859C9.8888 24.859 9.41992 24.397 9.41992 23.8277C9.41992 23.2571 9.87642 22.7965 10.4457 22.7965H10.458C11.0273 22.7965 11.4893 23.2571 11.4893 23.8277C11.4893 24.397 11.0273 24.859 10.458 24.859ZM29.7273 14.1477H3.27367C3.13342 15.2752 3.06055 16.5031 3.06055 17.863C3.06055 27.7836 6.5778 31.3009 16.4998 31.3009C26.4232 31.3009 29.9404 27.7836 29.9404 17.863C29.9404 16.5031 29.8675 15.2752 29.7273 14.1477Z" fill="#FE6D19"/>
</svg>
