<svg width="33" height="34" viewBox="0 0 33 34" fill="none" xmlns="http://www.w3.org/2000/svg"><path fill-rule="evenodd" clip-rule="evenodd" d="M23.311 5.318V3.114a1.032 1.032 0 0 0-2.062 0v4.487c0 .357.194.659.472.843a.999.999 0 0 1-.561.188c-.57 0-1.032-.462-1.032-1.031V4.623a30.55 30.55 0 0 0-3.628-.2c-1.56 0-2.95.094-4.2.282v-1.59a1.032 1.032 0 0 0-2.062 0V7.6c0 .357.194.659.472.843a.999.999 0 0 1-.561.188c-.57 0-1.032-.462-1.032-1.031V5.497c-2.934 1.132-4.655 3.237-5.47 6.59h25.706c-.863-3.557-2.772-5.69-6.042-6.769zm-.743 14.243c-.57 0-1.037-.462-1.037-1.031 0-.57.455-1.031 1.024-1.031h.013a1.032 1.032 0 0 1 0 2.062zm0 5.298c-.57 0-1.037-.462-1.037-1.031 0-.57.455-1.031 1.024-1.031h.013a1.03 1.03 0 1 1 0 2.062zm-6.049-5.298c-.57 0-1.038-.462-1.038-1.031 0-.57.456-1.031 1.026-1.031h.012a1.032 1.032 0 0 1 0 2.062zm0 5.298c-.57 0-1.038-.462-1.038-1.031 0-.57.456-1.031 1.026-1.031h.012a1.03 1.03 0 1 1 0 2.062zm-6.061-5.298c-.57 0-1.038-.462-1.038-1.031 0-.57.456-1.031 1.026-1.031h.012a1.032 1.032 0 0 1 0 2.062zm0 5.298c-.57 0-1.038-.462-1.038-1.031 0-.57.456-1.031 1.026-1.031h.012a1.03 1.03 0 1 1 0 2.062zm19.27-10.711H3.273a30.075 30.075 0 0 0-.213 3.715c0 9.92 3.517 13.438 13.439 13.438 9.923 0 13.44-3.517 13.44-13.438 0-1.36-.073-2.588-.213-3.715z" fill="#FE6D19"/></svg>