<svg width="33" height="33" viewBox="0 0 33 33" fill="none" xmlns="http://www.w3.org/2000/svg">
<path fill-rule="evenodd" clip-rule="evenodd" d="M20.4986 23.2169H12.503C11.9337 23.2169 11.4717 22.7549 11.4717 22.1856C11.4717 21.6164 11.9337 21.1544 12.503 21.1544H20.4986C21.0678 21.1544 21.5298 21.6164 21.5298 22.1856C21.5298 22.7549 21.0678 23.2169 20.4986 23.2169ZM26.4675 8.46725C25.9683 8.02725 25.4005 7.5295 24.724 6.90387C24.4173 6.65637 24.0818 6.37313 23.7257 6.07338C21.7182 4.38075 18.9682 2.0625 16.4616 2.0625C13.9838 2.0625 11.4112 4.2515 9.34459 6.01013C8.96234 6.33463 8.60484 6.63987 8.24046 6.9355C7.59971 7.5295 7.03184 8.02862 6.53134 8.47C3.24921 11.3589 2.63184 12.1165 2.63184 18.8554C2.63184 30.9375 6.12571 30.9375 16.5001 30.9375C26.8731 30.9375 30.3683 30.9375 30.3683 18.8554C30.3683 12.1151 29.751 11.3575 26.4675 8.46725Z" fill="white"/>
</svg>
