<svg width="33" height="33" viewBox="0 0 33 33" fill="none" xmlns="http://www.w3.org/2000/svg"><path fill-rule="evenodd" clip-rule="evenodd" d="M20.499 23.217h-7.996a1.032 1.032 0 0 1 0-2.063h7.996a1.032 1.032 0 0 1 0 2.063zm5.969-14.75c-.5-.44-1.067-.938-1.744-1.563-.307-.248-.642-.53-.998-.83-2.008-1.693-4.758-4.011-7.264-4.011-2.478 0-5.05 2.188-7.117 3.947-.383.325-.74.63-1.105.926A86.356 86.356 0 0 1 6.531 8.47c-3.282 2.889-3.9 3.646-3.9 10.385 0 12.082 3.495 12.082 13.87 12.082 10.372 0 13.867 0 13.867-12.082 0-6.74-.617-7.498-3.9-10.388z" fill="#fff"/></svg>