<svg width="29" height="30" viewBox="0 0 29 30" fill="none" xmlns="http://www.w3.org/2000/svg">
<path d="M1.35 14.6333H5.00294C5.33431 14.6333 5.60294 14.3646 5.60294 14.0333V9.57151C5.60294 9.24014 5.33431 8.97151 5.00294 8.97151H1.35C1.01863 8.97151 0.75 9.24014 0.75 9.57151V14.0333C0.75 14.3646 1.01863 14.6333 1.35 14.6333Z" fill="#FE6D19"/>
<path d="M7.22059 2.74945V14.0333C7.22059 14.3646 7.48922 14.6333 7.82059 14.6333H21.1794C21.5108 14.6333 21.7794 14.3646 21.7794 14.0333V2.83029C21.7794 2.62515 21.6719 2.43173 21.497 2.32446C14.7271 -1.82849 9.41411 0.487327 7.40003 2.32948C7.28261 2.43688 7.22059 2.59032 7.22059 2.74945Z" fill="#FE6D19"/>
<path d="M25.0147 22.1215V16.8509C25.0147 16.5195 24.7461 16.2509 24.4147 16.2509H14.5L12.9667 28.5177C12.9219 28.8758 13.2011 29.1921 13.562 29.1921H19.5618C19.8931 29.1921 20.1621 28.9151 20.0296 28.6114C19.5979 27.6224 18.2032 26.6543 17.2544 26.1298C17.0555 26.0198 16.9265 25.8132 16.9265 25.586V23.3215C16.9265 22.9901 17.1951 22.7215 17.5265 22.7215H24.4147C24.7461 22.7215 25.0147 22.4529 25.0147 22.1215Z" fill="#FE6D19"/>
<path d="M27.65 14.6333H23.9971C23.6657 14.6333 23.3971 14.3646 23.3971 14.0333V9.57151C23.3971 9.24014 23.6657 8.97151 23.9971 8.97151H27.65C27.9814 8.97151 28.25 9.24014 28.25 9.57151V14.0333C28.25 14.3646 27.9814 14.6333 27.65 14.6333Z" fill="#FE6D19"/>
<path d="M21.7794 2.74945V14.0333C21.7794 14.3646 21.5108 14.6333 21.1794 14.6333H7.82059C7.48922 14.6333 7.22059 14.3646 7.22059 14.0333L7.22059 2.83029C7.22059 2.62515 7.32812 2.43173 7.50298 2.32446C14.2729 -1.82849 19.5859 0.487327 21.6 2.32948C21.7174 2.43688 21.7794 2.59032 21.7794 2.74945Z" fill="#FE6D19"/>
<path d="M3.98529 22.1215V16.8509C3.98529 16.5195 4.25392 16.2509 4.58529 16.2509H14.5L15.269 28.5547C15.2906 28.9001 15.0162 29.1921 14.6702 29.1921H9.43824C9.10686 29.1921 8.83789 28.9151 8.97044 28.6114C9.40209 27.6224 10.7968 26.6543 11.7456 26.1298C11.9445 26.0198 12.0735 25.8132 12.0735 25.586V23.3215C12.0735 22.9901 11.8049 22.7215 11.4735 22.7215H4.58529C4.25392 22.7215 3.98529 22.4529 3.98529 22.1215Z" fill="#FE6D19"/>
</svg>
