<svg width="29" height="30" viewBox="0 0 29 30" fill="none" xmlns="http://www.w3.org/2000/svg"><path d="M1.35 14.633h3.653a.6.6 0 0 0 .6-.6V9.572a.6.6 0 0 0-.6-.6H1.35a.6.6 0 0 0-.6.6v4.461a.6.6 0 0 0 .6.6zM7.22 2.75v11.283a.6.6 0 0 0 .6.6h13.36a.6.6 0 0 0 .6-.6V2.83a.596.596 0 0 0-.283-.506C14.727-1.828 9.414.487 7.4 2.33a.566.566 0 0 0-.18.42zm17.795 19.372V16.85a.6.6 0 0 0-.6-.6H14.5l-1.533 12.267a.6.6 0 0 0 .595.674h6c.331 0 .6-.277.468-.58-.432-.99-1.827-1.958-2.776-2.482a.626.626 0 0 1-.328-.544v-2.264a.6.6 0 0 1 .6-.6h6.889a.6.6 0 0 0 .6-.6zm2.635-7.489h-3.653a.6.6 0 0 1-.6-.6V9.572a.6.6 0 0 1 .6-.6h3.653a.6.6 0 0 1 .6.6v4.461a.6.6 0 0 1-.6.6z" fill="#FE6D19"/><path d="M21.78 2.75v11.283a.6.6 0 0 1-.6.6H7.82a.6.6 0 0 1-.6-.6V2.83c0-.205.108-.398.283-.506C14.273-1.828 19.586.487 21.6 2.33a.57.57 0 0 1 .18.42zM3.985 22.122V16.85a.6.6 0 0 1 .6-.6H14.5l.769 12.304a.6.6 0 0 1-.599.637H9.438c-.331 0-.6-.277-.468-.58.432-.99 1.827-1.958 2.776-2.482a.626.626 0 0 0 .327-.544v-2.264a.6.6 0 0 0-.6-.6H4.585a.6.6 0 0 1-.6-.6z" fill="#FE6D19"/></svg>