<svg width="33" height="34" viewBox="0 0 33 34" fill="none" xmlns="http://www.w3.org/2000/svg">
<path fill-rule="evenodd" clip-rule="evenodd" d="M21.6159 14.2464L16.2562 19.6075C16.0623 19.8014 15.8011 19.91 15.5274 19.91C15.2538 19.91 14.9912 19.8014 14.7973 19.6075L12.1958 17.0033C11.7929 16.6004 11.7929 15.9459 12.1972 15.5444C12.5987 15.1415 13.2518 15.1415 13.6547 15.5444L15.5274 17.4199L20.1571 12.7875C20.5599 12.3846 21.2131 12.3846 21.6159 12.7875C22.0188 13.1904 22.0188 13.8435 21.6159 14.2464ZM27.0706 6.82688C26.2373 5.99225 21.6613 3.0415 16.4996 3.0415C11.3351 3.0415 6.76182 5.99225 5.92857 6.82688C5.1297 7.62713 5.14207 8.25 5.20257 11.7068C5.2287 13.1093 5.26307 15.0178 5.26307 17.655C5.26307 26.62 12.5808 30.3421 16.4996 30.3421C20.4169 30.3421 27.7361 26.62 27.7361 17.655C27.7361 15.0164 27.7704 13.1065 27.7966 11.7054C27.8584 8.24863 27.8694 7.62713 27.0706 6.82688Z" fill="white"/>
</svg>
