<svg width="33" height="34" viewBox="0 0 33 34" fill="none" xmlns="http://www.w3.org/2000/svg"><path fill-rule="evenodd" clip-rule="evenodd" d="M21.616 14.246l-5.36 5.362a1.03 1.03 0 0 1-1.459 0l-2.601-2.605a1.03 1.03 0 0 1 .001-1.459 1.03 1.03 0 0 1 1.458 0l1.872 1.876 4.63-4.633a1.031 1.031 0 1 1 1.459 1.46zm5.455-7.42c-.834-.834-5.41-3.784-10.571-3.784-5.165 0-9.738 2.95-10.571 3.785-.8.8-.787 1.423-.726 4.88.026 1.402.06 3.31.06 5.948 0 8.965 7.318 12.687 11.237 12.687 3.917 0 11.236-3.722 11.236-12.687 0-2.639.034-4.549.06-5.95.062-3.456.073-4.078-.725-4.878z" fill="#fff"/></svg>