<svg width="35" height="34" viewBox="0 0 35 34" fill="none" xmlns="http://www.w3.org/2000/svg">
<path fill-rule="evenodd" clip-rule="evenodd" d="M26.4029 17.116C24.8354 17.116 23.3641 17.4322 22.1266 17.9685C26.4579 19.2197 29.5241 22.2172 29.6066 25.7235C31.8616 25.4347 34.2954 24.5822 34.2954 22.2585C34.2954 19.4672 30.6791 17.116 26.4029 17.116Z" fill="#FE6D19"/>
<path fill-rule="evenodd" clip-rule="evenodd" d="M26.3616 15.136H26.3891C29.3178 15.136 31.7103 12.7435 31.7103 9.8285C31.7103 6.89975 29.3178 4.50725 26.3891 4.50725C25.8116 4.50725 25.2616 4.6035 24.7391 4.7685C25.6878 6.171 26.2378 7.86225 26.2378 9.691C26.2516 11.5472 25.6741 13.3347 24.5878 14.8197C25.1516 15.026 25.7428 15.136 26.3616 15.136Z" fill="#FE6D19"/>
<path fill-rule="evenodd" clip-rule="evenodd" d="M12.8591 17.9547C11.6216 17.4322 10.1504 17.116 8.5966 17.116C4.32035 17.116 0.704102 19.4672 0.704102 22.2585C0.704102 24.5822 3.1241 25.421 5.3791 25.7235C5.44785 22.2172 8.5141 19.2197 12.8591 17.9547Z" fill="#FE6D19"/>
<path fill-rule="evenodd" clip-rule="evenodd" d="M8.59661 15.136H8.63786C9.25661 15.136 9.84786 15.026 10.4116 14.8197C9.36661 13.3897 8.74786 11.616 8.74786 9.691C8.74786 7.86225 9.29786 6.171 10.2466 4.7685C9.72411 4.6035 9.17411 4.50725 8.59661 4.50725C5.66786 4.50725 3.28911 6.89975 3.28911 9.8285C3.28911 12.7435 5.66786 15.136 8.59661 15.136Z" fill="#FE6D19"/>
<path fill-rule="evenodd" clip-rule="evenodd" d="M17.4923 19.3669C12.0459 19.3669 7.44382 22.3314 7.44382 25.8404C7.44382 30.3779 15.0063 30.3779 17.4923 30.3779C21.8071 30.3779 27.5436 29.9104 27.5436 25.8693C27.5436 22.3438 22.9401 19.3669 17.4923 19.3669Z" fill="#FE6D19"/>
<path fill-rule="evenodd" clip-rule="evenodd" d="M17.4937 16.3819H17.539C19.3197 16.3764 20.9917 15.6765 22.2457 14.4129C23.501 13.1492 24.1885 11.4731 24.1817 9.69523C24.1817 6.00611 21.1828 3.00586 17.4937 3.00586C13.8059 3.00586 10.807 6.00611 10.807 9.69523C10.807 13.3816 13.8059 16.3819 17.4937 16.3819Z" fill="#FE6D19"/>
</svg>
