<svg width="33" height="30" viewBox="0 0 33 30" fill="none" xmlns="http://www.w3.org/2000/svg">
<path d="M23.9507 0C29.6413 0 33 3.30765 33 8.96967H26.0187C22.7786 8.96967 20.152 11.6141 20.152 14.805C20.152 17.9959 22.7786 20.5826 26.0187 20.5826H33V21.1026C33 26.6923 29.6413 30 23.9507 30H9.04933C3.35867 30 0 26.6923 0 21.1026V8.89745C0 3.30766 3.35867 0 9.04933 0H23.9507ZM31.768 11.454C32.4484 11.454 33 11.9972 33 12.6673V16.8849C32.9921 17.5518 32.4451 18.0904 31.768 18.0982H26.1507C24.5104 18.12 23.076 17.014 22.704 15.4405C22.5177 14.4638 22.7792 13.4559 23.4186 12.687C24.0579 11.9181 25.0096 11.4668 26.0187 11.454H31.768ZM26.8107 13.4039H26.268C25.9348 13.4001 25.614 13.5277 25.377 13.7584C25.14 13.9891 25.0067 14.3035 25.0067 14.6317C25.0066 15.3201 25.569 15.8804 26.268 15.8883H26.8107C27.5073 15.8883 28.072 15.3322 28.072 14.6461C28.072 13.9601 27.5073 13.4039 26.8107 13.4039ZM17.1307 6.48532H7.81733C7.12641 6.48527 6.56403 7.03266 6.556 7.71305C6.556 8.40146 7.11835 8.96175 7.81733 8.96967H17.1307C17.8273 8.96967 18.392 8.41353 18.392 7.72749C18.392 7.04146 17.8273 6.48532 17.1307 6.48532Z" fill="white"/>
</svg>
