<svg width="33" height="30" viewBox="0 0 33 30" fill="none" xmlns="http://www.w3.org/2000/svg"><path d="M23.95 0C29.642 0 33 3.308 33 8.97h-6.981c-3.24 0-5.867 2.644-5.867 5.835 0 3.19 2.627 5.778 5.867 5.778H33v.52C33 26.693 29.641 30 23.95 30H9.05C3.358 30 0 26.692 0 21.103V8.897C0 3.307 3.359 0 9.05 0h14.9zm7.818 11.454c.68 0 1.232.543 1.232 1.213v4.218a1.237 1.237 0 0 1-1.232 1.213h-5.617c-1.64.022-3.075-1.084-3.447-2.657a3.328 3.328 0 0 1 .715-2.754 3.437 3.437 0 0 1 2.6-1.233h5.749zm-4.957 1.95h-.543a1.257 1.257 0 0 0-.891.354 1.22 1.22 0 0 0-.37.874c0 .688.562 1.248 1.261 1.256h.543c.696 0 1.261-.556 1.261-1.242 0-.686-.565-1.242-1.261-1.242zm-9.68-6.919H7.817c-.69 0-1.253.548-1.261 1.228 0 .688.562 1.249 1.261 1.257h9.314c.696 0 1.261-.556 1.261-1.243 0-.686-.565-1.242-1.261-1.242z" fill="#fff"/></svg>