<svg width="832" height="346" viewBox="0 0 832 346" fill="none" xmlns="http://www.w3.org/2000/svg">
<path d="M-46.3333 2.58884C-46.3333 4.0555 -47.6667 7.6555 -49.2667 10.5888C-52.2 15.7888 -52.6 15.9222 -57.6667 15.1222C-60.8667 14.7222 -64.0667 13.1222 -65.6667 11.2555C-69.8 6.45549 -75.1333 5.12217 -91.9333 4.8555C-107 4.4555 -110.733 5.2555 -102.067 6.98883C-99.1333 7.52216 -98.3333 8.32216 -99.1333 9.12216C-100.067 10.0555 -101.667 10.0555 -104.2 9.12216C-108.867 7.38883 -118.333 7.38883 -118.333 9.12216C-118.333 9.92216 -116.733 11.2555 -114.867 12.0555C-112.2 13.2555 -111.267 13.2555 -110.467 12.0555C-109.4 10.1888 -100.867 11.5222 -96.2 14.1888C-93.6667 15.6555 -93.6667 15.6555 -96.3333 15.9222C-97.8 16.0555 -99.5333 15.9222 -100.333 15.7888C-101 15.5222 -104.467 15.5222 -107.8 15.6555C-112.867 15.7889 -114.733 15.2555 -118.2 12.1888C-120.467 10.1888 -122.333 7.78883 -122.333 6.72217C-122.333 3.52217 -127.4 7.52216 -133 15.1222C-135.933 18.9888 -139.4 22.5888 -140.733 22.9888C-142.333 23.5222 -144.2 26.9888 -146.2 33.1222C-147.933 38.3222 -149.8 42.8555 -150.467 43.2555C-153.8 45.2555 -150.733 46.4555 -142.6 46.4555C-128.867 46.4555 -115.267 48.0555 -117.267 49.3889C-118.6 50.1889 -118.2 50.7222 -115.933 51.2555C-110.333 52.8555 -113 54.4555 -121 54.4555C-125.4 54.4555 -129 53.9222 -129 53.1222C-129 52.3222 -127.533 51.7888 -125.667 51.7888C-123.8 51.7888 -122.333 51.1222 -122.333 50.4555C-122.333 49.6555 -126.333 49.2555 -131.933 49.2555C-137.267 49.3889 -140.333 49.7888 -138.6 50.0555C-137 50.3222 -135.667 51.2555 -135.667 51.9222C-135.667 53.6555 -144.733 53.2555 -150.333 51.3889C-156.2 49.2555 -158.333 49.7888 -161.4 53.9222L-163.8 57.1222H-159.667C-154.333 57.1222 -154.467 59.7888 -159.933 60.0555C-162.333 60.1888 -156.467 60.7222 -147 61.1222C-128.733 62.0555 -82.4667 65.7889 -70.6 67.2555C-61.6667 68.3222 -61.4 71.1222 -70.3333 71.1222C-73.9333 71.1222 -77 70.5888 -77 69.9222C-77 69.3888 -78.4667 69.2555 -80.3333 69.6555C-82.2 70.1889 -83.6667 69.9222 -83.6667 69.2555C-83.6667 68.5889 -86.3333 67.7889 -89.6667 67.5222C-93.8 67.2555 -95.6667 67.6555 -95.6667 68.7222C-95.6667 71.2555 -98.4667 70.8555 -100.467 68.0555C-101.8 66.4555 -102.6 66.1889 -103.267 67.2555C-103.933 68.1889 -108.067 69.2555 -112.467 69.7888C-120.067 70.5888 -120.733 70.4555 -121.4 67.9222C-122.2 64.8555 -127.133 64.0555 -127.933 66.7222C-128.333 67.9222 -130.6 67.7888 -136.733 65.9222C-143.4 63.7888 -147.4 63.5222 -158.333 64.1888C-169.4 64.8555 -171.933 64.7222 -172.6 63.1222C-173.4 60.9889 -177 60.3222 -177 62.4555C-177 63.1222 -176.067 64.1888 -174.867 64.8555C-172.867 66.0555 -172.867 66.4555 -175.133 70.3222C-176.467 72.5888 -178.067 74.4555 -178.733 74.4555C-179.267 74.4555 -179.4 74.9888 -179 75.7888C-178.6 76.4555 -177 77.1222 -175.533 77.1222C-174.067 77.1222 -173.267 77.7888 -173.667 78.4555C-174.2 79.2555 -175.133 79.5222 -175.8 78.9888C-177.667 77.9222 -182.733 90.1888 -181.933 93.9222C-181.667 95.6555 -181.933 96.7222 -182.467 96.3222C-183.133 95.9222 -183.667 97.1222 -183.667 98.9888C-183.667 100.722 -184.867 106.056 -186.333 110.722C-187.8 115.256 -189 122.056 -189 125.789C-189 133.656 -185 153.389 -180.333 168.456C-176.6 180.456 -167.933 196.456 -165 196.456C-163.933 196.456 -161.933 199.922 -160.2 205.122C-158.333 210.456 -155.667 215.122 -153.267 217.256C-150.867 219.389 -149 222.722 -148.467 225.789C-147.533 230.322 -147.4 230.589 -145.667 228.322C-144.6 226.856 -143.667 226.456 -143.667 227.389C-143.667 228.189 -143.267 229.922 -142.733 231.256C-142.067 233.122 -142.467 233.389 -144.733 232.856C-147.133 232.189 -147.667 232.722 -148.467 236.589C-149.4 241.922 -148.067 253.122 -146.333 253.122C-145.8 253.122 -145.4 250.189 -145.4 246.589C-145.533 242.856 -145 239.256 -144.067 238.322C-142.867 237.122 -142.6 239.522 -143.133 249.389C-143.667 260.722 -143.4 262.322 -140.867 265.256C-139.4 266.989 -137.4 268.456 -136.6 268.456C-135.8 268.456 -134.6 270.456 -133.8 272.722C-133.133 275.122 -132.067 277.122 -131.533 277.122C-130.867 277.122 -130.333 277.922 -130.333 278.989C-130.333 280.056 -127.8 281.789 -124.733 282.989C-120.333 284.856 -119 284.989 -118.2 283.522C-117.267 282.189 -117 282.189 -117 283.389C-117 284.722 -114.2 284.989 -106.6 284.856C-99 284.722 -94.8667 285.256 -90.6 287.256C-84.7333 289.922 -82.8667 292.589 -87.9333 291.122C-91.2667 290.056 -91.1333 290.056 -95.4 290.322C-104.067 290.722 -89.4 294.856 -78.0667 295.122C-74.3333 295.122 -74.2 296.589 -77.6667 298.456C-80.2 299.789 -82.0667 299.922 -85.9333 298.722C-88.7333 297.922 -92.4667 296.856 -94.2 296.322L-97.4 295.522L-94.3333 299.656C-92.7333 302.056 -91.6667 304.322 -92.2 304.722C-93.2667 305.922 -105 302.456 -110.6 299.256L-115.533 296.456L-118.333 299.522L-121.267 302.589L-117.8 305.922C-113.533 310.189 -107.267 311.656 -93.2667 311.789C-83.9333 311.789 -81.9333 312.189 -79.5333 314.589C-77.8 316.322 -74.3333 317.789 -70.8667 318.189C-67.5333 318.456 -65.4 319.389 -65.8 320.056C-66.3333 320.856 -68.8667 321.122 -71.5333 320.722L-76.3333 319.922L-72.4667 323.256C-67.8 327.389 -69 329.122 -74.2 326.056C-78.4667 323.522 -83.6667 322.989 -83.6667 325.122C-83.6667 325.789 -82.4667 326.456 -81 326.456C-77.4 326.456 -77.6667 328.456 -81.2667 330.056C-84.2 331.256 -83.9333 331.522 -77.6667 335.522C-70.4667 340.056 -67.8 340.722 -65.2667 338.189C-63.5333 336.456 -49.1333 338.189 -35.4 341.656C-31.5333 342.722 -25.6667 343.922 -22.3333 344.322L-16.3333 345.122L-22.7333 343.122C-26.2 341.922 -28.7333 340.456 -28.3333 339.789C-27.9333 339.122 -20.6 338.856 -11.2667 339.256C-2.33334 339.656 8.86666 340.056 13.6667 340.189C18.4667 340.456 25.6667 340.989 29.6667 341.656L37 342.589L31.1333 339.922C27.9333 338.322 21.9333 336.056 17.8 334.856C11.8 333.122 10.8667 332.589 13 331.656C16.6 330.322 25.4 330.189 26.2 331.522C26.6 332.189 31 333.789 35.9333 335.122C40.8667 336.322 47 338.589 49.4 339.922C52.7333 341.789 53.6667 341.922 53.6667 340.589C53.6667 339.522 52.7333 338.322 51.5333 337.922C47.6667 336.456 51.1333 334.189 56.0667 334.989C64.0667 336.189 59 333.522 47.6667 330.456C33.9333 326.722 28.0667 324.856 26.2 323.522C24.3333 322.189 12.7333 319.122 4.59999 317.789C0.999995 317.256 -1.8 317.389 -2.86666 318.322C-4.2 319.522 -4.86667 319.389 -5.53334 317.789C-6.33334 315.522 -19.1333 314.856 -19.9333 316.989C-20.4667 318.589 -52.4667 316.322 -58.6 314.189C-63 312.722 -60.4667 312.456 -39.2667 312.589C-25.9333 312.722 -9.66666 313.389 -3.13333 314.189C3.53334 314.989 9.13333 315.389 9.53333 315.122C9.8 314.722 9.39999 314.456 8.59999 314.456C7.66666 314.456 7 313.789 7 313.122C7 312.322 9.26666 312.056 12.7333 312.456L18.3333 313.122L13 310.722C10.0667 309.256 4.86667 307.789 1.26667 307.256C-2.33333 306.722 -4.73334 305.656 -4.20001 304.989C-3.26667 303.522 8.33333 304.722 10.3333 306.589C11 307.256 21.2667 307.789 33.2667 307.789C51.8 307.789 85.4 310.722 100.333 313.789C102.2 314.189 100.067 312.589 95.6667 310.456L87.6667 306.456L97 306.989C102.2 307.389 108.467 308.056 111 308.456C114.467 309.122 115.133 308.989 113.533 307.922C112.467 307.256 110.067 306.322 108.2 305.922C101.267 304.456 89.1333 300.056 91.8 299.922C96.6 299.656 96.6 297.922 92.0667 294.189L87.6667 290.589L92.0667 290.456C94.4667 290.456 97.5333 289.922 98.7333 289.256C100.067 288.589 104.867 288.856 110.333 289.922C135.533 294.589 148.067 296.989 152.733 297.789C166.733 300.456 149.667 292.589 131.667 287.922C128.733 287.256 123.8 285.922 120.6 285.122C113.4 283.256 106.6 277.122 109.267 274.722C110.467 273.389 113 273.389 119.267 274.456C129.933 276.189 129.267 276.189 130.067 273.122C130.867 269.922 133 269.789 144.067 272.456C148.6 273.522 157.267 274.989 163.4 275.789C169.4 276.589 175.933 277.522 178.067 277.922C180.067 278.456 181.667 278.189 181.667 277.389C181.667 275.922 173.933 273.256 156.333 269.122C149.4 267.389 140.6 264.989 137 263.789C133.267 262.456 127.4 260.989 123.933 260.456C118.867 259.656 117.667 258.989 117.667 256.856C117.667 254.589 118.333 254.322 121.4 254.856C123.4 255.389 131.933 256.856 140.333 258.456C148.733 259.922 159.4 261.922 164.067 262.856C168.6 263.922 172.333 264.189 172.333 263.522C172.333 262.989 172.067 262.456 171.667 262.456C168.6 262.456 144.6 256.589 143.4 255.522C140.467 253.122 141.533 251.789 145.933 251.789C148.2 251.789 149.8 251.389 149.4 250.989C148.333 250.056 130.2 245.922 108.333 241.789C84.7333 237.389 84.3333 237.256 84.3333 235.922C84.3333 235.256 85.4 234.989 86.7333 235.256C108.333 239.789 132.2 242.589 154.333 243.122C164.733 243.389 174.067 244.856 198.2 250.456C216.2 254.589 215.933 252.989 197.667 246.856C196.067 246.322 196.067 246.056 197.4 245.522C199.8 244.589 209.133 246.456 242.333 254.456C277.667 262.989 294.867 266.322 307 266.989C317.933 267.656 317.4 266.456 305.533 263.256C273.533 254.456 267.667 252.722 267.267 251.656C267 250.989 265.133 250.456 263 250.456C258.6 250.456 245.267 247.922 225 243.122C217 241.122 199.8 237.256 187 234.456C152.733 226.989 144.333 224.856 144.333 223.522C144.333 222.989 144.6 222.456 145 222.456C147.533 222.456 240.2 243.389 243.933 244.722C244.867 245.122 245.667 244.456 245.667 243.256C245.667 240.056 245.4 240.056 282.333 248.322C287.4 249.522 294.067 250.456 297.133 250.456C300.067 250.456 312.067 252.856 323.667 255.789C344.333 260.989 348.6 261.389 345.533 257.656C344.2 256.056 345.267 255.922 352.467 256.722L361 257.522L356.733 253.922C351.4 249.522 351 246.456 355.667 246.456C357.533 246.456 360.2 245.789 361.533 244.856C364.6 242.989 376.6 245.256 399 251.656C406.733 253.922 414.467 255.789 416.333 255.656H419.667L416.333 254.189C414.467 253.389 410.067 251.389 406.333 249.656C399.133 246.456 383.667 242.589 238.333 208.056C225.933 204.989 213.4 202.189 210.6 201.656C205.267 200.722 202.467 198.456 206.733 198.456C208.067 198.456 211 198.989 213.133 199.656C215.267 200.322 221.533 201.922 227 203.122C232.467 204.322 250.467 208.589 267 212.589C310.2 223.122 389.8 242.189 393.667 242.856C397.267 243.522 411.8 247.922 421.533 251.122C427 252.989 431.4 252.856 426.467 250.989C421.933 249.256 424.467 247.656 430.333 248.589C433.667 248.989 436.333 249.122 436.333 248.722C436.333 247.789 414.467 240.189 401 236.589C394.467 234.856 384.467 232.056 379 230.456C363.267 225.922 305.8 211.522 267 202.456C233.267 194.589 220.067 190.589 233.667 192.456C240.867 193.389 294.467 206.322 333 216.456C407.667 236.056 413.133 237.256 419.267 235.922C423.533 234.856 426.867 234.989 432.333 236.456C441 238.722 464.333 243.922 480.333 247.256C486.6 248.456 501.267 252.456 513 256.056C524.733 259.656 536.2 262.589 538.333 262.722C540.6 262.722 545 263.389 548.067 264.189C552.6 265.256 554.2 265.122 555 263.789C555.533 262.856 557.4 262.189 559.133 262.189C564.067 262.189 596.333 270.456 599.533 272.456C605.933 276.589 626.733 284.722 632.333 285.389C635.667 285.789 649.933 290.722 664.067 296.456C678.2 302.056 690.067 306.456 690.467 306.056C691.267 305.256 685 300.989 677.667 297.656L671.667 294.856L677.667 293.922C681.8 293.256 686.467 293.656 691.933 294.989C709.133 299.522 703.267 296.189 682.733 289.656C665.533 284.322 661 282.589 661.933 281.789C662.333 281.389 667 282.589 672.467 284.456C685.933 289.122 688.867 287.922 675.933 283.256C670.333 281.122 665.8 279.256 665.933 278.989C666.2 278.856 670.6 279.789 675.667 281.122C700.467 287.922 716.333 292.456 722.867 294.722C726.867 296.056 730.333 296.856 730.733 296.589C731 296.189 728.467 294.189 725.133 292.189C721.667 290.056 719.267 288.056 719.667 287.656C720.2 286.989 713.133 282.989 699.667 276.056C695.533 274.056 693.667 272.189 693.667 270.456C693.667 268.989 694.6 267.789 695.667 267.789C700.6 267.789 719.8 274.056 734.867 280.589C746.6 285.656 752.333 287.389 755 286.989C758.6 286.189 768.467 290.189 770.333 293.122C771.533 295.122 773.667 294.722 773.667 292.456C773.667 291.389 772.067 289.522 770.067 288.189C767.933 286.856 765 284.589 763.533 282.989L760.733 280.056L764.733 279.256C768.867 278.456 781.533 281.789 783 283.922C783.533 284.589 785.933 285.389 788.333 285.922C792.733 286.589 792.867 286.589 790.467 284.589C789 283.389 787 282.456 785.933 282.456C784.867 282.456 782.6 281.256 780.867 279.922C778.333 277.922 778.067 277.256 779.667 276.589C780.733 276.189 783.667 276.189 786.067 276.456C789.267 276.989 787.933 276.056 781 272.589C771.533 268.056 759.933 258.322 762.867 257.389C763.667 257.122 763.933 256.322 763.533 255.522C762.867 254.589 763.933 254.322 766.467 254.989C768.6 255.522 772.467 256.189 775 256.322C779.667 256.722 787.8 259.522 784.6 259.656C782.067 259.789 783.8 262.056 787 262.856C788.467 263.256 789.4 262.989 788.867 262.322C787.8 260.456 790.733 260.856 795.133 263.256C797.4 264.322 801.4 265.122 804.067 264.856L809 264.322L805.4 262.722C802.067 261.389 800.2 258.456 802.733 258.456C803.8 258.456 818.2 262.989 822.067 264.456C823.8 265.122 824.333 264.722 824.333 262.589C824.333 260.989 823.533 259.656 822.733 259.656C821.8 259.522 823.4 258.989 826.333 258.589L831.667 257.789L821.4 254.056C815.8 251.922 810.2 249.122 808.867 247.656C807.667 246.322 805.533 245.122 804.2 245.122C802.867 245.122 801.4 244.456 801 243.789C800.6 242.989 801 242.456 801.933 242.456C805 242.456 799.933 239.789 796.867 239.789C795.267 239.789 793.267 238.856 792.333 237.789C791 236.189 791.133 235.789 793.133 235.656C794.6 235.656 793.667 234.856 791 233.922C788.333 232.989 785.667 232.722 784.733 233.389C782.2 235.389 771.4 232.056 767 227.922C765.933 226.856 763.133 225.256 760.6 224.189C758.2 223.256 755.933 221.522 755.4 220.456C755 219.389 753.533 218.456 752.2 218.456C750.867 218.456 749 217.256 748.067 215.789C747.133 214.322 745.533 213.122 744.467 213.122C742.467 213.122 714.467 204.056 710.467 202.189C708.067 200.989 667.8 186.856 651 181.389C646.2 179.789 637.267 176.722 631 174.589C624.733 172.456 608.867 167.256 595.667 163.122C564.867 153.389 551.8 148.989 557.667 149.922C560.2 150.456 568.6 152.856 576.2 155.389C583.8 157.789 590.733 159.656 591.533 159.389C592.333 159.122 587.533 157.122 581 154.856C574.333 152.589 551 144.456 529 136.722C496.2 125.122 449 109.922 409 97.7888C396.333 93.9222 385.667 91.6555 384.333 92.4555C383.533 92.8555 383 92.7222 383 92.0555C383 91.3888 380.2 90.3222 376.733 89.7888C373.133 89.3888 369.133 88.1889 367.667 87.2555C366.2 86.3222 363.533 85.2555 361.667 84.8555C358.067 84.0555 329.933 75.9222 317.667 72.1888C313.667 70.9888 306.467 69.2555 301.667 68.3222C289.133 65.9222 271.267 61.3888 255 56.4555C251 55.2555 244.733 53.7889 241 53.1222C237.4 52.5889 227.133 50.4555 218.333 48.4555C196.067 43.5222 175.267 39.7888 170.333 39.7888C168.067 39.7888 165.667 39.2555 165 38.5888C164.2 37.9222 161.133 36.9888 158.067 36.4555C153.267 35.6555 152.333 35.9222 152.333 37.6555C152.333 38.8555 151.8 39.7888 151 39.7888C150.333 39.7888 149.667 38.5889 149.667 37.2555C149.667 35.2555 148.333 34.4555 144.067 33.6555C140.867 33.1222 137.4 32.4555 136.333 32.3222C135.267 32.0555 130.467 31.3888 125.667 30.5888C120.867 29.9222 111.267 28.0555 104.333 26.5888C97.4 24.9888 86.3333 22.8555 79.6667 21.7888C73.1333 20.7222 62.8667 18.9888 57 17.9222C39 14.7222 33.6667 14.1889 33.6667 15.6555C33.6667 16.4555 32.6 17.1222 31.1333 17.1222C28.2 17.1222 21.4 13.7888 22.3333 12.8555C23.4 11.7888 8.6 9.12216 1.4 9.12216C-2.33334 9.12216 -5 9.78884 -5 10.5888C-5 11.3888 -5.8 11.7889 -6.6 11.3889C-7.53334 11.1222 -8.19999 10.1889 -8.06666 9.38885C-7.93333 8.58885 -10.3333 7.6555 -13.4 7.12216C-16.4667 6.58883 -21.6667 5.25551 -24.8667 4.05551C-30.2 2.18884 -30.7333 2.18884 -31.9333 4.18884C-33.6667 7.38884 -37.9333 6.98883 -41.8 3.12216C-45.8 -0.877838 -46.3333 -1.01116 -46.3333 2.58884ZM-41 11.2555C-41 12.3222 -41.5333 12.8555 -42.3333 12.4555C-43 12.0555 -43.6667 11.1222 -43.6667 10.3222C-43.6667 9.65551 -43 9.12216 -42.3333 9.12216C-41.5333 9.12216 -41 10.0555 -41 11.2555ZM7 11.7888C7 12.4555 6.2 13.1222 5.13333 13.1222C4.06667 13.1222 2.73333 12.4555 2.33333 11.7888C1.93333 10.9888 2.73333 10.4555 4.2 10.4555C5.8 10.4555 7 10.9888 7 11.7888ZM-123.933 14.7222C-124.6 16.7222 -130.333 17.9222 -130.333 16.0555C-130.333 14.1888 -128.733 13.1222 -125.933 13.1222C-124.6 13.1222 -123.667 13.7888 -123.933 14.7222ZM-131.667 33.1222C-131.667 33.7888 -132.2 34.4555 -132.867 34.4555C-133.667 34.4555 -134.6 33.7888 -135 33.1222C-135.4 32.3222 -134.867 31.7888 -133.8 31.7888C-132.6 31.7888 -131.667 32.3222 -131.667 33.1222ZM125.667 32.3222C125.667 32.7222 125.133 33.3888 124.333 33.7888C123.667 34.1888 123 33.9222 123 33.2555C123 32.4555 123.667 31.7888 124.333 31.7888C125.133 31.7888 125.667 32.0555 125.667 32.3222ZM81.2667 35.2555C80.8667 35.6555 79.6667 35.7889 78.7333 35.3889C77.6667 34.9889 78.0667 34.5888 79.5333 34.5888C81 34.4555 81.8 34.8555 81.2667 35.2555ZM-50.3333 38.9888C11.5333 44.3222 40.6 48.3222 104.333 59.9222C112.733 61.3888 124.467 63.5222 130.333 64.4555C148.733 67.6555 169 71.9222 220.333 83.2555C279.933 96.4555 362.867 116.856 371.267 120.322C374.067 121.522 377.667 122.456 379.4 122.456C386.2 122.456 519.8 158.056 552.333 168.456C555.667 169.522 568.2 173.389 580.333 177.122C612.2 186.989 629.8 193.256 628.867 194.589C628.467 195.256 629.133 195.389 630.333 194.989C631.667 194.456 633.533 195.256 635.133 196.989C637 198.989 639.4 199.789 643.4 199.789C647 199.789 648.333 200.189 647.267 200.989C645.933 201.789 646.067 202.322 648.2 202.856C649.8 203.256 651 202.989 651 202.189C651 201.389 652.6 201.922 654.6 203.122C656.6 204.456 660.333 205.789 662.867 206.056C666.733 206.456 671.4 208.189 682.333 213.122C683.8 213.789 688.733 215.522 693.267 217.122C705.8 221.122 716.333 226.456 716.333 228.722C716.333 232.989 696.467 228.722 667 218.189C663 216.722 654.867 214.056 649 212.322C643.133 210.589 637.133 208.589 635.667 207.922C629.267 204.989 559.4 184.989 533 178.456C524.2 176.322 514.6 173.922 511.667 173.122C493.267 168.189 463.8 161.122 463.4 161.522C463.133 161.789 467.533 163.389 473.133 164.989C478.733 166.589 483 168.189 482.6 168.589C482.2 168.989 474.2 167.256 464.733 164.589C455.4 162.056 442.867 158.722 437 157.389C431.133 155.922 418.2 152.589 408.333 149.922C360.467 137.256 265.133 114.722 195 99.2555C160.733 91.7888 148.333 88.4555 151.267 87.5222C153.667 86.7222 153.4 86.5888 150.067 86.9888C147.667 87.1222 145.667 86.8555 145.667 86.1888C145.667 85.5222 142.867 85.3888 139.533 85.9222C135 86.5888 133.533 86.4555 134.2 85.2555C134.867 84.3222 133.933 84.0555 131.267 84.5888C129 85.1222 127 84.7222 126.467 83.9222C125.933 83.1222 123.8 82.4555 121.667 82.4555C119.667 82.4555 117.667 81.9222 117.4 81.2555C117.267 80.5889 114.333 79.6555 111 79.2555C98.4667 77.7889 61.9333 69.6555 59.8 67.9222C58.4667 66.8555 54.0667 66.0555 48.4667 65.9222C43.4 65.7888 38.4667 64.9888 37.4 64.1888C35.9333 62.9888 22.6 60.7222 14.3333 60.4555C12.8667 60.3222 10.7333 59.9222 9.66666 59.3889C8.59999 58.9889 3.8 57.6555 -0.866665 56.4555C-7.66666 54.7222 -9.66667 54.5888 -10.4667 55.9222C-11.2667 57.3888 -12.0667 57.2555 -13.9333 55.6555C-16.3333 53.5222 -21.9333 52.3222 -53.6667 47.7888C-68.8667 45.5222 -85.5333 42.1888 -91.6667 40.3222C-93.4 39.6555 -93.4 39.5222 -91.6667 38.4555C-88.8667 36.5888 -75.8 36.8555 -50.3333 38.9888ZM188.333 44.9888C188.333 47.3888 185.933 47.7888 184.333 45.7888C183 44.0555 183.133 43.7888 185.533 43.7888C187 43.7888 188.333 44.3222 188.333 44.9888ZM138.733 46.9888C144.067 48.0555 148.867 49.2555 149.267 49.6555C150.867 51.2555 139.4 50.1888 130.333 47.7888C118.733 44.8555 124.467 44.3222 138.733 46.9888ZM-95.1333 52.0555C-96.2 55.6555 -96.7333 56.4555 -97.6667 55.6555C-98.6 54.5889 -96.7333 49.1222 -95.4 49.1222C-94.7333 49.1222 -94.6 50.4555 -95.1333 52.0555ZM196.2 51.1222C213.8 54.8555 284.067 72.0555 307.667 78.5888C324.467 83.1222 324.467 85.7888 307.667 81.9222C298.333 79.6555 295.933 80.1888 304.6 82.4555C315.933 85.6555 317.267 86.4555 309.667 85.6555C305.667 85.1222 297 83.3889 290.333 81.6555C267.933 75.7889 263.667 74.7222 242.333 69.9222C210.2 62.8555 179.4 56.1888 169.667 54.1888C164.867 53.2555 162.2 52.3222 163.667 52.0555C165.133 51.9222 170.2 52.5889 174.733 53.6555C179.933 54.8555 182.733 54.9888 182.2 54.1888C181.667 53.3888 182.333 51.9222 183.667 50.8555C186.733 48.7222 185 48.7222 196.2 51.1222ZM-85.6667 51.7888C-85.2667 52.4555 -85.8 53.1222 -86.8667 53.1222C-87.9333 53.1222 -89.2667 52.4555 -89.6667 51.7888C-90.0667 50.9888 -89.5333 50.4555 -88.4667 50.4555C-87.4 50.4555 -86.0667 50.9888 -85.6667 51.7888ZM-71.6667 57.1222C-71.6667 57.7889 -72.6 58.4555 -73.6667 58.4555C-74.7333 58.4555 -75.6667 57.7889 -75.6667 57.1222C-75.6667 56.3222 -74.7333 55.7888 -73.6667 55.7888C-72.6 55.7888 -71.6667 56.3222 -71.6667 57.1222ZM188.067 63.6555C191.4 65.6555 186.6 66.3222 182.333 64.4555L178.333 62.7222L182.333 62.5888C184.6 62.5888 187.133 62.9889 188.067 63.6555ZM-148.733 67.5222C-147.533 68.7222 -158.067 69.5222 -159.8 68.4555C-160.467 67.9222 -160.6 66.9888 -160.2 66.1888C-159.4 64.8555 -150.467 65.9222 -148.733 67.5222ZM-32.2 75.5222C-33.4 76.7222 -37.1333 74.4555 -36.3333 73.1222C-35.6667 72.0555 -34.8667 72.1889 -33.5333 73.2555C-32.4667 74.0555 -31.9333 75.1222 -32.2 75.5222ZM-147.133 76.0555C-145.133 78.8555 -145.4 81.1222 -147.8 81.1222C-148.467 81.1222 -149 80.1889 -149 79.1222C-149 78.0555 -149.533 77.1222 -150.333 77.1222C-151 77.1222 -151.267 78.0555 -150.867 79.1222C-149.667 82.0555 -155.933 81.7888 -162.333 78.5888C-165.267 77.1222 -167.933 76.5889 -168.333 77.2555C-168.733 77.9222 -170.2 77.6555 -171.667 76.8555C-176.067 74.0555 -173.267 73.1222 -161 73.1222C-150.333 73.1222 -149 73.3888 -147.133 76.0555ZM-93 77.2555C-93 78.7222 -93.5333 79.6555 -94.3333 79.1222C-95 78.7222 -95.2667 77.5222 -94.7333 76.4555C-93.8 73.6555 -93 73.9222 -93 77.2555ZM-138.333 77.7888C-138.333 78.8555 -139.267 79.7888 -140.333 79.7888C-141.4 79.7888 -142.333 78.8555 -142.333 77.7888C-142.333 76.7222 -141.4 75.7888 -140.333 75.7888C-139.267 75.7888 -138.333 76.7222 -138.333 77.7888ZM-131.667 79.7888C-131.667 80.4555 -132.2 81.1222 -133 81.1222C-133.667 81.1222 -134.333 80.4555 -134.333 79.7888C-134.333 78.9888 -133.667 78.4555 -133 78.4555C-132.2 78.4555 -131.667 78.9888 -131.667 79.7888ZM-95.1333 83.1222C-94.6 84.4555 -95.2667 85.1222 -97 85.1222C-98.7333 85.1222 -99.4 84.4555 -98.8667 83.1222C-98.3333 82.0555 -97.5333 81.1222 -97 81.1222C-96.4667 81.1222 -95.6667 82.0555 -95.1333 83.1222ZM-158.333 85.1222C-158.333 85.7889 -159.267 86.4555 -160.333 86.4555C-161.4 86.4555 -162.333 85.7889 -162.333 85.1222C-162.333 84.3222 -161.4 83.7888 -160.333 83.7888C-159.267 83.7888 -158.333 84.3222 -158.333 85.1222ZM108.733 84.7222C107.8 84.9888 105.933 84.9888 104.733 84.7222C103.4 84.3222 104.2 84.0555 106.333 84.0555C108.6 84.0555 109.533 84.3222 108.733 84.7222ZM-46.3333 86.4555C-46.3333 87.1222 -46.8667 87.7888 -47.6667 87.7888C-48.3333 87.7888 -49 87.1222 -49 86.4555C-49 85.6555 -48.3333 85.1222 -47.6667 85.1222C-46.8667 85.1222 -46.3333 85.6555 -46.3333 86.4555ZM73.6667 90.4555C73.6667 91.1222 73.1333 91.7888 72.3333 91.7888C71.6667 91.7888 71 91.1222 71 90.4555C71 89.6555 71.6667 89.1222 72.3333 89.1222C73.1333 89.1222 73.6667 89.6555 73.6667 90.4555ZM-167.667 91.1222C-167.667 92.7222 -172.333 101.122 -173.267 101.122C-174.733 101.122 -174.6 100.589 -172.067 95.1222C-170.2 91.2555 -167.667 88.8555 -167.667 91.1222ZM156.333 93.1222C156.333 93.7888 155.8 94.4555 155 94.4555C154.333 94.4555 153.667 93.7888 153.667 93.1222C153.667 92.3222 154.333 91.7888 155 91.7888C155.8 91.7888 156.333 92.3222 156.333 93.1222ZM142.6 97.1222C150.467 98.7222 160.867 100.722 165.667 101.789C170.467 102.989 184.2 105.922 196.333 108.589C227.133 115.122 250.733 120.456 276.333 126.589C288.467 129.522 308.2 134.322 320.333 137.256C363.933 147.656 474.867 176.589 476.2 177.922C477.4 178.989 472.867 178.322 466.467 176.456C452.733 172.322 340.2 143.789 317 138.456C311.133 137.256 288.333 131.922 266.333 126.722C228.733 117.789 210.067 113.656 153.667 101.789C140.867 99.1222 128.867 96.3222 127 95.7888C120.867 93.7888 127.8 94.3222 142.6 97.1222ZM32.3333 98.4555C32.3333 99.1222 31.8 99.7888 31 99.7888C30.3333 99.7888 29.6667 99.1222 29.6667 98.4555C29.6667 97.6555 30.3333 97.1222 31 97.1222C31.8 97.1222 32.3333 97.6555 32.3333 98.4555ZM56.3333 102.456C56.3333 103.122 56.0667 103.789 55.8 103.789C55.4 103.789 54.7333 103.122 54.3333 102.456C53.9333 101.656 54.2 101.122 54.8667 101.122C55.6667 101.122 56.3333 101.656 56.3333 102.456ZM61.6667 105.789C61.6667 106.856 61.1333 107.789 60.3333 107.789C59.6667 107.789 59 106.856 59 105.789C59 104.722 59.6667 103.789 60.3333 103.789C61.1333 103.789 61.6667 104.722 61.6667 105.789ZM71 105.122C71 105.789 70.4667 106.456 69.6667 106.456C69 106.456 68.3333 105.789 68.3333 105.122C68.3333 104.322 69 103.789 69.6667 103.789C70.4667 103.789 71 104.322 71 105.122ZM159.133 110.322C204.067 119.522 226.333 124.856 225.267 126.056C225 126.322 219.4 125.256 212.867 123.789C201.533 121.122 175.267 115.656 148.467 110.322C141.533 108.989 135.667 107.522 135.267 107.122C133.8 105.656 140.733 106.589 159.133 110.322ZM-165.667 109.122C-166.067 109.789 -167 110.456 -167.8 110.456C-168.467 110.456 -169 109.789 -169 109.122C-169 108.322 -168.067 107.789 -166.867 107.789C-165.8 107.789 -165.267 108.322 -165.667 109.122ZM-180.067 116.056C-180.467 117.122 -180.867 116.722 -180.867 115.256C-181 113.789 -180.6 112.989 -180.2 113.522C-179.8 113.922 -179.667 115.122 -180.067 116.056ZM-182.867 141.656C-181 152.722 -176.733 168.056 -172.2 178.989C-171.533 180.722 -171.667 181.256 -172.733 180.722C-174.867 179.256 -182.067 156.589 -184.333 143.789C-185.4 137.522 -186.2 128.589 -186.067 123.789C-185.933 116.189 -185.8 115.922 -185.4 121.789C-185.133 125.389 -184.067 134.456 -182.867 141.656ZM-174.467 154.456C-172.867 161.389 -171.267 168.322 -170.867 169.789C-170.333 171.522 -170.467 171.922 -171.267 171.122C-174.333 167.922 -181 135.656 -180.867 125.389C-180.733 118.189 -180.6 118.322 -179 129.789C-178.067 136.322 -176.067 147.522 -174.467 154.456ZM-165.533 123.522C-166.733 124.722 -170.467 122.456 -169.667 121.122C-169 120.056 -168.2 120.189 -166.867 121.256C-165.8 122.056 -165.267 123.122 -165.533 123.522ZM231.933 127.256C231.533 127.656 230.333 127.789 229.4 127.389C228.333 126.989 228.733 126.589 230.2 126.589C231.667 126.456 232.467 126.856 231.933 127.256ZM-170.333 132.989C-170.333 137.922 -164.067 164.856 -162.2 168.189C-160.6 171.122 -161 172.056 -163.267 170.722C-165.267 169.522 -173 139.656 -173 133.522C-173 131.122 -172.333 129.122 -171.667 129.122C-170.867 129.122 -170.333 130.856 -170.333 132.989ZM278.2 138.322C278.6 138.856 277.4 139.122 275.667 138.722C273.8 138.456 272.333 137.922 272.333 137.656C272.333 136.589 277.533 137.122 278.2 138.322ZM551.4 148.722C550.467 148.989 548.867 148.989 548.067 148.722C547.133 148.322 547.8 148.056 549.667 148.056C551.533 148.056 552.2 148.322 551.4 148.722ZM487.933 169.922C487.533 170.322 486.333 170.456 485.4 170.056C484.333 169.656 484.733 169.256 486.2 169.256C487.667 169.122 488.467 169.522 487.933 169.922ZM-159.667 177.922C-159.667 178.989 -160.2 179.522 -161 179.122C-161.667 178.722 -162.333 177.789 -162.333 176.989C-162.333 176.322 -161.667 175.789 -161 175.789C-160.2 175.789 -159.667 176.722 -159.667 177.922ZM486.6 180.589C486.2 180.989 485 181.122 484.067 180.722C483 180.322 483.4 179.922 484.867 179.922C486.333 179.789 487.133 180.189 486.6 180.589ZM491.667 182.456C492.067 183.256 491.533 183.389 490.467 182.989C488.067 182.056 487.667 181.122 489.533 181.122C490.333 181.122 491.267 181.656 491.667 182.456ZM-169.8 184.589C-169.4 185.656 -169.533 186.189 -170.333 185.789C-171.133 185.389 -171.667 184.456 -171.667 183.656C-171.667 181.789 -170.733 182.189 -169.8 184.589ZM-151.133 198.722C-150.733 200.456 -150.467 203.256 -150.467 205.122L-150.6 208.456L-151.533 204.989C-152.2 203.122 -153.4 200.322 -154.2 198.722C-155.4 196.322 -155.4 195.789 -153.933 195.789C-152.867 195.789 -151.667 197.122 -151.133 198.722ZM-133 221.122C-133 221.789 -133.533 222.456 -134.333 222.456C-135 222.456 -135.667 221.789 -135.667 221.122C-135.667 220.322 -135 219.789 -134.333 219.789C-133.533 219.789 -133 220.322 -133 221.122ZM-144.067 224.056C-144.467 225.122 -144.867 224.722 -144.867 223.256C-145 221.789 -144.6 220.989 -144.2 221.522C-143.8 221.922 -143.667 223.122 -144.067 224.056ZM759 225.122C760.067 225.789 760.467 226.456 759.667 226.456C759 226.456 757.4 225.789 756.333 225.122C755.267 224.456 755 223.789 755.667 223.789C756.467 223.789 757.933 224.456 759 225.122ZM-135.667 236.322C-137.4 238.056 -140.333 235.389 -139 233.122C-138.333 232.056 -137.533 232.056 -136.2 233.256C-134.867 234.322 -134.6 235.256 -135.667 236.322ZM806.2 252.989C806.6 253.522 809.4 254.456 812.333 254.989C815.267 255.389 817.667 256.456 817.667 257.256C817.667 258.056 816.467 258.322 814.733 257.789C807.133 255.522 803 253.789 803 252.856C803 251.389 805.267 251.522 806.2 252.989ZM-74.4667 255.256C-73.2667 256.322 -89.8 255.656 -91.5333 254.589C-92.6 253.922 -89.6667 253.656 -84.2 254.056C-79.1333 254.456 -74.7333 254.989 -74.4667 255.256ZM336.333 254.456C336.333 255.122 335.133 255.789 333.667 255.789C332.2 255.789 331 255.122 331 254.456C331 253.656 332.2 253.122 333.667 253.122C335.133 253.122 336.333 253.656 336.333 254.456ZM-110.333 255.656C-110.333 256.322 -108.733 257.256 -106.6 257.789L-103 258.722L-106.2 260.189C-108.733 261.389 -109.667 261.256 -111 259.256C-111.933 258.056 -113.533 257.122 -114.6 257.256C-118.067 257.656 -119.8 257.122 -119 255.789C-117.933 254.189 -110.333 254.056 -110.333 255.656ZM115.933 255.256C115.533 255.656 114.333 255.789 113.4 255.389C112.333 254.989 112.733 254.589 114.2 254.589C115.667 254.456 116.467 254.856 115.933 255.256ZM-36.3333 259.789C-35.9333 260.456 -36.2 261.122 -36.8667 261.122C-37.6667 261.122 -38.3333 260.456 -38.3333 259.789C-38.3333 258.989 -38.0667 258.456 -37.8 258.456C-37.4 258.456 -36.7333 258.989 -36.3333 259.789ZM-131.267 266.056C-132.2 266.322 -133.8 266.322 -134.6 266.056C-135.533 265.656 -134.867 265.389 -133 265.389C-131.133 265.389 -130.467 265.656 -131.267 266.056ZM-110.2 268.056C-109 270.189 -109.533 270.456 -114.867 270.456C-118.2 270.456 -121.267 269.789 -121.8 268.989C-122.2 268.189 -124.067 267.922 -125.8 268.322C-128.867 269.122 -130.067 267.922 -128.067 265.922C-127.533 265.522 -123.667 265.256 -119.267 265.389C-113.4 265.656 -111.133 266.322 -110.2 268.056ZM59.9333 267.256C59.5333 267.656 58.3333 267.789 57.4 267.389C56.3333 266.989 56.7333 266.589 58.2 266.589C59.6667 266.456 60.4667 266.856 59.9333 267.256ZM93.6667 273.122C96.3333 273.922 96.4667 274.189 94.3333 274.189C92.8667 274.189 90.2 273.656 88.3333 273.122C85.6667 272.322 85.5333 272.056 87.6667 272.056C89.1333 272.056 91.8 272.589 93.6667 273.122ZM-102.733 280.589C-103.133 280.989 -104.333 281.122 -105.267 280.722C-106.333 280.322 -105.933 279.922 -104.467 279.922C-103 279.789 -102.2 280.189 -102.733 280.589ZM644.733 286.056C643.8 286.322 642.2 286.322 641.4 286.056C640.467 285.656 641.133 285.389 643 285.389C644.867 285.389 645.533 285.656 644.733 286.056ZM-74.3333 291.789C-74.3333 292.456 -75.5333 293.122 -76.8667 293.122C-78.3333 293.122 -79.9333 292.456 -80.3333 291.789C-80.8667 290.989 -79.6667 290.456 -77.8 290.456C-75.9333 290.456 -74.3333 290.989 -74.3333 291.789ZM-19.1333 306.322C-18.3333 307.522 -30.3333 309.256 -32.0667 308.189C-32.6 307.922 -32.7333 306.989 -32.3333 306.322C-31.2667 304.856 -20.0667 304.722 -19.1333 306.322ZM-54.3333 309.789C-52.4667 311.922 -53 312.189 -56.2 310.989C-57.4 310.589 -58.3333 309.656 -58.3333 308.989C-58.3333 307.122 -56.2 307.522 -54.3333 309.789ZM-17 310.456C-17 311.122 -17.2667 311.789 -17.5333 311.789C-17.9333 311.789 -18.6 311.122 -19 310.456C-19.4 309.656 -19.1333 309.122 -18.4667 309.122C-17.6667 309.122 -17 309.656 -17 310.456ZM-22.4667 320.322C-23.9333 321.522 -31.6667 322.189 -31.6667 321.122C-31.6667 320.322 -29.4 319.789 -26.7333 319.789C-24.0667 319.789 -22.2 320.056 -22.4667 320.322ZM-38.6 326.322C-38.2 327.656 -39 327.789 -42.4667 327.122C-50.2 325.522 -51.6667 323.789 -45.1333 324.056C-41.5333 324.322 -39 325.122 -38.6 326.322ZM-19.5333 325.522C-19.6667 327.122 -21.5333 326.722 -22.0667 324.989C-22.4667 324.189 -21.9333 323.656 -21 323.922C-20.2 324.322 -19.5333 324.989 -19.5333 325.522ZM4.33333 335.789C6.06667 336.989 6.06667 337.122 4.33333 336.989C3.26667 336.989 1.13333 336.456 -0.333339 335.789L-3 334.589H-0.333339C1.13333 334.589 3.26667 335.122 4.33333 335.789Z" fill="#FF4700"/>
</svg>
