<svg width="1204" height="426" viewBox="0 0 1204 426" fill="none" xmlns="http://www.w3.org/2000/svg">
<path d="M1260.57 1.31356C1259.56 2.67034 1261.25 2.83993 1266.68 1.99195C1273.13 0.804768 1273.81 0.974365 1271.94 3.17913C1270.41 5.0447 1266.51 5.72309 1258.03 5.72309C1246.49 5.72309 1240.05 8.09745 1242.08 11.659C1242.59 12.507 1241.74 14.3725 1240.05 15.5597C1236.99 17.9341 1236.99 17.9341 1239.88 18.1037C1241.57 18.1037 1243.27 19.2909 1243.78 20.6476C1244.46 22.0044 1245.47 23.1916 1246.32 23.1916C1247.17 23.1916 1247.85 22.0044 1247.85 20.6476C1247.85 19.2909 1248.87 18.1037 1250.22 18.1037C1253.28 18.1037 1256.84 22.5132 1255.65 24.718C1254.64 26.2443 1271.94 25.9052 1281.27 24.0396C1285 23.3612 1285.34 23.5308 1282.63 24.718C1280.25 25.7356 1282.63 26.0748 1290.26 25.9052C1296.37 25.9052 1302.48 26.0748 1303.83 26.5835C1305.36 27.0923 1306.55 26.0748 1306.89 23.7004C1307.57 18.9517 1313.17 17.2557 1319.61 19.6301C1325.55 22.0044 1325.38 25.7356 1319.27 27.9403C1314.69 29.4667 1314.52 30.1451 1314.69 38.9641C1314.69 44.2217 1315.37 47.9528 1316.05 47.6136C1316.9 47.1048 1317.92 48.1224 1318.59 49.8184C1319.27 51.5143 1321.31 54.0583 1323.18 55.5847C1326.57 58.4678 1325.72 62.199 1321.48 62.199C1320.12 62.199 1319.1 62.8773 1319.1 63.8949C1319.1 64.7429 1320.29 65.5909 1321.82 65.5909C1323.18 65.5909 1326.06 66.4389 1327.93 67.4565C1330.98 69.1524 1331.15 69.6612 1329.11 71.3572C1327.76 72.3748 1325.38 75.7667 1323.85 78.6499C1321.65 83.0594 1321.48 84.925 1323.01 88.3169C1324.19 90.6913 1325.55 92.7264 1326.23 92.7264C1327.08 92.7264 1327.59 93.9136 1327.59 95.2704C1327.59 96.6272 1326.74 97.8144 1325.89 97.8144C1324.87 97.8144 1324.19 99.0015 1324.19 100.358C1324.19 101.885 1325.72 102.902 1328.26 102.902C1332.85 102.902 1335.56 107.821 1332.34 110.025C1330.64 111.043 1330.81 111.891 1333.01 113.248C1334.88 114.265 1336.07 116.809 1335.9 119.523C1335.73 122.406 1335.39 122.915 1334.88 121.049C1333.69 116.47 1331.49 117.657 1331.66 122.745C1331.83 126.307 1332.68 127.324 1334.71 126.985C1336.75 126.646 1337.77 127.663 1337.77 130.038C1337.77 132.073 1336.58 133.43 1335.05 133.43C1333.01 133.43 1332.51 134.447 1333.18 136.991C1333.86 139.535 1333.01 141.57 1330.3 143.775C1326.57 146.658 1326.4 147.846 1326.06 173.116C1326.06 187.701 1325.04 201.438 1324.19 203.813C1322.33 208.901 1321.99 218.568 1323.68 231.457C1324.53 238.919 1325.21 240.446 1327.59 239.767C1330.13 239.089 1330.64 240.615 1331.32 250.621C1332 258.084 1333.18 263.002 1335.05 264.868C1338.61 268.599 1338.44 269.616 1334.54 268.26C1331.32 267.242 1331.15 268.09 1331.32 279.453C1331.49 289.629 1332.17 291.834 1334.71 292.512C1336.41 292.851 1338.1 294.886 1338.61 296.921C1339.46 300.822 1341.16 324.227 1341.67 337.286C1341.84 341.865 1342.69 345.426 1343.36 345.426C1344.21 345.426 1344.21 346.444 1343.36 347.461C1342.69 348.649 1342.35 351.532 1342.52 353.906C1343.02 358.655 1337.26 369.17 1334.2 369.17C1333.18 369.17 1332.85 370.357 1333.35 371.883C1334.03 373.41 1333.69 375.615 1332.85 376.632C1332 377.65 1330.81 383.925 1330.3 390.37C1329.11 403.768 1326.4 408.347 1321.82 403.937C1318.59 400.715 1314.01 401.733 1314.01 405.464C1314.01 406.82 1312.49 408.516 1310.62 409.025C1306.89 410.212 1306.04 414.283 1309.26 415.3C1311.64 416.148 1304.68 424.119 1300.1 425.646C1296.37 427.003 1294.5 424.119 1298.07 422.763C1303.5 420.727 1298.24 418.523 1288.4 418.523C1282.97 418.692 1277.37 418.014 1276.18 416.996C1275.16 416.148 1271.26 414.961 1267.7 414.622C1263.12 414.113 1261.42 414.622 1261.42 416.318C1261.42 418.353 1259.39 418.692 1249.88 417.675C1230.88 415.64 1227.49 415.64 1226.98 417.505C1226.64 418.353 1222.57 419.031 1217.99 418.692C1213.41 418.353 1206.79 418.014 1203.23 418.014C1199.33 417.844 1196.95 416.827 1196.95 415.47C1196.95 414.283 1195.6 413.265 1193.9 413.265C1191.52 413.265 1191.35 412.926 1193.56 411.569C1198.31 408.686 1194.24 408.516 1180.84 411.4C1169.98 413.774 1166.42 413.944 1163.36 412.248C1159.63 410.382 1160.31 410.043 1171 407.668C1177.61 406.142 1182.7 405.803 1183.04 406.651C1184.06 409.195 1186.77 408.347 1186.77 405.633C1186.77 404.277 1187.96 403.089 1189.32 403.089C1194.41 403.089 1208.83 399.358 1208.83 398.001C1208.83 397.323 1202.55 398.171 1194.75 399.867C1177.95 403.598 1176.26 403.768 1181.68 400.376C1185.76 397.832 1185.59 397.832 1178.29 399.019C1174.05 399.528 1168.79 400.037 1166.42 399.867C1162.17 399.697 1136.9 404.277 1115.52 409.025C1100.25 412.587 1083.29 414.113 1086.68 411.739C1088.04 410.721 1090.41 409.873 1091.77 409.873C1097.2 409.873 1107.38 406.142 1106.02 404.785C1104.49 403.429 1099.06 403.937 1060.38 408.516C1051.05 409.534 1037.14 410.382 1029.51 410.212C1019.67 409.873 1009.32 411.06 995.066 414.113C983.869 416.488 974.029 418.353 973.351 418.353C972.672 418.353 975.726 416.488 980.137 414.113C984.548 411.739 989.637 409.873 991.503 409.873C993.37 409.873 995.236 409.195 995.745 408.347C997.102 406.142 982.682 406.481 969.449 409.025C961.984 410.382 957.234 410.552 955.198 409.364C951.635 407.499 934.67 409.873 909.731 415.809C892.596 420.049 872.237 423.102 882.247 420.049C884.961 419.201 899.552 415.47 914.481 411.569C994.727 391.048 990.316 392.405 992.012 387.995C993.539 383.586 994.897 383.755 978.101 387.147C975.217 387.826 973.011 387.486 973.011 386.638C973.011 385.112 998.799 376.632 1018.82 371.714C1033.07 368.152 1061.57 359.164 1064.62 357.298C1065.98 356.45 1066.66 355.433 1066.32 354.924C1065.13 353.906 1023.06 362.895 1003.55 368.322C958.76 380.872 908.034 396.645 897.516 401.393C889.712 404.785 878.345 408.008 870.711 408.856C861.04 410.043 861.38 407.668 871.389 403.598C874.952 402.241 878.006 400.376 878.006 399.528C878.006 397.153 873.595 397.662 871.389 400.376C870.371 401.733 867.657 402.241 865.112 401.733L860.701 400.885L866.3 398.51C869.353 397.323 874.613 396.305 877.836 396.305C881.229 396.475 890.39 394.27 898.364 391.557C906.338 388.843 917.704 384.942 923.812 383.077C934.5 379.685 952.483 373.579 967.582 367.983C972.672 366.287 974.369 364.76 973.181 363.573C971.993 362.386 969.958 362.556 966.395 364.082C963.511 365.269 959.948 365.778 958.591 365.1C955.028 363.743 947.394 366.965 947.903 369.509C948.581 372.562 939.25 375.615 937.384 372.731C936.536 371.035 933.991 370.696 929.58 371.375L922.964 372.223L928.053 370.018C930.768 368.831 937.723 366.456 943.152 364.591C948.751 362.895 954.18 360.52 955.537 359.333C958.251 356.62 975.047 350.514 979.797 350.514C981.833 350.514 983.19 349.327 983.19 347.801C983.19 343.391 966.904 345.765 924.491 356.62C881.059 367.813 865.96 371.205 864.942 370.187C863.415 368.661 870.88 365.948 895.819 359.164C921.946 352.041 936.366 347.292 932.804 347.122C929.919 347.122 881.399 356.789 878.006 357.976C876.648 358.655 870.202 359.333 863.924 359.503C851.879 360.181 849.504 357.976 858.665 355.093C861.38 354.076 864.094 352.719 864.603 351.701C865.282 350.853 868.335 350.005 871.389 349.836C874.613 349.836 877.836 348.818 878.854 347.631C880.55 345.596 888.524 342.374 904.302 337.455C918.722 332.876 940.947 324.566 940.268 324.057C939.929 323.718 932.973 325.244 924.66 327.619C916.347 329.823 907.525 331.35 905.15 330.841C902.266 330.163 901.587 330.332 903.114 331.519C904.98 332.706 904.811 333.215 902.605 334.233C898.194 335.929 895.48 335.42 898.364 333.385C900.23 332.028 899.891 331.859 896.667 332.876C894.292 333.385 891.578 334.572 890.56 335.42C885.64 339.321 869.862 343.222 861.889 342.543C856.46 342.034 848.316 343.052 839.155 345.257C823.208 349.327 820.663 349.497 823.038 347.122C823.886 346.274 833.387 343.391 844.075 340.508C854.763 337.794 880.041 331.18 900.061 325.923C944.001 314.39 1060.38 285.219 1115.52 271.821C1137.41 266.564 1159.63 261.136 1164.72 259.78C1175.92 256.897 1232.41 245.194 1253.79 241.124C1271.09 237.902 1287.38 233.831 1283.48 233.662C1274.65 233.153 1161.16 257.066 1123.15 267.242C1116.54 268.938 1096.01 274.026 1077.35 278.435C1058.69 282.845 1033.41 289.12 1021.36 292.173C1009.15 295.395 993.879 299.126 987.432 300.653C976.574 303.197 948.072 310.659 910.24 320.835C806.751 348.818 780.625 355.263 774.178 354.415C770.615 353.906 762.472 354.924 755.855 356.45C749.409 357.976 741.605 359.503 738.551 359.842C735.497 360.012 728.711 361.538 723.621 362.895C718.532 364.421 714.121 365.439 713.782 365.1C713.442 364.591 714.969 363.912 717.175 363.234C724.47 361.199 733.801 356.789 733.801 355.263C733.801 354.585 735.497 353.906 737.703 353.906C739.908 353.906 743.131 352.719 744.998 351.193C747.542 348.988 747.712 348.649 745.337 349.497C743.81 350.005 737.703 351.193 731.765 352.21C725.997 353.397 720.059 354.754 718.532 355.433C717.175 356.281 712.594 357.298 708.353 357.976C697.495 359.503 702.754 356.789 721.077 351.532C729.39 349.157 741.265 344.578 747.373 341.356C753.48 338.303 761.454 334.742 765.186 333.554C768.919 332.367 772.651 330.841 773.499 329.993C775.535 328.127 766.883 326.092 761.963 327.449C759.757 327.958 757.552 327.788 757.213 326.771C756.873 325.753 751.614 325.753 741.774 326.771C733.631 327.788 725.148 328.127 722.943 327.449C720.737 326.94 710.728 328.467 700.549 330.841C690.369 333.046 678.154 335.42 673.574 335.929L665.091 336.777L673.574 333.724C682.226 330.502 709.54 322.531 720.228 320.156C732.104 317.443 740.926 314.729 740.078 313.881C739.738 313.372 730.577 315.068 720.059 317.612C665.939 330.332 653.215 333.215 652.706 332.706C652.367 332.367 657.287 330.502 663.395 328.467C669.502 326.431 674.252 324.396 673.743 323.887C673.234 323.379 667.636 324.227 661.359 325.753C655.082 327.11 644.054 329.484 637.098 330.841C630.143 332.198 615.213 335.929 604.016 339.321C592.819 342.713 581.283 345.426 578.398 345.426C575.514 345.426 568.219 346.953 562.451 348.818C556.683 350.684 550.575 352.21 549.048 352.21C547.522 352.21 539.887 354.245 531.914 356.45C524.109 358.824 516.305 360.351 514.779 359.842C513.082 359.333 502.055 361.199 490.179 364.082C478.303 366.965 467.276 368.831 465.41 368.152C461.168 366.796 427.577 372.901 407.219 378.837C400.602 380.703 407.219 376.463 416.549 372.731C425.541 369.17 425.541 369.17 419.094 370.018C402.977 372.223 375.154 379.515 351.912 387.486C340.206 391.557 338.339 391.726 334.437 389.522C330.026 387.317 330.366 386.978 347.331 382.229C357.001 379.515 374.306 374.258 385.842 370.696C397.548 366.965 408.576 364.082 410.781 364.082C414.005 364.082 441.658 356.111 451.328 352.21C453.195 351.532 459.981 349.666 466.597 347.97C482.714 343.9 490.518 341.695 511.555 335.25C521.395 332.367 533.61 328.975 538.869 327.788C544.129 326.601 549.218 325.075 550.236 324.396C552.102 323.379 591.971 312.355 604.016 309.811C607.748 308.963 618.606 305.91 628.107 303.197C637.607 300.313 647.108 297.939 648.974 297.939C652.876 297.939 677.815 292.003 712.594 282.675C715.308 281.827 727.184 278.944 738.89 275.891C758.74 271.143 779.098 265.546 799.117 259.61C803.698 258.084 814.555 255.201 823.208 252.996C837.459 249.265 875.291 238.58 932.295 222.299C954.858 215.854 962.323 213.649 979.797 208.053C985.905 206.017 1003.04 201.269 1017.97 197.368C1032.9 193.467 1043.93 190.075 1042.4 189.736C1039.18 189.227 949.938 210.427 922.964 218.398C916.347 220.264 903.793 223.655 894.971 225.86C872.916 231.287 823.377 244.177 790.634 252.996C775.705 256.897 748.221 264.189 729.559 269.108C710.897 274.026 689.182 279.792 681.378 281.997C673.574 284.202 665.77 286.067 663.904 286.067C660.51 286.067 644.393 290.477 598.926 303.366C585.863 307.267 570.934 311.168 565.674 312.355C560.585 313.542 554.817 315.238 552.95 316.256C551.084 317.273 545.825 318.8 541.244 319.817C515.457 325.075 507.483 326.94 492.554 330.841C483.562 333.385 469.312 337.455 461.168 340.169C441.658 346.444 436.399 347.97 413.326 354.076C393.646 359.164 373.118 365.269 330.875 378.667C296.265 389.691 270.818 396.305 269.8 394.44C268.273 392.066 258.263 392.574 251.307 395.457C244.182 398.51 221.279 403.089 219.243 401.902C218.564 401.563 210.421 403.598 201.09 406.481C191.929 409.534 183.277 411.569 182.259 411.23C181.071 410.891 195.661 405.294 214.832 398.849C233.833 392.574 255.209 385.112 262.165 382.568C276.755 376.971 285.747 375.954 274.889 381.042C271.157 382.907 265.049 385.451 261.487 386.978C252.325 390.539 254.361 391.387 265.558 388.504C270.648 387.147 276.755 386.13 279.131 386.13C281.506 386.13 287.952 384.603 293.551 382.907C310.856 377.141 345.126 367.304 367.35 361.368C389.575 355.602 402.299 351.532 405.352 348.988C406.37 348.309 410.781 347.122 415.192 346.613C419.603 345.935 430.97 343.222 440.64 340.169C450.31 337.286 462.695 333.894 468.294 332.706C473.892 331.519 481.527 329.315 485.259 327.958C488.991 326.601 497.813 324.057 504.769 322.531C518.341 319.478 552.781 310.32 575.175 303.705C589.087 299.635 627.428 289.12 651.519 282.675C658.984 280.64 684.941 273.687 709.201 267.242C733.461 260.628 767.731 251.469 785.545 246.89C885.979 220.772 963.341 199.742 965.038 197.877C968.261 194.485 950.278 197.029 922.964 203.813C900.061 209.579 891.578 210.936 893.783 208.731C894.292 208.053 897.685 207.035 901.248 206.187C904.811 205.339 916.008 202.456 926.357 199.742C936.536 196.859 951.126 193.128 958.591 191.262C1052.92 168.028 1074.8 162.77 1104.49 156.325C1135.37 149.541 1185.59 136.991 1186.6 135.635C1187.11 135.126 1185.25 135.126 1182.53 135.804C1179.65 136.483 1172.86 137.839 1167.26 138.687C1151.49 141.231 1054.95 163.448 994.218 178.543C973.86 183.631 955.876 187.531 954.519 187.362C953.162 187.022 960.287 184.648 970.467 182.104C993.2 176.168 1010.5 170.232 1006.6 169.384C1004.91 169.045 995.745 170.911 986.244 173.285C976.574 175.829 957.743 180.578 944.17 183.8C930.598 187.022 905.489 193.467 888.185 198.216C870.88 202.795 849.504 208.561 840.682 210.766C824.056 215.176 784.696 225.86 734.649 239.428C718.701 243.838 693.254 250.791 677.815 254.861C647.447 263.002 589.087 279.453 556.513 288.95C545.316 292.173 529.708 296.752 521.734 298.957C513.761 301.161 502.394 304.553 496.286 306.419C477.285 312.355 419.264 329.993 370.743 344.578C331.214 356.45 319.508 360.351 299.828 368.661C298.81 369.17 297.792 368.831 297.792 367.983C297.792 366.965 303.221 364.082 309.838 361.538C316.285 358.824 322.392 355.433 323.24 353.737C324.089 352.21 326.973 350.345 329.517 349.666C332.232 349.157 337.322 347.122 341.054 345.426C344.786 343.73 353.439 340.678 360.225 338.642C375.324 334.233 375.324 332.537 360.394 336.098C345.295 339.66 343.259 339.321 352.081 334.572C362.769 328.975 394.325 318.63 435.211 307.267C455.909 301.67 509.859 286.237 515.796 284.202C518.511 283.354 554.477 273.517 595.533 262.324C636.589 251.13 674.422 240.785 679.512 239.428C692.236 235.866 730.238 225.521 744.828 221.62C763.49 216.702 774.008 213.819 794.876 208.053C805.564 205 817.27 201.947 821.002 201.099C824.565 200.251 836.78 196.859 848.147 193.637C859.344 190.584 883.604 184.139 901.757 179.391C920.08 174.642 938.063 169.215 941.626 167.519L948.412 164.127L941.626 163.957C937.893 163.957 928.562 165.484 920.928 167.349C913.293 169.215 905.998 170.402 904.811 169.893C903.623 169.554 894.971 171.25 885.64 173.963C876.309 176.507 867.657 178.373 866.3 177.864C864.942 177.355 868.844 175.659 874.782 173.963C884.452 171.42 942.304 156.156 1017.12 136.652C1031.54 132.921 1045.62 129.02 1048.51 128.342C1051.22 127.494 1076.84 121.049 1105.34 113.926C1133.84 106.973 1161.33 100.019 1166.42 98.4927C1171.51 96.9664 1176.93 95.6096 1178.29 95.44C1179.65 95.1008 1185.08 93.744 1190.17 92.2176C1195.26 90.6913 1205.27 87.8081 1212.22 85.7729C1226.98 81.7026 1238.86 75.9363 1233.43 75.7667C1228.51 75.5971 1233.26 73.0532 1241.4 71.6964C1244.97 71.018 1248.19 69.8308 1248.87 68.8132C1249.55 67.6261 1247.68 67.4565 1243.61 68.3045C1239.03 69.1524 1237.5 68.9828 1238.35 67.4565C1239.03 66.4389 1239.2 65.5909 1238.69 65.5909C1236.48 65.5909 1194.24 76.6147 1179.99 80.8546C1155.9 88.1473 1140.8 92.3872 1135.03 93.744C1132.15 94.2528 1122.65 96.9664 1113.82 99.6799C1105 102.224 1088.54 106.633 1077.35 109.347C1037.99 119.014 994.048 132.073 985.396 136.991C979.458 140.214 974.029 141.91 969.279 141.91C961.645 141.91 958.421 142.588 937.384 148.354C930.428 150.22 912.445 154.969 897.516 158.869C882.586 162.77 864.264 167.688 856.799 169.724C833.557 176.507 811.841 182.443 788.09 188.549C775.535 191.941 760.266 196.011 754.159 197.877C739.399 202.286 704.79 211.275 692.236 214.158C686.637 215.345 678.663 217.55 674.422 219.076C670.181 220.603 658.305 223.995 648.126 226.708C637.777 229.252 622.508 233.492 614.195 236.036C605.713 238.58 585.863 244.346 570.085 249.095C554.138 253.674 530.896 260.458 518.341 264.189C505.787 267.92 488.991 272.839 481.018 275.213C473.044 277.757 461.168 281.149 454.721 283.015C448.105 284.88 441.997 287.254 441.149 288.102C438.604 290.816 452.516 288.442 467.445 283.693C484.75 278.096 489.67 277.079 494.76 277.418C502.224 278.096 534.119 269.108 536.494 265.885C537.682 264.189 541.584 262.324 545.316 261.645C548.879 261.136 553.459 260.119 555.156 259.61C557.361 258.932 557.701 259.101 555.835 260.288C553.968 261.645 553.968 261.984 555.835 262.663C558.21 263.511 555.156 264.528 506.466 279.114C475.758 288.272 442.337 298.617 434.363 301.501C416.21 307.776 381.262 318.121 378.378 317.952C376.511 317.782 370.743 318.291 365.654 318.8C357.51 319.817 357.001 319.648 361.412 317.952C364.127 316.934 367.52 314.729 368.707 312.864C370.065 311.168 372.949 309.811 376.002 309.811C378.717 309.811 380.922 308.963 380.922 308.115C380.922 305.571 378.378 305.91 358.019 311.676C347.84 314.56 335.455 317.952 330.875 319.308C326.124 320.495 312.043 324.735 299.489 328.636C286.935 332.537 267.764 338.134 257.076 341.356C219.243 352.21 203.635 356.959 198.885 358.824C196.17 359.842 189.723 360.69 184.464 360.52L174.794 360.351L194.304 353.737C204.992 350.005 215.341 346.613 217.207 345.935C227.217 342.882 227.047 338.642 216.698 338.642H208.725L217.207 334.402C221.788 332.198 227.217 330.163 229.083 330.163C233.324 330.163 254.361 322.7 258.603 319.648C261.317 317.782 259.96 317.443 249.611 317.612C235.021 317.952 208.216 325.075 153.587 343.391C146.632 345.596 131.363 350.514 119.657 354.076C107.951 357.637 90.8157 363.234 81.4848 366.626C72.1539 370.187 56.8851 374.597 47.5542 376.802C38.2233 379.007 27.0262 381.89 22.4456 383.416C4.9713 389.182 -1.30586 391.048 0.221013 389.691C2.76581 387.656 23.1242 379.685 31.4372 377.65C41.786 375.106 45.8577 373.749 69.6091 366.117C80.8062 362.386 95.7357 357.637 102.691 355.602C109.647 353.567 135.265 345.426 159.525 337.625C183.955 329.823 204.483 323.379 205.331 323.379C206.18 323.379 219.922 319.308 235.869 314.22C251.647 309.302 275.059 302.179 287.613 298.278C340.715 282.336 397.379 265.207 427.577 256.388C445.221 251.13 473.892 242.65 491.197 237.393C508.501 232.305 529.029 226.369 537.003 224.164C544.977 222.129 560.585 217.72 571.782 214.328C607.239 204.152 636.08 196.181 688.843 182.613C700.04 179.56 714.46 175.829 721.077 173.963C735.497 170.063 738.381 169.893 735.158 172.946C733.97 174.303 729.39 175.829 724.979 176.338C720.568 177.016 712.594 179.051 707.165 180.917C701.736 182.952 689.351 186.344 679.512 188.718C661.019 192.958 649.313 196.35 621.83 205.169C613.008 208.053 604.186 210.257 602.32 210.088C600.453 209.918 597.06 211.105 594.685 212.632C590.953 215.176 572.461 221.112 540.396 230.1C528.011 233.492 503.921 240.615 478.473 248.417C469.142 251.13 458.114 254.353 453.873 255.201C449.632 256.218 435.89 260.458 423.336 264.698C410.781 269.108 393.307 274.535 384.485 276.909C375.833 279.114 367.011 281.997 364.975 283.015C361.412 285.05 313.231 301.501 300.168 305.232C296.265 306.419 292.194 308.115 290.837 309.132C289.479 310.15 286.935 311.507 285.238 312.185C283.542 312.694 282.354 313.712 282.863 314.051C283.372 314.56 297.792 310.659 314.927 305.571C332.062 300.313 359.546 292.342 375.833 287.763C392.119 283.015 414.344 276.57 425.032 273.008C435.72 269.616 456.757 263.68 471.687 259.78C486.616 255.709 511.046 249.095 525.976 244.686C577.211 229.931 581.961 228.574 604.864 222.299C617.419 218.907 638.286 213.14 651.18 209.409C664.073 205.848 678.154 202.117 682.565 201.269C686.976 200.251 697.325 197.707 705.808 195.333C714.121 192.958 731.425 188.379 743.98 184.987C756.534 181.765 770.276 178.034 774.517 176.847C778.759 175.49 787.072 173.285 793.179 171.589C810.653 166.84 820.493 164.127 829.146 161.244C833.557 159.717 837.968 159.209 839.155 159.717C840.173 160.396 841.53 160.226 842.209 159.209C842.718 158.361 855.781 154.46 871.22 150.559C898.534 143.775 908.543 141.062 939.929 132.582C965.547 125.628 1045.11 106.294 1048.17 106.294C1049.69 106.294 1053.43 105.277 1056.48 103.92C1061.23 101.715 1072.43 99.3407 1107.89 92.7264C1119.42 90.5217 1167.43 77.4627 1174.05 74.9187C1179.65 72.3748 1181.01 67.6261 1175.41 69.6612C1173.88 70.3396 1171.84 69.4916 1170.83 68.1349C1169.13 65.7605 1167.26 65.5909 1157.93 67.1173C1151.83 68.1349 1145.38 68.9828 1143.51 68.8132H1140.12L1143.51 67.2869C1145.38 66.6085 1154.88 64.2341 1164.72 62.199C1174.56 60.1638 1189.15 57.111 1197.29 55.4151C1205.44 53.5495 1213.24 52.5319 1214.77 53.0407C1216.12 53.7191 1217.31 53.2103 1217.31 52.0231C1217.31 51.0055 1218.67 50.3272 1220.2 50.4968C1221.89 50.6663 1224.44 50.3272 1225.79 49.8184C1227.15 49.3096 1232.92 47.9528 1238.52 46.9352C1244.12 45.748 1251.24 43.8825 1254.3 42.5257C1259.05 40.6601 1259.72 39.8121 1258.2 36.929C1255.65 32.3498 1252.09 31.5019 1243.1 33.537C1231.22 36.2506 1217.48 38.6249 1207.98 39.4729C1203.23 39.9817 1197.63 41.5081 1195.26 43.0345C1192.37 44.9 1186.1 45.9176 1173.71 46.2568C1158.61 46.7656 1156.24 46.4264 1156.24 44.0521C1156.24 41.8473 1154.71 41.5081 1146.4 42.3561C1141.14 42.8649 1129.77 44.7304 1121.46 46.7656C1061.74 60.503 1061.23 60.6726 1057.33 58.6374C1053.77 56.6022 1053.94 56.4327 1060.38 54.3975C1064.11 53.3799 1070.9 51.3447 1075.65 50.1576C1080.23 48.9704 1082.78 47.6136 1081.08 47.2744C1079.55 46.9352 1078.2 45.5784 1078.2 44.2217C1078.2 42.8649 1077.35 41.8473 1076.5 41.8473C1075.48 41.8473 1074.8 40.9993 1074.8 40.1513C1074.8 37.4378 1079.21 38.1162 1085.83 42.0169C1091.94 45.5784 1092.11 45.5784 1109.24 42.8649C1118.57 41.1689 1126.89 39.6425 1127.57 39.3033C1128.07 38.7945 1142.16 35.9114 1158.61 32.5194C1175.07 29.2971 1190.17 25.7356 1192.03 24.8876C1193.9 23.87 1195.94 23.3612 1196.61 23.7004C1198.82 25.2268 1218.16 21.4956 1223.59 18.6125C1234.96 12.507 1229.87 11.659 1206.28 15.5597C1183.89 19.2909 1178.12 18.7821 1191.86 14.3725C1197.97 12.507 1204.42 10.3022 1206.28 9.45423C1208.15 8.77584 1214.94 7.58866 1221.55 7.07986C1228 6.40148 1237.67 5.0447 1242.76 3.68792C1261.25 -0.721607 1261.76 -0.721607 1260.57 1.31356ZM1292.81 33.3674C1293.32 34.2154 1294.5 35.0634 1295.52 35.0634C1296.37 35.0634 1297.05 34.2154 1297.05 33.3674C1297.05 32.3498 1295.86 31.6715 1294.33 31.6715C1292.98 31.6715 1292.3 32.3498 1292.81 33.3674ZM1276.69 36.7594C1276.69 37.6074 1277.03 38.4553 1277.37 38.4553C1277.88 38.4553 1278.73 37.6074 1279.23 36.7594C1279.74 35.7418 1279.4 35.0634 1278.56 35.0634C1277.54 35.0634 1276.69 35.7418 1276.69 36.7594ZM1168.96 38.4553C1168.45 39.3033 1169.47 40.1513 1171.34 40.1513C1173.2 40.1513 1175.24 39.3033 1175.75 38.4553C1176.26 37.4378 1175.24 36.7594 1173.37 36.7594C1171.51 36.7594 1169.47 37.4378 1168.96 38.4553ZM1246.15 82.5506C1246.15 83.3986 1247 84.2466 1248.02 84.2466C1248.87 84.2466 1249.21 83.3986 1248.7 82.5506C1248.19 81.533 1247.34 80.8546 1246.83 80.8546C1246.49 80.8546 1246.15 81.533 1246.15 82.5506ZM1225.96 85.2642C1224.44 86.9601 1234.96 84.2466 1236.65 82.381C1237.67 81.533 1235.97 81.533 1232.58 82.5506C1229.53 83.3986 1226.64 84.5858 1225.96 85.2642ZM1316.05 114.265C1315.03 117.488 1320.29 116.979 1321.48 113.756C1322.16 111.891 1321.65 111.382 1319.61 111.721C1318.09 112.061 1316.56 113.248 1316.05 114.265ZM1323.34 118.166C1322.84 119.014 1323.51 119.862 1324.87 119.862C1326.4 119.862 1327.59 119.014 1327.59 118.166C1327.59 117.148 1326.91 116.47 1326.06 116.47C1325.04 116.47 1323.85 117.148 1323.34 118.166ZM1199.5 131.734C1192.54 133.599 1189.49 134.956 1192.2 134.956C1197.12 135.126 1216.63 131.225 1224.95 128.342C1233.77 125.459 1212.9 128.003 1199.5 131.734ZM1319.1 143.606C1319.1 144.454 1320.29 145.302 1321.65 145.302C1323.01 145.302 1324.19 144.454 1324.19 143.606C1324.19 142.588 1323.01 141.91 1321.65 141.91C1320.29 141.91 1319.1 142.588 1319.1 143.606ZM880.55 153.781C878.345 154.799 878.006 155.308 879.702 155.308C881.059 155.308 883.435 154.629 884.792 153.781C887.846 151.746 885.131 151.746 880.55 153.781ZM862.058 160.735C862.737 162.092 861.549 162.261 858.326 161.583C855.272 160.905 847.468 162.092 838.137 164.466C771.124 182.274 757.043 186.514 754.498 189.058C752.802 190.754 744.998 193.467 737.194 195.163C729.22 196.859 717.005 199.912 710.049 201.777C703.093 203.473 688.843 206.865 678.663 209.07C668.315 211.275 651.519 215.684 641.34 218.907C630.991 222.129 617.758 226.03 611.65 227.556C592.819 232.305 504.599 257.745 453.025 273.347C394.155 291.155 379.395 295.565 362.261 300.483C351.572 303.366 339.697 307.097 336.134 308.624C332.571 310.32 325.276 312.016 320.017 312.524C310.007 313.712 271.327 324.057 268.273 326.601C267.255 327.449 263.522 328.636 259.79 329.145C249.781 331.011 244.352 333.385 246.218 335.25C247.405 336.438 251.477 335.929 258.094 333.894C298.641 321.004 320.696 314.899 325.446 314.899C327.821 314.899 330.196 314.22 330.705 313.372C331.214 312.524 335.286 311.337 339.697 310.659C349.197 309.302 391.441 298.278 414.853 291.155C423.675 288.442 435.211 285.05 440.301 283.693C445.39 282.336 467.615 275.891 489.5 269.447C511.385 262.832 552.611 250.961 581.113 242.82C609.615 234.679 642.358 225.521 654.064 222.129C665.77 218.737 677.476 215.515 680.36 214.836C683.074 214.158 706.486 207.883 732.104 200.76C757.722 193.806 787.92 185.666 799.117 182.613C833.217 173.794 856.46 167.18 864.433 164.296C871.559 161.752 871.728 161.583 867.826 160.396C861.549 158.7 860.701 158.7 862.058 160.735ZM1282.46 202.965C1279.91 203.982 1278.39 205.169 1278.9 205.678C1280.25 207.205 1290.26 204.661 1290.26 202.795C1290.26 200.76 1288.23 200.929 1282.46 202.965ZM994.048 212.462C943.831 225.182 873.425 243.668 851.709 249.604C840.512 252.826 815.234 259.61 795.724 264.868C776.044 270.125 756.704 275.383 752.462 276.739C748.221 277.927 733.801 281.827 720.228 285.219C691.048 292.682 665.939 299.465 637.098 307.606C625.392 310.828 606.052 316.086 593.837 319.139C557.701 328.297 453.025 359.333 450.819 361.538C448.784 363.404 455.4 362.047 471.687 357.128C500.867 348.309 517.832 343.561 553.12 334.233C566.183 330.841 583.318 326.262 591.292 324.227C599.266 322.022 611.82 318.8 619.285 316.934C626.75 314.899 642.697 310.828 654.912 307.606C666.957 304.384 682.735 300.822 689.691 299.635C712.255 295.904 727.523 292.851 743.98 288.442C763.151 283.184 778.08 279.283 806.751 271.651C818.457 268.599 848.147 260.797 872.916 254.183C897.685 247.738 925.169 240.615 933.991 238.58C942.813 236.714 953.841 233.831 958.591 232.644C963.171 231.287 985.226 225.691 1007.45 219.924C1029.68 214.328 1048.85 209.24 1049.86 208.561C1051.73 207.205 1042.06 205.509 1029.68 205C1026.96 204.83 1010.84 208.222 994.048 212.462ZM1290.26 216.532C1290.26 217.38 1290.94 218.228 1291.79 218.228C1292.81 218.228 1293.99 217.38 1294.5 216.532C1295.01 215.515 1294.33 214.836 1292.98 214.836C1291.45 214.836 1290.26 215.515 1290.26 216.532ZM1272.11 217.55C1272.62 218.059 1274.15 218.228 1275.33 217.72C1276.69 217.211 1276.18 216.702 1274.32 216.702C1272.45 216.532 1271.43 217.041 1272.11 217.55ZM1251.24 225.182C1234.28 227.895 1154.88 244.346 1137.91 248.586C1130.62 250.621 1108.9 255.54 1090.07 259.78C1058.01 266.903 914.311 302.857 893.274 308.963C888.185 310.489 880.55 312.524 876.309 313.542C872.068 314.39 867.826 316.086 866.978 316.934C865.791 318.121 866.469 318.46 868.675 317.782C870.541 317.273 876.309 315.916 881.399 314.729C886.488 313.712 910.579 307.606 934.839 301.331C1029.34 276.909 1153.35 247.908 1157.25 249.434C1158.44 249.943 1159.63 249.604 1159.97 248.756C1160.48 247.06 1176.93 243.159 1219.01 235.188C1233.43 232.305 1246.66 229.761 1248.36 229.422C1249.88 229.083 1250.9 229.422 1250.39 230.1C1248.7 232.814 1252.26 233.323 1259.39 231.457C1263.29 230.439 1266.51 228.913 1266.51 228.065C1266.51 227.047 1268.04 226.708 1269.9 227.217C1271.77 227.726 1273.3 227.387 1273.3 226.539C1273.3 225.691 1278.39 225.182 1284.66 225.351C1293.15 225.691 1296.03 225.351 1296.71 223.486C1297.39 221.451 1294.67 221.281 1280.76 222.129C1271.43 222.638 1258.2 223.995 1251.24 225.182ZM1156.75 227.726C1157.25 228.235 1158.78 228.404 1159.97 227.895C1161.33 227.387 1160.82 226.878 1158.95 226.878C1157.08 226.708 1156.07 227.217 1156.75 227.726ZM1291.45 232.983C1292.64 233.323 1294.67 233.323 1295.69 232.983C1296.88 232.475 1296.03 232.135 1293.66 232.135C1291.28 232.135 1290.43 232.475 1291.45 232.983ZM1304.85 238.41C1304.34 239.089 1305.87 239.428 1308.08 238.919C1310.45 238.58 1312.32 237.902 1312.32 237.562C1312.32 236.206 1305.7 236.884 1304.85 238.41ZM1285.17 242.99C1285.17 243.329 1286.36 243.668 1287.72 243.668C1289.07 243.668 1290.26 242.99 1290.26 241.972C1290.26 241.124 1289.07 240.785 1287.72 241.294C1286.36 241.972 1285.17 242.65 1285.17 242.99ZM690.2 241.294C690.709 241.802 692.236 241.972 693.423 241.463C694.78 240.954 694.271 240.446 692.405 240.446C690.539 240.276 689.521 240.785 690.2 241.294ZM948.412 253.674C910.579 263.85 855.102 281.149 852.558 283.693C851.37 285.05 859.174 283.015 878.854 277.248C888.185 274.535 904.641 269.786 915.329 266.564C957.743 254.522 969.788 250.452 962.662 250.452C961.305 250.452 954.858 251.978 948.412 253.674ZM620.133 260.628C617.758 261.476 608.257 264.02 598.926 266.394C589.596 268.768 578.907 271.821 575.175 273.347L568.389 275.891L576.023 274.874C580.265 274.195 589.765 271.991 597.23 269.616C604.695 267.412 614.535 264.528 619.285 263.172C623.865 261.984 629.634 260.119 632.009 259.101C635.911 257.405 635.741 257.236 630.312 258.253C627.089 258.762 622.508 259.78 620.133 260.628ZM1164.72 282.675C1161.33 283.693 1161.16 284.032 1163.87 284.032C1165.74 284.032 1168.79 283.523 1170.66 282.675C1174.9 280.81 1170.49 280.81 1164.72 282.675ZM427.238 292.003C419.943 295.056 420.96 297.091 429.104 295.565C435.551 294.378 441.149 289.459 436.229 289.459C434.702 289.459 430.631 290.646 427.238 292.003ZM1111.62 295.734C1112.81 296.073 1114.84 296.073 1115.86 295.734C1117.05 295.226 1116.2 294.886 1113.82 294.886C1111.45 294.886 1110.6 295.226 1111.62 295.734ZM1104.15 297.261C1104.66 297.769 1106.19 297.939 1107.38 297.43C1108.73 296.921 1108.22 296.413 1106.36 296.413C1104.49 296.243 1103.47 296.752 1104.15 297.261ZM402.977 299.635C400.772 301.161 400.772 301.331 402.977 301.331C404.334 301.331 406.71 300.483 408.067 299.635C410.272 298.109 410.272 297.939 408.067 297.939C406.71 297.939 404.334 298.787 402.977 299.635ZM1088.88 300.653C1089.39 301.161 1090.92 301.331 1092.11 300.822C1093.46 300.313 1092.96 299.805 1091.09 299.805C1089.22 299.635 1088.21 300.144 1088.88 300.653ZM785.545 301.331C783.339 302.349 783 302.857 784.696 302.857C786.054 302.857 788.429 302.179 789.786 301.331C792.84 299.296 790.125 299.296 785.545 301.331ZM1069.03 304.723C1055.12 308.284 1049.02 310.998 1059.53 308.963C1068.53 307.267 1087.87 301.67 1084.98 301.501C1083.63 301.501 1076.33 302.857 1069.03 304.723ZM772.821 304.723C771.464 305.571 770.955 306.419 771.973 306.419C772.821 306.419 774.857 305.571 776.214 304.723C777.571 303.875 777.91 303.027 777.062 303.027C776.044 303.027 774.178 303.875 772.821 304.723ZM386.012 308.115C383.976 309.472 384.146 309.811 387.2 309.811C389.405 309.811 391.102 308.963 391.102 308.115C391.102 305.91 389.235 305.91 386.012 308.115ZM745.676 311.507C743.81 312.864 744.489 313.033 748.221 312.185C754.498 310.828 755.855 309.811 751.444 309.811C749.748 309.811 747.034 310.659 745.676 311.507ZM848.316 321.683L844.923 323.209H848.316C850.183 323.209 852.897 322.531 854.254 321.683C856.46 320.156 856.46 319.987 854.254 320.156C852.897 320.156 850.183 320.835 848.316 321.683ZM989.128 325.075C984.887 326.94 989.298 326.94 995.066 325.075C998.459 324.057 998.629 323.718 995.914 323.718C994.048 323.718 990.995 324.227 989.128 325.075ZM375.833 332.537C375.833 332.876 377.02 333.554 378.378 334.233C379.735 334.742 380.922 334.402 380.922 333.554C380.922 332.537 379.735 331.859 378.378 331.859C377.02 331.859 375.833 332.198 375.833 332.537ZM904.471 340.338C901.927 342.882 906.338 342.374 915.329 339.49L922.964 336.946L914.481 337.794C909.9 338.303 905.32 339.49 904.471 340.338ZM777.401 341.526C778.589 341.865 780.625 341.865 781.643 341.526C782.83 341.017 781.982 340.678 779.607 340.678C777.232 340.678 776.383 341.017 777.401 341.526ZM754.329 346.953C752.632 347.97 752.632 348.649 754.159 349.666C756.704 351.362 764.677 349.157 763.49 347.122C762.133 345.087 757.552 344.917 754.329 346.953ZM427.238 368.492C428.086 369.339 436.908 366.287 436.908 365.1C436.908 364.591 434.533 365.1 431.649 366.117C428.934 367.135 426.898 368.152 427.238 368.492ZM1290.43 391.048C1292.98 391.896 1294.16 390.03 1292.81 387.826C1291.79 386.299 1291.11 386.299 1290.09 387.995C1289.24 389.352 1289.41 390.539 1290.43 391.048ZM1263.63 393.931C1264.14 394.44 1265.66 394.609 1266.85 394.101C1268.21 393.592 1267.7 393.083 1265.83 393.083C1263.97 392.914 1262.95 393.422 1263.63 393.931ZM1295.18 410.552C1297.22 412.926 1303.83 412.417 1303.83 409.704C1303.83 408.516 1295.35 406.651 1293.83 407.668C1293.49 407.838 1293.99 409.195 1295.18 410.552ZM1291.96 413.265C1291.96 414.113 1292.3 414.961 1292.64 414.961C1293.15 414.961 1293.99 414.113 1294.5 413.265C1295.01 412.248 1294.67 411.569 1293.83 411.569C1292.81 411.569 1291.96 412.248 1291.96 413.265Z" fill="#FF4700"/>
</svg>
