<svg width="1021" height="346" viewBox="0 0 1021 346" fill="none" xmlns="http://www.w3.org/2000/svg"><path d="M142.667 2.589c0 1.467-1.334 5.067-2.934 8-2.933 5.2-3.333 5.333-8.4 4.533-3.2-.4-6.4-2-8-3.867-4.133-4.8-9.466-6.133-26.266-6.4-15.067-.4-18.8.4-10.134 2.134 2.934.533 3.734 1.333 2.934 2.133-.934.934-2.534.934-5.067 0-4.667-1.733-14.133-1.733-14.133 0 0 .8 1.6 2.133 3.466 2.934 2.667 1.2 3.6 1.2 4.4 0 1.067-1.867 9.6-.534 14.267 2.133 2.533 1.466 2.533 1.466-.133 1.733-1.467.133-3.2 0-4-.133-.667-.267-4.134-.267-7.467-.133-5.067.133-6.933-.4-10.4-3.467-2.267-2-4.133-4.4-4.133-5.467 0-3.2-5.067.8-10.667 8.4-2.933 3.867-6.4 7.467-7.733 7.867-1.6.533-3.467 4-5.467 10.133-1.733 5.2-3.6 9.733-4.267 10.133-3.333 2-.266 3.2 7.867 3.2 13.733 0 27.333 1.6 25.333 2.934-1.333.8-.933 1.333 1.334 1.866 5.6 1.6 2.933 3.2-5.067 3.2-4.4 0-8-.533-8-1.333 0-.8 1.467-1.333 3.333-1.333 1.867 0 3.334-.667 3.334-1.334 0-.8-4-1.2-9.6-1.2-5.334.134-8.4.534-6.667.8 1.6.267 2.933 1.2 2.933 1.867 0 1.734-9.066 1.334-14.666-.533-5.867-2.134-8-1.6-11.067 2.533l-2.4 3.2h4.133c5.334 0 5.2 2.667-.266 2.934-2.4.133 3.466.666 12.933 1.066 18.267.934 64.533 4.667 76.4 6.133 8.933 1.067 9.2 3.867.267 3.867-3.6 0-6.667-.533-6.667-1.2 0-.533-1.467-.666-3.333-.266-1.867.533-3.334.266-3.334-.4 0-.667-2.666-1.467-6-1.734-4.133-.267-6 .133-6 1.2 0 2.534-2.8 2.134-4.8-.666-1.333-1.6-2.133-1.867-2.8-.8-.666.933-4.8 2-9.2 2.533-7.6.8-8.266.666-8.933-1.867-.8-3.066-5.733-3.867-6.533-1.2-.4 1.2-2.667 1.067-8.8-.8-6.667-2.133-10.667-2.4-21.6-1.733-11.067.667-13.6.533-14.267-1.067-.8-2.133-4.4-2.8-4.4-.666 0 .666.933 1.733 2.133 2.4 2 1.2 2 1.6-.266 5.466-1.334 2.267-2.934 4.133-3.6 4.133-.534 0-.667.534-.267 1.334.4.666 2 1.333 3.467 1.333 1.466 0 2.266.667 1.866 1.334-.533.8-1.466 1.066-2.133.533-1.867-1.067-6.933 11.2-6.133 14.933.266 1.734 0 2.8-.534 2.4-.666-.4-1.2.8-1.2 2.667 0 1.733-1.2 7.067-2.666 11.733C1.2 115.256 0 122.056 0 125.789c0 7.867 4 27.6 8.667 42.667 3.733 12 12.4 28 15.333 28 1.067 0 3.067 3.466 4.8 8.666 1.867 5.334 4.533 10 6.933 12.134 2.4 2.133 4.267 5.466 4.8 8.533.934 4.533 1.067 4.8 2.8 2.533 1.067-1.466 2-1.866 2-.933 0 .8.4 2.533.934 3.867.666 1.866.266 2.133-2 1.6-2.4-.667-2.934-.134-3.734 3.733-.933 5.333.4 16.533 2.134 16.533.533 0 .933-2.933.933-6.533-.133-3.733.4-7.333 1.333-8.267 1.2-1.2 1.467 1.2.934 11.067-.534 11.333-.267 12.933 2.266 15.867 1.467 1.733 3.467 3.2 4.267 3.2.8 0 2 2 2.8 4.266.667 2.4 1.733 4.4 2.267 4.4.666 0 1.2.8 1.2 1.867s2.533 2.8 5.6 4c4.4 1.867 5.733 2 6.533.533.933-1.333 1.2-1.333 1.2-.133 0 1.333 2.8 1.6 10.4 1.467 7.6-.134 11.733.4 16 2.4 5.867 2.666 7.733 5.333 2.667 3.866-3.334-1.066-3.2-1.066-7.467-.8-8.667.4 6 4.534 17.333 4.8 3.734 0 3.867 1.467.4 3.334-2.533 1.333-4.4 1.466-8.266.266-2.8-.8-6.534-1.866-8.267-2.4l-3.2-.8 3.067 4.134c1.6 2.4 2.666 4.666 2.133 5.066-1.067 1.2-12.8-2.266-18.4-5.466l-4.933-2.8-2.8 3.066-2.934 3.067 3.467 3.333c4.267 4.267 10.533 5.734 24.533 5.867 9.334 0 11.334.4 13.734 2.8 1.733 1.733 5.2 3.2 8.666 3.6 3.334.267 5.467 1.2 5.067 1.867-.533.8-3.067 1.066-5.733.666l-4.8-.8 3.866 3.334c4.667 4.133 3.467 5.866-1.733 2.8-4.267-2.534-9.467-3.067-9.467-.934 0 .667 1.2 1.334 2.667 1.334 3.6 0 3.333 2-.267 3.6-2.933 1.2-2.666 1.466 3.6 5.466 7.2 4.534 9.867 5.2 12.4 2.667 1.734-1.733 16.134 0 29.867 3.467 3.867 1.066 9.733 2.266 13.067 2.666l6 .8-6.4-2c-3.467-1.2-6-2.666-5.6-3.333.4-.667 7.733-.933 17.066-.533 8.934.4 20.134.8 24.934.933 4.8.267 12 .8 16 1.467l7.333.933-5.867-2.667c-3.2-1.6-9.2-3.866-13.333-5.066-6-1.734-6.933-2.267-4.8-3.2 3.6-1.334 12.4-1.467 13.2-.134.4.667 4.8 2.267 9.733 3.6 4.934 1.2 11.067 3.467 13.467 4.8 3.333 1.867 4.267 2 4.267.667 0-1.067-.934-2.267-2.134-2.667-3.866-1.466-.4-3.733 4.534-2.933 8 1.2 2.933-1.467-8.4-4.533-13.734-3.734-19.6-5.6-21.467-6.934-1.867-1.333-13.467-4.4-21.6-5.733-3.6-.533-6.4-.4-7.467.533-1.333 1.2-2 1.067-2.666-.533-.8-2.267-13.6-2.933-14.4-.8-.534 1.6-32.534-.667-38.667-2.8-4.4-1.467-1.867-1.733 19.333-1.6 13.334.133 29.6.8 36.134 1.6 6.666.8 12.266 1.2 12.666.933.267-.4-.133-.666-.933-.666-.933 0-1.6-.667-1.6-1.334 0-.8 2.267-1.066 5.733-.666l5.6.666-5.333-2.4c-2.933-1.466-8.133-2.933-11.733-3.466-3.6-.534-6-1.6-5.467-2.267.933-1.467 12.533-.267 14.533 1.6.667.667 10.934 1.2 22.934 1.2 18.533 0 52.133 2.933 67.066 6 1.867.4-.266-1.2-4.666-3.333l-8-4 9.333.533c5.2.4 11.467 1.067 14 1.467 3.467.666 4.133.533 2.533-.534-1.066-.666-3.466-1.6-5.333-2-6.933-1.466-19.067-5.866-16.4-6 4.8-.266 4.8-2 .267-5.733l-4.4-3.6 4.4-.133c2.4 0 5.466-.534 6.666-1.2 1.334-.667 6.134-.4 11.6.666 25.2 4.667 37.734 7.067 42.4 7.867 14 2.667-3.066-5.2-21.066-9.867-2.934-.666-7.867-2-11.067-2.8-7.2-1.866-14-8-11.333-10.4 1.2-1.333 3.733-1.333 10-.266 10.666 1.733 10 1.733 10.8-1.334.8-3.2 2.933-3.333 14-.666 4.533 1.066 13.2 2.533 19.333 3.333 6 .8 12.533 1.733 14.667 2.133 2 .534 3.6.267 3.6-.533 0-1.467-7.734-4.133-25.334-8.267-6.933-1.733-15.733-4.133-19.333-5.333-3.733-1.333-9.6-2.8-13.067-3.333-5.066-.8-6.266-1.467-6.266-3.6 0-2.267.666-2.534 3.733-2 2 .533 10.533 2 18.933 3.6 8.4 1.466 19.067 3.466 23.734 4.4 4.533 1.066 8.266 1.333 8.266.666 0-.533-.266-1.066-.666-1.066-3.067 0-27.067-5.867-28.267-6.934-2.933-2.4-1.867-3.733 2.533-3.733 2.267 0 3.867-.4 3.467-.8-1.067-.933-19.2-5.067-41.067-9.2-23.6-4.4-24-4.533-24-5.867 0-.666 1.067-.933 2.4-.666 21.6 4.533 45.467 7.333 67.6 7.866 10.4.267 19.734 1.734 43.867 7.334 18 4.133 17.733 2.533-.533-3.6-1.6-.534-1.6-.8-.267-1.334 2.4-.933 11.733.934 44.933 8.934 35.334 8.533 52.534 11.866 64.667 12.533 10.933.667 10.4-.533-1.467-3.733-32-8.8-37.866-10.534-38.266-11.6-.267-.667-2.134-1.2-4.267-1.2-4.4 0-17.733-2.534-38-7.334-8-2-25.2-5.866-38-8.666-34.267-7.467-42.667-9.6-42.667-10.934 0-.533.267-1.066.667-1.066 2.533 0 95.2 20.933 98.933 22.266.934.4 1.734-.266 1.734-1.466 0-3.2-.267-3.2 36.666 5.066 5.067 1.2 11.734 2.134 14.8 2.134 2.934 0 14.934 2.4 26.534 5.333 20.666 5.2 24.933 5.6 21.866 1.867-1.333-1.6-.266-1.734 6.934-.934l8.533.8-4.267-3.6c-5.333-4.4-5.733-7.466-1.066-7.466 1.866 0 4.533-.667 5.866-1.6 3.067-1.867 15.067.4 37.467 6.8 7.733 2.266 15.467 4.133 17.333 4h3.334l-3.334-1.467c-1.866-.8-6.266-2.8-10-4.533-7.2-3.2-22.666-7.067-168-41.6-12.4-3.067-24.933-5.867-27.733-6.4-5.333-.934-8.133-3.2-3.867-3.2 1.334 0 4.267.533 6.4 1.2 2.134.666 8.4 2.266 13.867 3.466 5.467 1.2 23.467 5.467 40 9.467 43.2 10.533 122.8 29.6 126.667 30.267 3.6.666 18.133 5.066 27.866 8.266 5.467 1.867 9.867 1.734 4.934-.133-4.534-1.733-2-3.333 3.866-2.4 3.334.4 6 .533 6 .133 0-.933-21.866-8.533-35.333-12.133a1098.155 1098.155 0 0 1-22-6.133c-15.733-4.534-73.2-18.934-112-28-33.733-7.867-46.933-11.867-33.333-10 7.2.933 60.8 13.866 99.333 24 74.667 19.6 80.133 20.8 86.267 19.466 4.266-1.066 7.6-.933 13.066.534 8.667 2.266 32 7.466 48 10.8 6.267 1.2 20.934 5.2 32.667 8.8 11.733 3.6 23.2 6.533 25.333 6.666 2.267 0 6.667.667 9.734 1.467 4.533 1.067 6.133.933 6.933-.4.533-.933 2.4-1.6 4.133-1.6 4.934 0 37.2 8.267 40.4 10.267 6.4 4.133 27.2 12.266 32.8 12.933 3.334.4 17.6 5.333 31.734 11.067 14.133 5.6 26 10 26.4 9.6.8-.8-5.467-5.067-12.8-8.4l-6-2.8 6-.934c4.133-.666 8.8-.266 14.266 1.067 17.2 4.533 11.334 1.2-9.2-5.333-17.2-5.334-21.733-7.067-20.8-7.867.4-.4 5.067.8 10.534 2.667 13.466 4.666 16.4 3.466 3.466-1.2-5.6-2.134-10.133-4-10-4.267.267-.133 4.667.8 9.734 2.133 24.8 6.8 40.666 11.334 47.2 13.6 4 1.334 7.466 2.134 7.866 1.867.267-.4-2.266-2.4-5.6-4.4-3.466-2.133-5.866-4.133-5.466-4.533.533-.667-6.534-4.667-20-11.6-4.134-2-6-3.867-6-5.6 0-1.467.933-2.667 2-2.667 4.933 0 24.133 6.267 39.2 12.8 11.733 5.067 17.466 6.8 20.133 6.4 3.6-.8 13.467 3.2 15.333 6.133 1.2 2 3.334 1.6 3.334-.666 0-1.067-1.6-2.934-3.6-4.267-2.134-1.333-5.067-3.6-6.534-5.2l-2.8-2.933 4-.8c4.134-.8 16.8 2.533 18.267 4.666.533.667 2.933 1.467 5.333 2 4.4.667 4.534.667 2.134-1.333-1.467-1.2-3.467-2.133-4.534-2.133-1.066 0-3.333-1.2-5.066-2.534-2.534-2-2.8-2.666-1.2-3.333 1.066-.4 4-.4 6.4-.133 3.2.533 1.866-.4-5.067-3.867-9.467-4.533-21.067-14.267-18.133-15.2.8-.267 1.066-1.067.666-1.867-.666-.933.4-1.2 2.934-.533 2.133.533 6 1.2 8.533 1.333 4.667.4 12.8 3.2 9.6 3.334-2.533.133-.8 2.4 2.4 3.2 1.467.4 2.4.133 1.867-.534-1.067-1.866 1.866-1.466 6.266.934 2.267 1.066 6.267 1.866 8.934 1.6l4.933-.534-3.6-1.6c-3.333-1.333-5.2-4.266-2.667-4.266 1.067 0 15.467 4.533 19.337 6 1.73.666 2.26.266 2.26-1.867 0-1.6-.8-2.933-1.6-2.933-.93-.134.67-.667 3.6-1.067l5.34-.8-10.27-3.733c-5.6-2.134-11.2-4.934-12.533-6.4-1.2-1.334-3.334-2.534-4.667-2.534-1.333 0-2.8-.666-3.2-1.333-.4-.8 0-1.333.933-1.333 3.067 0-2-2.667-5.066-2.667-1.6 0-3.6-.933-4.534-2-1.333-1.6-1.2-2 .8-2.133 1.467 0 .534-.8-2.133-1.734-2.667-.933-5.333-1.2-6.267-.533-2.533 2-13.333-1.333-17.733-5.467-1.067-1.066-3.867-2.666-6.4-3.733-2.4-.933-4.667-2.667-5.2-3.733-.4-1.067-1.867-2-3.2-2-1.333 0-3.2-1.2-4.133-2.667-.934-1.467-2.534-2.667-3.6-2.667-2 0-30-9.066-34-10.933-2.4-1.2-42.667-15.333-59.467-20.8-4.8-1.6-13.733-4.667-20-6.8-6.267-2.133-22.133-7.333-35.333-11.467-30.8-9.733-43.867-14.133-38-13.2 2.533.534 10.933 2.934 18.533 5.467 7.6 2.4 14.533 4.267 15.333 4 .8-.267-4-2.267-10.533-4.533-6.667-2.267-30-10.4-52-18.134-32.8-11.6-80-26.8-120-38.933-12.667-3.867-23.333-6.133-24.667-5.334-.8.4-1.333.267-1.333-.4 0-.666-2.8-1.733-6.267-2.266-3.6-.4-7.6-1.6-9.066-2.534-1.467-.933-4.134-2-6-2.4-3.6-.8-31.734-8.933-44-12.666-4-1.2-11.2-2.933-16-3.867-12.534-2.4-30.4-6.933-46.667-11.867-4-1.2-10.267-2.666-14-3.333-3.6-.533-13.867-2.666-22.667-4.666-22.266-4.934-43.066-8.667-48-8.667-2.266 0-4.666-.534-5.333-1.2-.8-.667-3.867-1.6-6.933-2.133-4.8-.8-5.734-.534-5.734 1.2 0 1.2-.533 2.133-1.333 2.133-.667 0-1.333-1.2-1.333-2.534 0-2-1.334-2.8-5.6-3.6-3.2-.533-6.667-1.2-7.734-1.333-1.066-.267-5.866-.933-10.666-1.733-4.8-.667-14.4-2.534-21.334-4-6.933-1.6-18-3.733-24.666-4.8-6.534-1.067-16.8-2.8-22.667-3.867-18-3.2-23.333-3.733-23.333-2.267 0 .8-1.067 1.467-2.534 1.467-2.933 0-9.733-3.333-8.8-4.267C212.4 11.79 197.6 9.122 190.4 9.122c-3.733 0-6.4.667-6.4 1.467s-.8 1.2-1.6.8c-.933-.267-1.6-1.2-1.467-2 .134-.8-2.266-1.733-5.333-2.267-3.067-.533-8.267-1.866-11.467-3.066-5.333-1.867-5.866-1.867-7.066.133-1.734 3.2-6 2.8-9.867-1.067-4-4-4.533-4.133-4.533-.533zM148 11.255c0 1.067-.533 1.6-1.333 1.2-.667-.4-1.334-1.333-1.334-2.133 0-.666.667-1.2 1.334-1.2.8 0 1.333.934 1.333 2.133zm48 .534c0 .667-.8 1.333-1.867 1.333-1.066 0-2.4-.666-2.8-1.333-.4-.8.4-1.333 1.867-1.333 1.6 0 2.8.533 2.8 1.333zM65.067 14.722c-.667 2-6.4 3.2-6.4 1.333 0-1.866 1.6-2.933 4.4-2.933 1.333 0 2.266.667 2 1.6zm-7.734 18.4c0 .667-.533 1.334-1.2 1.334-.8 0-1.733-.667-2.133-1.334-.4-.8.133-1.333 1.2-1.333 1.2 0 2.133.533 2.133 1.333zm257.334-.8c0 .4-.534 1.067-1.334 1.467-.666.4-1.333.133-1.333-.534 0-.8.667-1.466 1.333-1.466.8 0 1.334.267 1.334.533zm-44.4 2.933c-.4.4-1.6.534-2.534.134-1.066-.4-.666-.8.8-.8 1.467-.133 2.267.267 1.734.666zm-131.6 3.734c61.866 5.333 90.933 9.333 154.666 20.933 8.4 1.467 20.134 3.6 26 4.534 18.4 3.2 38.667 7.466 90 18.8 59.6 13.2 142.534 33.6 150.934 37.066 2.8 1.2 6.4 2.134 8.133 2.134 6.8 0 140.4 35.6 172.933 46 3.334 1.066 15.867 4.933 28 8.666 31.867 9.867 49.467 16.134 48.534 17.467-.4.667.266.8 1.466.4 1.334-.533 3.2.267 4.8 2 1.867 2 4.267 2.8 8.267 2.8 3.6 0 4.933.4 3.867 1.2-1.334.8-1.2 1.333.933 1.867 1.6.4 2.8.133 2.8-.667s1.6-.267 3.6.933c2 1.334 5.733 2.667 8.267 2.934 3.866.4 8.533 2.133 19.466 7.066 1.467.667 6.4 2.4 10.934 4 12.533 4 23.066 9.334 23.066 11.6 0 4.267-19.866 0-49.333-10.533-4-1.467-12.133-4.133-18-5.867-5.867-1.733-11.867-3.733-13.333-4.4-6.4-2.933-76.267-22.933-102.667-29.466-8.8-2.134-18.4-4.534-21.333-5.334-18.4-4.933-47.867-12-48.267-11.6-.267.267 4.133 1.867 9.733 3.467 5.6 1.6 9.867 3.2 9.467 3.6-.4.4-8.4-1.333-17.867-4-9.333-2.533-21.866-5.867-27.733-7.2-5.867-1.467-18.8-4.8-28.667-7.467-47.866-12.666-143.2-35.2-213.333-50.666-34.267-7.467-46.667-10.8-43.733-11.734 2.4-.8 2.133-.933-1.2-.533-2.4.133-4.4-.133-4.4-.8s-2.8-.8-6.134-.267c-4.533.667-6 .534-5.333-.666.667-.934-.267-1.2-2.933-.667-2.267.533-4.267.133-4.8-.667-.534-.8-2.667-1.466-4.8-1.466-2 0-4-.534-4.267-1.2-.133-.667-3.067-1.6-6.4-2-12.533-1.467-49.067-9.6-51.2-11.334-1.333-1.066-5.733-1.867-11.333-2-5.067-.133-10-.933-11.067-1.733-1.467-1.2-14.8-3.467-23.067-3.733-1.466-.134-3.6-.534-4.666-1.067-1.067-.4-5.867-1.733-10.534-2.934-6.8-1.733-8.8-1.866-9.6-.533-.8 1.467-1.6 1.334-3.466-.266-2.4-2.134-8-3.334-39.734-7.867-15.2-2.267-31.866-5.6-38-7.467-1.733-.666-1.733-.8 0-1.867 2.8-1.866 15.867-1.6 41.334.534zm238.666 6c0 2.4-2.4 2.8-4 .8-1.333-1.733-1.2-2 1.2-2 1.467 0 2.8.533 2.8 1.2zm-49.6 2c5.334 1.067 10.134 2.267 10.534 2.667 1.6 1.6-9.867.533-18.934-1.867-11.6-2.934-5.866-3.467 8.4-.8zM93.867 52.056c-1.067 3.6-1.6 4.4-2.534 3.6-.933-1.067.934-6.534 2.267-6.534.667 0 .8 1.334.267 2.934zm291.333-.934c17.6 3.733 87.867 20.933 111.467 27.467 16.8 4.533 16.8 7.2 0 3.333-9.334-2.266-11.734-1.733-3.067.534 11.333 3.2 12.667 4 5.067 3.2-4-.534-12.667-2.267-19.334-4-22.4-5.867-26.666-6.934-48-11.734C399.2 62.856 368.4 56.19 358.667 54.19c-4.8-.934-7.467-1.867-6-2.133 1.466-.134 6.533.533 11.066 1.6 5.2 1.2 8 1.333 7.467.533-.533-.8.133-2.267 1.467-3.334 3.066-2.133 1.333-2.133 12.533.267zm-281.867.667c.4.666-.133 1.333-1.2 1.333-1.066 0-2.4-.666-2.8-1.333-.4-.8.134-1.334 1.2-1.334 1.067 0 2.4.534 2.8 1.334zm14 5.333c0 .667-.933 1.334-2 1.334-1.066 0-2-.667-2-1.334 0-.8.934-1.333 2-1.333 1.067 0 2 .533 2 1.333zm259.734 6.534c3.333 2-1.467 2.666-5.734.8l-4-1.734 4-.133c2.267 0 4.8.4 5.734 1.067zm-336.8 3.866c1.2 1.2-9.334 2-11.067.933-.667-.533-.8-1.466-.4-2.266.8-1.333 9.733-.267 11.467 1.333zm116.533 8c-1.2 1.2-4.933-1.067-4.133-2.4.666-1.067 1.466-.933 2.8.133 1.066.8 1.6 1.867 1.333 2.267zm-114.933.533c2 2.8 1.733 5.067-.667 5.067-.667 0-1.2-.933-1.2-2s-.533-2-1.333-2c-.667 0-.934.933-.534 2 1.2 2.933-5.066 2.667-11.466-.533-2.934-1.467-5.6-2-6-1.334-.4.667-1.867.4-3.334-.4-4.4-2.8-1.6-3.733 10.667-3.733 10.667 0 12 .267 13.867 2.933zM96 77.255c0 1.467-.533 2.4-1.333 1.867-.667-.4-.934-1.6-.4-2.666.933-2.8 1.733-2.534 1.733.8zm-45.333.534c0 1.067-.934 2-2 2-1.067 0-2-.933-2-2s.933-2 2-2c1.066 0 2 .933 2 2zm6.666 2c0 .666-.533 1.333-1.333 1.333-.667 0-1.333-.666-1.333-1.333 0-.8.666-1.334 1.333-1.334.8 0 1.333.534 1.333 1.334zm36.534 3.333c.533 1.334-.134 2-1.867 2s-2.4-.666-1.867-2c.534-1.067 1.334-2 1.867-2 .533 0 1.333.933 1.867 2zm-63.2 2c0 .667-.934 1.334-2 1.334-1.067 0-2-.667-2-1.334 0-.8.933-1.333 2-1.333 1.066 0 2 .533 2 1.333zm267.066-.4c-.933.267-2.8.267-4 0-1.333-.4-.533-.666 1.6-.666 2.267 0 3.2.266 2.4.666zm-155.066 1.734c0 .666-.534 1.333-1.334 1.333-.666 0-1.333-.667-1.333-1.334 0-.8.667-1.333 1.333-1.333.8 0 1.334.534 1.334 1.334zm120 4c0 .666-.534 1.333-1.334 1.333-.666 0-1.333-.667-1.333-1.334 0-.8.667-1.333 1.333-1.333.8 0 1.334.534 1.334 1.334zm-241.334.666c0 1.6-4.666 10-5.6 10-1.466 0-1.333-.533 1.2-6 1.867-3.867 4.4-6.266 4.4-4zm324 2c0 .667-.533 1.334-1.333 1.334-.667 0-1.333-.667-1.333-1.334 0-.8.666-1.333 1.333-1.333.8 0 1.333.533 1.333 1.333zm-13.733 4c7.867 1.6 18.267 3.6 23.067 4.667 4.8 1.2 18.533 4.133 30.666 6.8 30.8 6.533 54.4 11.867 80 18 12.134 2.933 31.867 7.733 44 10.667 43.6 10.4 154.534 39.333 155.867 40.666 1.2 1.067-3.333.4-9.733-1.466-13.734-4.134-126.267-32.667-149.467-38-5.867-1.2-28.667-6.534-50.667-11.734-37.6-8.933-56.266-13.066-112.666-24.933-12.8-2.667-24.8-5.467-26.667-6-6.133-2 .8-1.467 15.6 1.333zm-110.267 1.334c0 .666-.533 1.333-1.333 1.333-.667 0-1.333-.667-1.333-1.334 0-.8.666-1.333 1.333-1.333.8 0 1.333.534 1.333 1.334zm24 4c0 .666-.266 1.333-.533 1.333-.4 0-1.067-.667-1.467-1.333-.4-.8-.133-1.334.534-1.334.8 0 1.466.534 1.466 1.334zm5.334 3.333c0 1.067-.534 2-1.334 2-.666 0-1.333-.933-1.333-2s.667-2 1.333-2c.8 0 1.334.933 1.334 2zm9.333-.667c0 .667-.533 1.334-1.333 1.334-.667 0-1.334-.667-1.334-1.334 0-.8.667-1.333 1.334-1.333.8 0 1.333.533 1.333 1.333zm88.133 5.2c44.934 9.2 67.2 14.534 66.134 15.734-.267.266-5.867-.8-12.4-2.267-11.334-2.667-37.6-8.133-64.4-13.467-6.934-1.333-12.8-2.8-13.2-3.2-1.467-1.466 5.466-.533 23.866 3.2zm-324.8-1.2c-.4.667-1.333 1.334-2.133 1.334-.667 0-1.2-.667-1.2-1.334 0-.8.933-1.333 2.133-1.333 1.067 0 1.6.533 1.2 1.333zm-14.4 6.934c-.4 1.066-.8.666-.8-.8-.133-1.467.267-2.267.667-1.734.4.4.533 1.6.133 2.534zm-2.8 25.6c1.867 11.066 6.134 26.4 10.667 37.333.667 1.733.533 2.267-.533 1.733-2.134-1.466-9.334-24.133-11.6-36.933-1.067-6.267-1.867-15.2-1.734-20 .134-7.6.267-7.867.667-2 .267 3.6 1.333 12.667 2.533 19.867zm8.4 12.8c1.6 6.933 3.2 13.866 3.6 15.333.534 1.733.4 2.133-.4 1.333-3.066-3.2-9.733-35.466-9.6-45.733.134-7.2.267-7.067 1.867 4.4.933 6.533 2.933 17.733 4.533 24.667zm8.934-30.934c-1.2 1.2-4.934-1.066-4.134-2.4.667-1.066 1.467-.933 2.8.134 1.067.8 1.6 1.866 1.334 2.266zm397.466 3.734c-.4.4-1.6.533-2.533.133-1.067-.4-.667-.8.8-.8 1.467-.133 2.267.267 1.733.667zm-402.266 5.733c0 4.933 6.266 31.867 8.133 35.2 1.6 2.933 1.2 3.867-1.067 2.533-2-1.2-9.733-31.066-9.733-37.2 0-2.4.667-4.4 1.333-4.4.8 0 1.334 1.734 1.334 3.867zm448.533 5.333c.4.534-.8.8-2.533.4-1.867-.266-3.334-.8-3.334-1.066 0-1.067 5.2-.534 5.867.666zm273.2 10.4c-.933.267-2.533.267-3.333 0-.934-.4-.267-.666 1.6-.666 1.866 0 2.533.266 1.733.666zm-63.467 21.2c-.4.4-1.6.534-2.533.134-1.067-.4-.667-.8.8-.8 1.467-.134 2.267.266 1.733.666zm-647.6 8c0 1.067-.533 1.6-1.333 1.2-.667-.4-1.333-1.333-1.333-2.133 0-.667.666-1.2 1.333-1.2.8 0 1.333.933 1.333 2.133zm646.267 2.667c-.4.4-1.6.533-2.533.133-1.067-.4-.667-.8.8-.8 1.466-.133 2.266.267 1.733.667zm5.067 1.867c.4.8-.134.933-1.2.533-2.4-.933-2.8-1.867-.934-1.867.8 0 1.734.534 2.134 1.334zM19.2 184.589c.4 1.067.267 1.6-.533 1.2-.8-.4-1.334-1.333-1.334-2.133 0-1.867.934-1.467 1.867.933zm18.667 14.133c.4 1.734.666 4.534.666 6.4l-.133 3.334-.933-3.467c-.667-1.867-1.867-4.667-2.667-6.267-1.2-2.4-1.2-2.933.267-2.933 1.066 0 2.266 1.333 2.8 2.933zM56 221.122c0 .667-.533 1.334-1.333 1.334-.667 0-1.334-.667-1.334-1.334 0-.8.667-1.333 1.334-1.333.8 0 1.333.533 1.333 1.333zm-11.067 2.934c-.4 1.066-.8.666-.8-.8-.133-1.467.267-2.267.667-1.734.4.4.533 1.6.133 2.534zM948 225.122c1.067.667 1.467 1.334.667 1.334-.667 0-2.267-.667-3.334-1.334-1.066-.666-1.333-1.333-.666-1.333.8 0 2.266.667 3.333 1.333zm-894.667 11.2c-1.733 1.734-4.666-.933-3.333-3.2.667-1.066 1.467-1.066 2.8.134 1.333 1.066 1.6 2 .533 3.066zM995.2 252.989c.4.533 3.2 1.467 6.13 2 2.94.4 5.34 1.467 5.34 2.267 0 .8-1.2 1.066-2.94.533-7.597-2.267-11.73-4-11.73-4.933 0-1.467 2.267-1.334 3.2.133zm-880.667 2.267c1.2 1.066-15.333.4-17.066-.667-1.067-.667 1.866-.933 7.333-.533 5.067.4 9.467.933 9.733 1.2zm410.8-.8c0 .666-1.2 1.333-2.666 1.333-1.467 0-2.667-.667-2.667-1.333 0-.8 1.2-1.334 2.667-1.334 1.466 0 2.666.534 2.666 1.334zm-446.666 1.2c0 .666 1.6 1.6 3.733 2.133l3.6.933-3.2 1.467c-2.533 1.2-3.467 1.067-4.8-.933-.933-1.2-2.533-2.134-3.6-2-3.467.4-5.2-.134-4.4-1.467 1.067-1.6 8.667-1.733 8.667-.133zm226.266-.4c-.4.4-1.6.533-2.533.133-1.067-.4-.667-.8.8-.8 1.467-.133 2.267.267 1.733.667zm-152.266 4.533c.4.667.133 1.333-.534 1.333-.8 0-1.466-.666-1.466-1.333 0-.8.266-1.333.533-1.333.4 0 1.067.533 1.467 1.333zm-94.934 6.267c-.933.266-2.533.266-3.333 0-.933-.4-.267-.667 1.6-.667s2.533.267 1.733.667zm21.067 2c1.2 2.133.667 2.4-4.667 2.4-3.333 0-6.4-.667-6.933-1.467-.4-.8-2.267-1.067-4-.667-3.067.8-4.267-.4-2.267-2.4.534-.4 4.4-.666 8.8-.533 5.867.267 8.134.933 9.067 2.667zm170.133-.8c-.4.4-1.6.533-2.533.133-1.067-.4-.667-.8.8-.8 1.467-.133 2.267.267 1.733.667zm33.734 5.866c2.666.8 2.8 1.067.666 1.067-1.466 0-4.133-.533-6-1.067-2.666-.8-2.8-1.066-.666-1.066 1.466 0 4.133.533 6 1.066zm-196.4 7.467c-.4.4-1.6.533-2.534.133-1.066-.4-.666-.8.8-.8 1.467-.133 2.267.267 1.734.667zm747.466 5.467c-.933.266-2.533.266-3.333 0-.933-.4-.267-.667 1.6-.667s2.533.267 1.733.667zm-719.066 5.733c0 .667-1.2 1.333-2.534 1.333-1.466 0-3.066-.666-3.466-1.333-.534-.8.666-1.333 2.533-1.333s3.467.533 3.467 1.333zm55.2 14.533c.8 1.2-11.2 2.934-12.934 1.867-.533-.267-.666-1.2-.266-1.867 1.066-1.466 12.266-1.6 13.2 0zm-35.2 3.467c1.866 2.133 1.333 2.4-1.867 1.2-1.2-.4-2.133-1.333-2.133-2 0-1.867 2.133-1.467 4 .8zm37.333.667c0 .666-.267 1.333-.533 1.333-.4 0-1.067-.667-1.467-1.333-.4-.8-.133-1.334.533-1.334.8 0 1.467.534 1.467 1.334zm-5.467 9.866c-1.466 1.2-9.2 1.867-9.2.8 0-.8 2.267-1.333 4.934-1.333 2.666 0 4.533.267 4.266.533zm-16.133 6c.4 1.334-.4 1.467-3.867.8-7.733-1.6-9.2-3.333-2.666-3.066 3.6.266 6.133 1.066 6.533 2.266zm19.067-.8c-.134 1.6-2 1.2-2.534-.533-.4-.8.134-1.333 1.067-1.067.8.4 1.467 1.067 1.467 1.6zm23.866 10.267c1.734 1.2 1.734 1.333 0 1.2-1.066 0-3.2-.533-4.666-1.2l-2.667-1.2h2.667c1.466 0 3.6.533 4.666 1.2z" fill="#FF4700"/></svg>