<svg width="1344" height="426" viewBox="0 0 1344 426" fill="none" xmlns="http://www.w3.org/2000/svg"><path d="M1260.57 1.314c-1.01 1.356.68 1.526 6.11.678 6.45-1.187 7.13-1.018 5.26 1.187-1.53 1.866-5.43 2.544-13.91 2.544-11.54 0-17.98 2.374-15.95 5.936.51.848-.34 2.713-2.03 3.9-3.06 2.375-3.06 2.375-.17 2.545 1.69 0 3.39 1.187 3.9 2.544.68 1.356 1.69 2.544 2.54 2.544.85 0 1.53-1.188 1.53-2.544 0-1.357 1.02-2.544 2.37-2.544 3.06 0 6.62 4.41 5.43 6.614-1.01 1.526 16.29 1.187 25.62-.678 3.73-.679 4.07-.51 1.36.678-2.38 1.018 0 1.357 7.63 1.187 6.11 0 12.22.17 13.57.678 1.53.51 2.72-.508 3.06-2.883.68-4.748 6.28-6.444 12.72-4.07 5.94 2.374 5.77 6.106-.34 8.31-4.58 1.527-4.75 2.205-4.58 11.024 0 5.258.68 8.989 1.36 8.65.85-.51 1.87.508 2.54 2.204.68 1.696 2.72 4.24 4.59 5.767 3.39 2.883 2.54 6.614-1.7 6.614-1.36 0-2.38.678-2.38 1.696 0 .848 1.19 1.696 2.72 1.696 1.36 0 4.24.848 6.11 1.866 3.05 1.695 3.22 2.204 1.18 3.9-1.35 1.018-3.73 4.41-5.26 7.293-2.2 4.41-2.37 6.275-.84 9.667 1.18 2.374 2.54 4.41 3.22 4.41.85 0 1.36 1.187 1.36 2.543 0 1.357-.85 2.544-1.7 2.544-1.02 0-1.7 1.188-1.7 2.544 0 1.527 1.53 2.544 4.07 2.544 4.59 0 7.3 4.919 4.08 7.123-1.7 1.018-1.53 1.866.67 3.223 1.87 1.017 3.06 3.561 2.89 6.275-.17 2.883-.51 3.392-1.02 1.526-1.19-4.579-3.39-3.392-3.22 1.696.17 3.562 1.02 4.579 3.05 4.24 2.04-.339 3.06.678 3.06 3.053 0 2.035-1.19 3.392-2.72 3.392-2.04 0-2.54 1.017-1.87 3.561.68 2.544-.17 4.579-2.88 6.784-3.73 2.883-3.9 4.071-4.24 29.341 0 14.585-1.02 28.322-1.87 30.697-1.86 5.088-2.2 14.755-.51 27.644.85 7.462 1.53 8.989 3.91 8.31 2.54-.678 3.05.848 3.73 10.854.68 7.463 1.86 12.381 3.73 14.247 3.56 3.731 3.39 4.748-.51 3.392-3.22-1.018-3.39-.17-3.22 11.193.17 10.176.85 12.381 3.39 13.059 1.7.339 3.39 2.374 3.9 4.409.85 3.901 2.55 27.306 3.06 40.365.17 4.579 1.02 8.14 1.69 8.14.85 0 .85 1.018 0 2.035-.67 1.188-1.01 4.071-.84 6.445.5 4.749-5.26 15.264-8.32 15.264-1.02 0-1.35 1.187-.85 2.713.68 1.527.34 3.732-.5 4.749-.85 1.018-2.04 7.293-2.55 13.738-1.19 13.398-3.9 17.977-8.48 13.567-3.23-3.222-7.81-2.204-7.81 1.527 0 1.356-1.52 3.052-3.39 3.561-3.73 1.187-4.58 5.258-1.36 6.275 2.38.848-4.58 8.819-9.16 10.346-3.73 1.357-5.6-1.527-2.03-2.883 5.43-2.036.17-4.24-9.67-4.24-5.43.169-11.03-.509-12.22-1.527-1.02-.848-4.92-2.035-8.48-2.374-4.58-.509-6.28 0-6.28 1.696 0 2.035-2.03 2.374-11.54 1.357-19-2.035-22.39-2.035-22.9-.17-.34.848-4.41 1.526-8.99 1.187-4.58-.339-11.2-.678-14.76-.678-3.9-.17-6.28-1.187-6.28-2.544 0-1.187-1.35-2.205-3.05-2.205-2.38 0-2.55-.339-.34-1.696 4.75-2.883.68-3.053-12.72-.169-10.86 2.374-14.42 2.544-17.48.848-3.73-1.866-3.05-2.205 7.64-4.58 6.61-1.526 11.7-1.865 12.04-1.017 1.02 2.544 3.73 1.696 3.73-1.018 0-1.356 1.19-2.544 2.55-2.544 5.09 0 19.51-3.731 19.51-5.088 0-.678-6.28.17-14.08 1.866-16.8 3.731-18.49 3.901-13.07.509 4.08-2.544 3.91-2.544-3.39-1.357-4.24.509-9.5 1.018-11.87.848-4.25-.17-29.52 4.41-50.9 9.158-15.27 3.562-32.23 5.088-28.84 2.714 1.36-1.018 3.73-1.866 5.09-1.866 5.43 0 15.61-3.731 14.25-5.088-1.53-1.356-6.96-.848-45.64 3.731-9.33 1.018-23.24 1.866-30.87 1.696-9.84-.339-20.19.848-34.444 3.901-11.197 2.375-21.037 4.24-21.715 4.24-.679 0 2.375-1.865 6.786-4.24 4.411-2.374 9.5-4.24 11.366-4.24 1.867 0 3.733-.678 4.242-1.526 1.357-2.205-13.063-1.866-26.296.678-7.465 1.357-12.215 1.527-14.251.339-3.563-1.865-20.528.509-45.467 6.445-17.135 4.24-37.494 7.293-27.484 4.24 2.714-.848 17.305-4.579 32.234-8.48 80.246-20.521 75.835-19.164 77.531-23.574 1.527-4.409 2.885-4.24-13.911-.848-2.884.679-5.09.339-5.09-.509 0-1.526 25.788-10.006 45.809-14.924 14.25-3.562 42.75-12.55 45.8-14.416 1.36-.848 2.04-1.865 1.7-2.374-1.19-1.018-43.26 7.971-62.77 13.398-44.79 12.55-95.516 28.323-106.034 33.071-7.804 3.392-19.171 6.615-26.805 7.463-9.671 1.187-9.331-1.188.678-5.258 3.563-1.357 6.617-3.222 6.617-4.07 0-2.375-4.411-1.866-6.617.848-1.018 1.357-3.732 1.865-6.277 1.357l-4.411-.848 5.599-2.375c3.053-1.187 8.313-2.205 11.536-2.205 3.393.17 12.554-2.035 20.528-4.748 7.974-2.714 19.34-6.615 25.448-8.48 10.688-3.392 28.671-9.498 43.77-15.094 5.09-1.696 6.787-3.223 5.599-4.41-1.188-1.187-3.223-1.017-6.786.509-2.884 1.187-6.447 1.696-7.804 1.018-3.563-1.357-11.197 1.865-10.688 4.409.678 3.053-8.653 6.106-10.519 3.222-.848-1.696-3.393-2.035-7.804-1.356l-6.616.848 5.089-2.205c2.715-1.187 9.67-3.562 15.099-5.427 5.599-1.696 11.028-4.071 12.385-5.258 2.714-2.713 19.51-8.819 24.26-8.819 2.036 0 3.393-1.187 3.393-2.713 0-4.41-16.286-2.036-58.699 8.819-43.432 11.193-58.531 14.585-59.549 13.567-1.527-1.526 5.938-4.239 30.877-11.023 26.127-7.123 40.547-11.872 36.985-12.042-2.885 0-51.405 9.667-54.798 10.854-1.358.679-7.804 1.357-14.082 1.527-12.045.678-14.42-1.527-5.259-4.41 2.715-1.017 5.429-2.374 5.938-3.392.679-.848 3.732-1.696 6.786-1.865 3.224 0 6.447-1.018 7.465-2.205 1.696-2.035 9.67-5.257 25.448-10.176 14.42-4.579 36.645-12.889 35.966-13.398-.339-.339-7.295 1.187-15.608 3.562-8.313 2.204-17.135 3.731-19.51 3.222-2.884-.678-3.563-.509-2.036.678 1.866 1.187 1.697 1.696-.509 2.714-4.411 1.696-7.125 1.187-4.241-.848 1.866-1.357 1.527-1.526-1.697-.509-2.375.509-5.089 1.696-6.107 2.544-4.92 3.901-20.698 7.802-28.671 7.123-5.429-.509-13.573.509-22.734 2.714-15.947 4.07-18.492 4.24-16.117 1.865.848-.848 10.349-3.731 21.037-6.614 10.688-2.714 35.966-9.328 55.986-14.585 43.94-11.533 160.319-40.704 215.459-54.102 21.89-5.257 44.11-10.685 49.2-12.041 11.2-2.883 67.69-14.586 89.07-18.656 17.3-3.222 33.59-7.293 29.69-7.462-8.83-.509-122.32 23.404-160.33 33.58-6.61 1.696-27.14 6.784-45.8 11.193-18.66 4.41-43.94 10.685-55.99 13.738-12.21 3.222-27.481 6.953-33.928 8.48-10.858 2.544-39.36 10.006-77.192 20.182-103.489 27.983-129.615 34.428-136.062 33.58-3.563-.509-11.706.509-18.323 2.035-6.446 1.526-14.25 3.053-17.304 3.392-3.054.17-9.84 1.696-14.93 3.053-5.089 1.526-9.5 2.544-9.839 2.205-.34-.509 1.187-1.188 3.393-1.866 7.295-2.035 16.626-6.445 16.626-7.971 0-.678 1.696-1.357 3.902-1.357 2.205 0 5.428-1.187 7.295-2.713 2.544-2.205 2.714-2.544.339-1.696-1.527.508-7.634 1.696-13.572 2.713-5.768 1.187-11.706 2.544-13.233 3.223-1.357.848-5.938 1.865-10.179 2.543-10.858 1.527-5.599-1.187 12.724-6.444 8.313-2.375 20.188-6.954 26.296-10.176 6.107-3.053 14.081-6.614 17.813-7.802 3.733-1.187 7.465-2.713 8.313-3.561 2.036-1.866-6.616-3.901-11.536-2.544-2.206.509-4.411.339-4.75-.678-.34-1.018-5.599-1.018-15.439 0-8.143 1.017-16.626 1.356-18.831.678-2.206-.509-12.215 1.018-22.394 3.392-10.18 2.205-22.395 4.579-26.975 5.088l-8.483.848 8.483-3.053c8.652-3.222 35.966-11.193 46.654-13.568 11.876-2.713 20.698-5.427 19.85-6.275-.34-.509-9.501 1.187-20.019 3.731-54.12 12.72-66.844 15.603-67.353 15.094-.339-.339 4.581-2.204 10.689-4.239 6.107-2.036 10.857-4.071 10.348-4.58-.509-.508-6.107.34-12.384 1.866-6.277 1.357-17.305 3.731-24.261 5.088-6.955 1.357-21.885 5.088-33.082 8.48-11.197 3.392-22.733 6.105-25.618 6.105-2.884 0-10.179 1.527-15.947 3.392-5.768 1.866-11.876 3.392-13.403 3.392-1.526 0-9.161 2.035-17.134 4.24-7.805 2.374-15.609 3.901-17.135 3.392-1.697-.509-12.724 1.357-24.6 4.24-11.876 2.883-22.903 4.749-24.769 4.07-4.242-1.356-37.833 4.749-58.191 10.685-6.617 1.866 0-2.374 9.33-6.106 8.992-3.561 8.992-3.561 2.545-2.713-16.117 2.205-43.94 9.497-67.182 17.468-11.706 4.071-13.573 4.24-17.475 2.036-4.411-2.205-4.071-2.544 12.894-7.293 9.67-2.714 26.975-7.971 38.511-11.533 11.706-3.731 22.734-6.614 24.939-6.614 3.224 0 30.877-7.971 40.547-11.872 1.867-.678 8.653-2.544 15.269-4.24 16.117-4.07 23.921-6.275 44.958-12.72 9.84-2.883 22.055-6.275 27.314-7.462 5.26-1.187 10.349-2.713 11.367-3.392 1.866-1.017 41.735-12.041 53.78-14.585 3.732-.848 14.59-3.901 24.091-6.614 9.5-2.884 19.001-5.258 20.867-5.258 3.902 0 28.841-5.936 63.62-15.264 2.714-.848 14.59-3.731 26.296-6.784 19.85-4.748 40.208-10.345 60.227-16.281 4.581-1.526 15.438-4.409 24.091-6.614 14.251-3.731 52.083-14.416 109.087-30.697 22.563-6.445 30.028-8.65 47.502-14.246 6.108-2.036 23.243-6.784 38.173-10.685 14.93-3.901 25.96-7.293 24.43-7.632-3.22-.509-92.462 20.691-119.436 28.662-6.617 1.866-19.171 5.257-27.993 7.462-22.055 5.427-71.594 18.317-104.337 27.136-14.929 3.901-42.413 11.193-61.075 16.112-18.662 4.918-40.377 10.684-48.181 12.889-7.804 2.205-15.608 4.07-17.474 4.07-3.394 0-19.511 4.41-64.978 17.299-13.063 3.901-27.992 7.802-33.252 8.989-5.089 1.187-10.857 2.883-12.724 3.901-1.866 1.017-7.125 2.544-11.706 3.561-25.787 5.258-33.761 7.123-48.69 11.024-8.992 2.544-23.242 6.614-31.386 9.328-19.51 6.275-24.769 7.801-47.842 13.907-19.68 5.088-40.208 11.193-82.451 24.591-34.61 11.024-60.057 17.638-61.075 15.773-1.527-2.374-11.537-1.866-18.493 1.017-7.125 3.053-30.028 7.632-32.064 6.445-.679-.339-8.822 1.696-18.153 4.579-9.161 3.053-17.813 5.088-18.831 4.749-1.188-.339 13.402-5.936 32.573-12.381 19.001-6.275 40.377-13.737 47.333-16.281 14.59-5.597 23.582-6.614 12.724-1.526-3.732 1.865-9.84 4.409-13.402 5.936-9.162 3.561-7.126 4.409 4.071 1.526 5.09-1.357 11.197-2.374 13.573-2.374 2.375 0 8.821-1.527 14.42-3.223 17.305-5.766 51.575-15.603 73.799-21.539 22.225-5.766 34.949-9.836 38.002-12.38 1.018-.679 5.429-1.866 9.84-2.375 4.411-.678 15.778-3.391 25.448-6.444 9.67-2.883 22.055-6.275 27.654-7.463 5.598-1.187 13.233-3.391 16.965-4.748 3.732-1.357 12.554-3.901 19.51-5.427 13.572-3.053 48.012-12.211 70.406-18.826 13.912-4.07 52.253-14.585 76.344-21.03 7.465-2.035 33.422-8.988 57.682-15.433 24.26-6.614 58.53-15.773 76.344-20.352 100.434-26.118 177.796-47.148 179.493-49.013 3.223-3.392-14.76-.848-42.074 5.936-22.903 5.766-31.386 7.123-29.181 4.918.509-.678 3.902-1.696 7.465-2.544 3.563-.848 14.76-3.731 25.109-6.445 10.179-2.883 24.769-6.614 32.234-8.48 94.329-23.234 116.209-28.492 145.899-34.937 30.88-6.784 81.1-19.334 82.11-20.69.51-.509-1.35-.509-4.07.169-2.88.679-9.67 2.035-15.27 2.883-15.77 2.544-112.31 24.761-173.042 39.856-20.358 5.088-38.342 8.988-39.699 8.819-1.357-.34 5.768-2.714 15.948-5.258 22.733-5.936 40.033-11.872 36.133-12.72-1.69-.339-10.855 1.527-20.356 3.901-9.67 2.544-28.501 7.293-42.074 10.515-13.572 3.222-38.681 9.667-55.985 14.416-17.305 4.579-38.681 10.345-47.503 12.55-16.626 4.41-55.986 15.094-106.033 28.662-15.948 4.41-41.395 11.363-56.834 15.433-30.368 8.141-88.728 24.592-121.302 34.089-11.197 3.223-26.805 7.802-34.779 10.007-7.973 2.204-19.34 5.596-25.448 7.462-19.001 5.936-77.022 23.574-125.543 38.159-39.529 11.872-51.235 15.773-70.915 24.083-1.018.509-2.036.17-2.036-.678 0-1.018 5.429-3.901 12.046-6.445 6.447-2.714 12.554-6.105 13.402-7.801.849-1.527 3.733-3.392 6.277-4.071 2.715-.509 7.805-2.544 11.537-4.24 3.732-1.696 12.385-4.748 19.171-6.784 15.099-4.409 15.099-6.105.169-2.544-15.099 3.562-17.135 3.223-8.313-1.526 10.688-5.597 42.244-15.942 83.13-27.305 20.698-5.597 74.648-21.03 80.585-23.065 2.715-.848 38.681-10.685 79.737-21.878 41.056-11.194 78.889-21.539 83.979-22.896 12.724-3.562 50.726-13.907 65.316-17.808 18.662-4.918 29.18-7.801 50.048-13.567 10.688-3.053 22.394-6.106 26.126-6.954 3.563-.848 15.778-4.24 27.145-7.462 11.197-3.053 35.457-9.498 53.61-14.246 18.323-4.749 36.306-10.176 39.869-11.872l6.786-3.392-6.786-.17c-3.733 0-13.064 1.527-20.698 3.392-7.635 1.866-14.93 3.053-16.117 2.544-1.188-.339-9.84 1.357-19.171 4.07-9.331 2.544-17.983 4.41-19.34 3.901-1.358-.509 2.544-2.205 8.482-3.901 9.67-2.543 67.522-17.807 142.338-37.311 14.42-3.731 28.5-7.632 31.39-8.31 2.71-.848 28.33-7.293 56.83-14.416 28.5-6.953 55.99-13.907 61.08-15.433 5.09-1.527 10.51-2.883 11.87-3.053 1.36-.34 6.79-1.696 11.88-3.222 5.09-1.527 15.1-4.41 22.05-6.445 14.76-4.07 26.64-9.837 21.21-10.006-4.92-.17-.17-2.714 7.97-4.07 3.57-.679 6.79-1.866 7.47-2.884.68-1.187-1.19-1.356-5.26-.508-4.58.847-6.11.678-5.26-.849.68-1.017.85-1.865.34-1.865-2.21 0-44.45 11.024-58.7 15.264-24.09 7.292-39.19 11.532-44.96 12.889-2.88.509-12.38 3.222-21.21 5.936-8.82 2.544-25.28 6.953-36.47 9.667-39.36 9.667-83.302 22.726-91.954 27.644-5.938 3.223-11.367 4.919-16.117 4.919-7.634 0-10.858.678-31.895 6.444-6.956 1.866-24.939 6.615-39.868 10.515a4803.316 4803.316 0 0 0-40.717 10.855c-23.242 6.783-44.958 12.719-68.709 18.825-12.555 3.392-27.824 7.462-33.931 9.328-14.76 4.409-49.369 13.398-61.923 16.281-5.599 1.187-13.573 3.392-17.814 4.918-4.241 1.527-16.117 4.919-26.296 7.632-10.349 2.544-25.618 6.784-33.931 9.328-8.482 2.544-28.332 8.31-44.11 13.059-15.947 4.579-39.189 11.363-51.744 15.094-12.554 3.731-29.35 8.65-37.323 11.024-7.974 2.544-19.85 5.936-26.297 7.802-6.616 1.865-12.724 4.239-13.572 5.087-2.545 2.714 11.367.34 26.296-4.409 17.305-5.597 22.225-6.614 27.315-6.275 7.464.678 39.359-8.31 41.734-11.533 1.188-1.696 5.09-3.561 8.822-4.24 3.563-.509 8.143-1.526 9.84-2.035 2.205-.678 2.545-.509.679.678-1.867 1.357-1.867 1.696 0 2.375 2.375.848-.679 1.865-49.369 16.451-30.708 9.158-64.129 19.503-72.103 22.387-18.153 6.275-53.101 16.62-55.985 16.451-1.867-.17-7.635.339-12.724.848-8.144 1.017-8.653.848-4.242-.848 2.715-1.018 6.108-3.223 7.295-5.088 1.358-1.696 4.242-3.053 7.295-3.053 2.715 0 4.92-.848 4.92-1.696 0-2.544-2.544-2.205-22.903 3.561-10.179 2.884-22.564 6.276-27.144 7.632-4.751 1.187-18.832 5.427-31.386 9.328-12.554 3.901-31.725 9.498-42.413 12.72-37.833 10.854-53.441 15.603-58.191 17.468-2.715 1.018-9.162 1.866-14.421 1.696l-9.67-.169 19.51-6.614c10.688-3.732 21.037-7.124 22.903-7.802 10.01-3.053 9.84-7.293-.509-7.293h-7.973l8.482-4.24c4.581-2.204 10.01-4.239 11.876-4.239 4.241 0 25.278-7.463 29.52-10.515 2.714-1.866 1.357-2.205-8.992-2.036-14.59.34-41.395 7.463-96.024 25.779-6.955 2.205-22.224 7.123-33.93 10.685-11.706 3.561-28.841 9.158-38.172 12.55-9.331 3.561-24.6 7.971-33.93 10.176-9.332 2.205-20.529 5.088-25.11 6.614-17.474 5.766-23.75 7.632-22.224 6.275 2.545-2.035 22.903-10.006 31.216-12.041 10.349-2.544 14.42-3.901 38.172-11.533 11.197-3.731 26.127-8.48 33.082-10.515 6.956-2.035 32.574-10.176 56.834-17.977 24.43-7.802 44.958-14.246 45.806-14.246.849 0 14.591-4.071 30.538-9.159 15.778-4.918 39.19-12.041 51.744-15.942 53.102-15.942 109.766-33.071 139.964-41.89 17.644-5.258 46.315-13.738 63.62-18.995 17.304-5.088 37.832-11.024 45.806-13.229 7.974-2.035 23.582-6.444 34.779-9.836 35.457-10.176 64.298-18.147 117.061-31.715 11.197-3.053 25.617-6.784 32.234-8.65 14.42-3.9 17.304-4.07 14.081-1.017-1.188 1.357-5.768 2.883-10.179 3.392-4.411.678-12.385 2.713-17.814 4.579-5.429 2.035-17.814 5.427-27.653 7.801-18.493 4.24-30.199 7.632-57.682 16.451-8.822 2.884-17.644 5.088-19.51 4.919-1.867-.17-5.26 1.017-7.635 2.544-3.732 2.544-22.224 8.48-54.289 17.468-12.385 3.392-36.475 10.515-61.923 18.317-9.331 2.713-20.359 5.936-24.6 6.784-4.241 1.017-17.983 5.257-30.537 9.497-12.555 4.41-30.029 9.837-38.851 12.211-8.652 2.205-17.474 5.088-19.51 6.106-3.563 2.035-51.744 18.486-64.807 22.217-3.903 1.187-7.974 2.883-9.331 3.9-1.358 1.018-3.902 2.375-5.599 3.053-1.696.509-2.884 1.527-2.375 1.866.509.509 14.929-3.392 32.064-8.48 17.135-5.258 44.619-13.229 60.906-17.808 16.286-4.748 38.511-11.193 49.199-14.755 10.688-3.392 31.725-9.328 46.655-13.228 14.929-4.071 39.359-10.685 54.289-15.094 51.235-14.755 55.985-16.112 78.888-22.387 12.555-3.392 33.422-9.159 46.316-12.89 12.893-3.561 26.974-7.292 31.385-8.14 4.411-1.018 14.76-3.562 23.243-5.936 8.313-2.375 25.617-6.954 38.172-10.346 12.554-3.222 26.296-6.953 30.537-8.14 4.242-1.357 12.555-3.562 18.662-5.258 17.474-4.749 27.314-7.462 35.967-10.345 4.411-1.527 8.822-2.035 10.009-1.527 1.018.679 2.375.509 3.054-.508.509-.848 13.572-4.749 29.011-8.65 27.314-6.784 37.323-9.497 68.709-17.977 25.618-6.954 105.181-26.288 108.241-26.288 1.52 0 5.26-1.017 8.31-2.374 4.75-2.205 15.95-4.58 51.41-11.194 11.53-2.204 59.54-15.263 66.16-17.807 5.6-2.544 6.96-7.293 1.36-5.258-1.53.679-3.57-.17-4.58-1.526-1.7-2.375-3.57-2.544-12.9-1.018-6.1 1.018-12.55 1.866-14.42 1.696h-3.39l3.39-1.526c1.87-.678 11.37-3.053 21.21-5.088 9.84-2.035 24.43-5.088 32.57-6.784 8.15-1.865 15.95-2.883 17.48-2.374 1.35.678 2.54.17 2.54-1.018 0-1.018 1.36-1.696 2.89-1.526 1.69.17 4.24-.17 5.59-.679 1.36-.508 7.13-1.865 12.73-2.883 5.6-1.187 12.72-3.053 15.78-4.41 4.75-1.865 5.42-2.713 3.9-5.596-2.55-4.58-6.11-5.427-15.1-3.392-11.88 2.714-25.62 5.088-35.12 5.936-4.75.509-10.35 2.035-12.72 3.562-2.89 1.865-9.16 2.883-21.55 3.222-15.1.509-17.47.17-17.47-2.205 0-2.205-1.53-2.544-9.84-1.696-5.26.509-16.63 2.374-24.94 4.41-59.72 13.737-60.23 13.907-64.13 11.871-3.56-2.035-3.39-2.204 3.05-4.24 3.73-1.017 10.52-3.052 15.27-4.24 4.58-1.187 7.13-2.543 5.43-2.883-1.53-.339-2.88-1.696-2.88-3.052 0-1.357-.85-2.375-1.7-2.375-1.02 0-1.7-.848-1.7-1.696 0-2.713 4.41-2.035 11.03 1.866 6.11 3.561 6.28 3.561 23.41.848 9.33-1.696 17.65-3.223 18.33-3.562.5-.508 14.59-3.392 31.04-6.784 16.46-3.222 31.56-6.783 33.42-7.631 1.87-1.018 3.91-1.527 4.58-1.188 2.21 1.527 21.55-2.204 26.98-5.087 11.37-6.106 6.28-6.954-17.31-3.053-22.39 3.73-28.16 3.222-14.42-1.188 6.11-1.865 12.56-4.07 14.42-4.918 1.87-.678 8.66-1.865 15.27-2.374 6.45-.679 16.12-2.035 21.21-3.392 18.49-4.41 19-4.41 17.81-2.374zm32.24 32.053c.51.848 1.69 1.696 2.71 1.696.85 0 1.53-.848 1.53-1.696 0-1.017-1.19-1.695-2.72-1.695-1.35 0-2.03.678-1.52 1.695zm-16.12 3.392c0 .848.34 1.696.68 1.696.51 0 1.36-.848 1.86-1.696.51-1.017.17-1.696-.67-1.696-1.02 0-1.87.679-1.87 1.696zm-107.73 1.696c-.51.848.51 1.696 2.38 1.696 1.86 0 3.9-.848 4.41-1.696.51-1.017-.51-1.696-2.38-1.696-1.86 0-3.9.679-4.41 1.696zm77.19 44.096c0 .848.85 1.696 1.87 1.696.85 0 1.19-.848.68-1.696-.51-1.018-1.36-1.696-1.87-1.696-.34 0-.68.678-.68 1.696zm-20.19 2.713c-1.52 1.696 9-1.017 10.69-2.883 1.02-.848-.68-.848-4.07.17-3.05.848-5.94 2.035-6.62 2.713zm90.09 29.001c-1.02 3.223 4.24 2.714 5.43-.509.68-1.865.17-2.374-1.87-2.035-1.52.34-3.05 1.527-3.56 2.544zm7.29 3.901c-.5.848.17 1.696 1.53 1.696 1.53 0 2.72-.848 2.72-1.696 0-1.018-.68-1.696-1.53-1.696-1.02 0-2.21.678-2.72 1.696zm-123.84 13.568c-6.96 1.865-10.01 3.222-7.3 3.222 4.92.17 24.43-3.731 32.75-6.614 8.82-2.883-12.05-.339-25.45 3.392zm119.6 11.872c0 .848 1.19 1.696 2.55 1.696 1.36 0 2.54-.848 2.54-1.696 0-1.018-1.18-1.696-2.54-1.696s-2.55.678-2.55 1.696zm-438.55 10.175c-2.205 1.018-2.544 1.527-.848 1.527 1.357 0 3.733-.679 5.09-1.527 3.054-2.035.339-2.035-4.242 0zm-18.492 6.954c.679 1.357-.509 1.526-3.732.848-3.054-.678-10.858.509-20.189 2.883-67.013 17.808-81.094 22.048-83.639 24.592-1.696 1.696-9.5 4.409-17.304 6.105-7.974 1.696-20.189 4.749-27.145 6.614-6.956 1.696-21.206 5.088-31.386 7.293-10.348 2.205-27.144 6.614-37.323 9.837-10.349 3.222-23.582 7.123-29.69 8.649-18.831 4.749-107.051 30.189-158.625 45.791-58.87 17.808-73.63 22.218-90.764 27.136-10.689 2.883-22.564 6.614-26.127 8.141-3.563 1.696-10.858 3.392-16.117 3.9-10.01 1.188-48.69 11.533-51.744 14.077-1.018.848-4.751 2.035-8.483 2.544-10.009 1.866-15.438 4.24-13.572 6.105 1.187 1.188 5.259.679 11.876-1.356 40.547-12.89 62.602-18.995 67.352-18.995 2.375 0 4.75-.679 5.259-1.527.509-.848 4.581-2.035 8.992-2.713 9.5-1.357 51.744-12.381 75.156-19.504 8.822-2.713 20.358-6.105 25.448-7.462 5.089-1.357 27.314-7.802 49.199-14.246 21.885-6.615 63.111-18.486 91.613-26.627 28.502-8.141 61.245-17.299 72.951-20.691 11.706-3.392 23.412-6.614 26.296-7.293 2.714-.678 26.126-6.953 51.744-14.076 25.618-6.954 55.816-15.094 67.013-18.147 34.1-8.819 57.343-15.433 65.316-18.317 7.126-2.544 7.295-2.713 3.393-3.9-6.277-1.696-7.125-1.696-5.768.339zm420.402 42.23c-2.55 1.017-4.07 2.204-3.56 2.713 1.35 1.527 11.36-1.017 11.36-2.883 0-2.035-2.03-1.866-7.8.17zm-288.412 9.497c-50.217 12.72-120.623 31.206-142.339 37.142-11.197 3.222-36.475 10.006-55.985 15.264-19.68 5.257-39.02 10.515-43.262 11.871-4.241 1.188-18.661 5.088-32.234 8.48-29.18 7.463-54.289 14.246-83.13 22.387-11.706 3.222-31.046 8.48-43.261 11.533-36.136 9.158-140.812 40.194-143.018 42.399-2.035 1.866 4.581.509 20.868-4.41 29.18-8.819 46.145-13.567 81.433-22.895 13.063-3.392 30.198-7.971 38.172-10.006 7.974-2.205 20.528-5.427 27.993-7.293 7.465-2.035 23.412-6.106 35.627-9.328 12.045-3.222 27.823-6.784 34.779-7.971 22.564-3.731 37.832-6.784 54.289-11.193 19.171-5.258 34.1-9.159 62.771-16.791a13938.028 13938.028 0 0 0 66.165-17.468c24.769-6.445 52.253-13.568 61.075-15.603 8.822-1.866 19.85-4.749 24.6-5.936 4.58-1.357 26.635-6.953 48.859-12.72 22.23-5.596 41.4-10.684 42.41-11.363 1.87-1.356-7.8-3.052-20.18-3.561-2.72-.17-18.84 3.222-35.632 7.462zm296.212 4.07c0 .848.68 1.696 1.53 1.696 1.02 0 2.2-.848 2.71-1.696.51-1.017-.17-1.696-1.52-1.696-1.53 0-2.72.679-2.72 1.696zm-18.15 1.018c.51.509 2.04.678 3.22.17 1.36-.509.85-1.018-1.01-1.018-1.87-.17-2.89.339-2.21.848zm-20.87 7.632c-16.96 2.713-96.36 19.164-113.33 23.404-7.29 2.035-29.01 6.954-47.84 11.194-32.06 7.123-175.759 43.077-196.796 49.183-5.089 1.526-12.724 3.561-16.965 4.579-4.241.848-8.483 2.544-9.331 3.392-1.187 1.187-.509 1.526 1.697.848 1.866-.509 7.634-1.866 12.724-3.053 5.089-1.017 29.18-7.123 53.44-13.398 94.501-24.422 218.511-53.423 222.411-51.897 1.19.509 2.38.17 2.72-.678.51-1.696 16.96-5.597 59.04-13.568 14.42-2.883 27.65-5.427 29.35-5.766 1.52-.339 2.54 0 2.03.678-1.69 2.714 1.87 3.223 9 1.357 3.9-1.018 7.12-2.544 7.12-3.392 0-1.018 1.53-1.357 3.39-.848 1.87.509 3.4.17 3.4-.678 0-.848 5.09-1.357 11.36-1.188 8.49.34 11.37 0 12.05-1.865.68-2.035-2.04-2.205-15.95-1.357-9.33.509-22.56 1.866-29.52 3.053zm-94.49 2.544c.5.509 2.03.678 3.22.169 1.36-.508.85-1.017-1.02-1.017-1.87-.17-2.88.339-2.2.848zm134.7 5.257c1.19.34 3.22.34 4.24 0 1.19-.508.34-.848-2.03-.848-2.38 0-3.23.34-2.21.848zm13.4 5.427c-.51.679 1.02 1.018 3.23.509 2.37-.339 4.24-1.017 4.24-1.357 0-1.356-6.62-.678-7.47.848zm-19.68 4.58c0 .339 1.19.678 2.55.678 1.35 0 2.54-.678 2.54-1.696 0-.848-1.19-1.187-2.54-.678-1.36.678-2.55 1.356-2.55 1.696zm-594.97-1.696c.509.508 2.036.678 3.223.169 1.357-.509.848-1.017-1.018-1.017-1.866-.17-2.884.339-2.205.848zm258.212 12.38c-37.833 10.176-93.31 27.475-95.854 30.019-1.188 1.357 6.616-.678 26.296-6.445 9.331-2.713 25.787-7.462 36.475-10.684 42.414-12.042 54.459-16.112 47.333-16.112-1.357 0-7.804 1.526-14.25 3.222zm-328.279 6.954c-2.375.848-11.876 3.392-21.207 5.766-9.33 2.374-20.019 5.427-23.751 6.953l-6.786 2.544 7.634-1.017c4.242-.679 13.742-2.883 21.207-5.258 7.465-2.204 17.305-5.088 22.055-6.444 4.58-1.188 10.349-3.053 12.724-4.071 3.902-1.696 3.732-1.865-1.697-.848-3.223.509-7.804 1.527-10.179 2.375zm544.587 22.047c-3.39 1.018-3.56 1.357-.85 1.357 1.87 0 4.92-.509 6.79-1.357 4.24-1.865-.17-1.865-5.94 0zm-737.482 9.328c-7.295 3.053-6.278 5.088 1.866 3.562 6.447-1.187 12.045-6.106 7.125-6.106-1.527 0-5.598 1.187-8.991 2.544zm684.382 3.731c1.19.339 3.22.339 4.24 0 1.19-.508.34-.848-2.04-.848-2.37 0-3.22.34-2.2.848zm-7.47 1.527c.51.508 2.04.678 3.23.169 1.35-.509.84-1.017-1.02-1.017-1.87-.17-2.89.339-2.21.848zm-701.173 2.374c-2.205 1.526-2.205 1.696 0 1.696 1.357 0 3.733-.848 5.09-1.696 2.205-1.526 2.205-1.696 0-1.696-1.357 0-3.733.848-5.09 1.696zm685.903 1.018c.51.508 2.04.678 3.23.169 1.35-.509.85-1.017-1.02-1.017-1.87-.17-2.88.339-2.21.848zm-303.335.678c-2.206 1.018-2.545 1.526-.849 1.526 1.358 0 3.733-.678 5.09-1.526 3.054-2.035.339-2.035-4.241 0zm283.485 3.392c-13.91 3.561-20.01 6.275-9.5 4.24 9-1.696 28.34-7.293 25.45-7.462-1.35 0-8.65 1.356-15.95 3.222zm-296.209 0c-1.357.848-1.866 1.696-.848 1.696.848 0 2.884-.848 4.241-1.696 1.357-.848 1.696-1.696.848-1.696-1.018 0-2.884.848-4.241 1.696zm-386.809 3.392c-2.036 1.357-1.866 1.696 1.188 1.696 2.205 0 3.902-.848 3.902-1.696 0-2.205-1.867-2.205-5.09 0zm359.664 3.392c-1.866 1.357-1.187 1.526 2.545.678 6.277-1.357 7.634-2.374 3.223-2.374-1.696 0-4.41.848-5.768 1.696zm102.64 10.176l-3.393 1.526h3.393c1.867 0 4.581-.678 5.938-1.526 2.206-1.527 2.206-1.696 0-1.527-1.357 0-4.071.679-5.938 1.527zm140.812 3.392c-4.241 1.865.17 1.865 5.938 0 3.393-1.018 3.563-1.357.848-1.357-1.866 0-4.919.509-6.786 1.357zm-613.295 7.462c0 .339 1.187 1.017 2.545 1.696 1.357.509 2.544.169 2.544-.679 0-1.017-1.187-1.695-2.544-1.695-1.358 0-2.545.339-2.545.678zm528.638 7.801c-2.544 2.544 1.867 2.036 10.858-.848l7.635-2.544-8.483.848c-4.581.509-9.161 1.696-10.01 2.544zm-127.07 1.188c1.188.339 3.224.339 4.242 0 1.187-.509.339-.848-2.036-.848s-3.224.339-2.206.848zm-23.072 5.427c-1.697 1.017-1.697 1.696-.17 2.713 2.545 1.696 10.518-.509 9.331-2.544-1.357-2.035-5.938-2.205-9.161-.169zm-327.091 21.539c.848.847 9.67-2.205 9.67-3.392 0-.509-2.375 0-5.259 1.017-2.715 1.018-4.751 2.035-4.411 2.375zm863.192 22.556c2.55.848 3.73-1.018 2.38-3.222-1.02-1.527-1.7-1.527-2.72.169-.85 1.357-.68 2.544.34 3.053zm-26.8 2.883c.51.509 2.03.678 3.22.17 1.36-.509.85-1.018-1.02-1.018-1.86-.169-2.88.339-2.2.848zm31.55 16.621c2.04 2.374 8.65 1.865 8.65-.848 0-1.188-8.48-3.053-10-2.036-.34.17.16 1.527 1.35 2.884zm-3.22 2.713c0 .848.34 1.696.68 1.696.51 0 1.35-.848 1.86-1.696.51-1.017.17-1.696-.67-1.696-1.02 0-1.87.679-1.87 1.696z" fill="#FF4700"/></svg>