<svg width="1021" height="346" viewBox="0 0 1021 346" fill="none" xmlns="http://www.w3.org/2000/svg">
<path d="M142.667 2.58884C142.667 4.0555 141.333 7.6555 139.733 10.5888C136.8 15.7888 136.4 15.9222 131.333 15.1222C128.133 14.7222 124.933 13.1222 123.333 11.2555C119.2 6.45549 113.867 5.12217 97.0667 4.8555C82 4.4555 78.2667 5.2555 86.9333 6.98883C89.8667 7.52216 90.6667 8.32216 89.8667 9.12216C88.9333 10.0555 87.3333 10.0555 84.8 9.12216C80.1333 7.38883 70.6667 7.38883 70.6667 9.12216C70.6667 9.92216 72.2667 11.2555 74.1333 12.0555C76.8 13.2555 77.7333 13.2555 78.5333 12.0555C79.6 10.1888 88.1333 11.5222 92.8 14.1888C95.3333 15.6555 95.3333 15.6555 92.6667 15.9222C91.2 16.0555 89.4667 15.9222 88.6667 15.7888C88 15.5222 84.5333 15.5222 81.2 15.6555C76.1333 15.7889 74.2667 15.2555 70.8 12.1888C68.5333 10.1888 66.6667 7.78883 66.6667 6.72217C66.6667 3.52217 61.6 7.52216 56 15.1222C53.0667 18.9888 49.6 22.5888 48.2667 22.9888C46.6667 23.5222 44.8 26.9888 42.8 33.1222C41.0667 38.3222 39.2 42.8555 38.5333 43.2555C35.2 45.2555 38.2667 46.4555 46.4 46.4555C60.1333 46.4555 73.7333 48.0555 71.7333 49.3889C70.4 50.1889 70.8 50.7222 73.0667 51.2555C78.6667 52.8555 76 54.4555 68 54.4555C63.6 54.4555 60 53.9222 60 53.1222C60 52.3222 61.4667 51.7888 63.3333 51.7888C65.2 51.7888 66.6667 51.1222 66.6667 50.4555C66.6667 49.6555 62.6667 49.2555 57.0667 49.2555C51.7333 49.3889 48.6667 49.7888 50.4 50.0555C52 50.3222 53.3333 51.2555 53.3333 51.9222C53.3333 53.6555 44.2667 53.2555 38.6667 51.3889C32.8 49.2555 30.6667 49.7888 27.6 53.9222L25.2 57.1222H29.3333C34.6667 57.1222 34.5333 59.7888 29.0667 60.0555C26.6667 60.1888 32.5333 60.7222 42 61.1222C60.2667 62.0555 106.533 65.7889 118.4 67.2555C127.333 68.3222 127.6 71.1222 118.667 71.1222C115.067 71.1222 112 70.5888 112 69.9222C112 69.3888 110.533 69.2555 108.667 69.6555C106.8 70.1889 105.333 69.9222 105.333 69.2555C105.333 68.5889 102.667 67.7889 99.3333 67.5222C95.2 67.2555 93.3333 67.6555 93.3333 68.7222C93.3333 71.2555 90.5333 70.8555 88.5333 68.0555C87.2 66.4555 86.4 66.1889 85.7333 67.2555C85.0667 68.1889 80.9333 69.2555 76.5333 69.7888C68.9333 70.5888 68.2667 70.4555 67.6 67.9222C66.8 64.8555 61.8667 64.0555 61.0667 66.7222C60.6667 67.9222 58.4 67.7888 52.2667 65.9222C45.6 63.7888 41.6 63.5222 30.6667 64.1888C19.6 64.8555 17.0667 64.7222 16.4 63.1222C15.6 60.9889 12 60.3222 12 62.4555C12 63.1222 12.9333 64.1888 14.1333 64.8555C16.1333 66.0555 16.1333 66.4555 13.8667 70.3222C12.5333 72.5888 10.9333 74.4555 10.2667 74.4555C9.73333 74.4555 9.6 74.9888 10 75.7888C10.4 76.4555 12 77.1222 13.4667 77.1222C14.9333 77.1222 15.7333 77.7888 15.3333 78.4555C14.8 79.2555 13.8667 79.5222 13.2 78.9888C11.3333 77.9222 6.26667 90.1888 7.06667 93.9222C7.33333 95.6555 7.06667 96.7222 6.53333 96.3222C5.86667 95.9222 5.33333 97.1222 5.33333 98.9888C5.33333 100.722 4.13333 106.056 2.66667 110.722C1.2 115.256 0 122.056 0 125.789C0 133.656 4 153.389 8.66667 168.456C12.4 180.456 21.0667 196.456 24 196.456C25.0667 196.456 27.0667 199.922 28.8 205.122C30.6667 210.456 33.3333 215.122 35.7333 217.256C38.1333 219.389 40 222.722 40.5333 225.789C41.4667 230.322 41.6 230.589 43.3333 228.322C44.4 226.856 45.3333 226.456 45.3333 227.389C45.3333 228.189 45.7333 229.922 46.2667 231.256C46.9333 233.122 46.5333 233.389 44.2667 232.856C41.8667 232.189 41.3333 232.722 40.5333 236.589C39.6 241.922 40.9333 253.122 42.6667 253.122C43.2 253.122 43.6 250.189 43.6 246.589C43.4667 242.856 44 239.256 44.9333 238.322C46.1333 237.122 46.4 239.522 45.8667 249.389C45.3333 260.722 45.6 262.322 48.1333 265.256C49.6 266.989 51.6 268.456 52.4 268.456C53.2 268.456 54.4 270.456 55.2 272.722C55.8667 275.122 56.9333 277.122 57.4667 277.122C58.1333 277.122 58.6667 277.922 58.6667 278.989C58.6667 280.056 61.2 281.789 64.2667 282.989C68.6667 284.856 70 284.989 70.8 283.522C71.7333 282.189 72 282.189 72 283.389C72 284.722 74.8 284.989 82.4 284.856C90 284.722 94.1333 285.256 98.4 287.256C104.267 289.922 106.133 292.589 101.067 291.122C97.7333 290.056 97.8667 290.056 93.6 290.322C84.9333 290.722 99.6 294.856 110.933 295.122C114.667 295.122 114.8 296.589 111.333 298.456C108.8 299.789 106.933 299.922 103.067 298.722C100.267 297.922 96.5333 296.856 94.8 296.322L91.6 295.522L94.6667 299.656C96.2667 302.056 97.3333 304.322 96.8 304.722C95.7333 305.922 84 302.456 78.4 299.256L73.4667 296.456L70.6667 299.522L67.7333 302.589L71.2 305.922C75.4667 310.189 81.7333 311.656 95.7333 311.789C105.067 311.789 107.067 312.189 109.467 314.589C111.2 316.322 114.667 317.789 118.133 318.189C121.467 318.456 123.6 319.389 123.2 320.056C122.667 320.856 120.133 321.122 117.467 320.722L112.667 319.922L116.533 323.256C121.2 327.389 120 329.122 114.8 326.056C110.533 323.522 105.333 322.989 105.333 325.122C105.333 325.789 106.533 326.456 108 326.456C111.6 326.456 111.333 328.456 107.733 330.056C104.8 331.256 105.067 331.522 111.333 335.522C118.533 340.056 121.2 340.722 123.733 338.189C125.467 336.456 139.867 338.189 153.6 341.656C157.467 342.722 163.333 343.922 166.667 344.322L172.667 345.122L166.267 343.122C162.8 341.922 160.267 340.456 160.667 339.789C161.067 339.122 168.4 338.856 177.733 339.256C186.667 339.656 197.867 340.056 202.667 340.189C207.467 340.456 214.667 340.989 218.667 341.656L226 342.589L220.133 339.922C216.933 338.322 210.933 336.056 206.8 334.856C200.8 333.122 199.867 332.589 202 331.656C205.6 330.322 214.4 330.189 215.2 331.522C215.6 332.189 220 333.789 224.933 335.122C229.867 336.322 236 338.589 238.4 339.922C241.733 341.789 242.667 341.922 242.667 340.589C242.667 339.522 241.733 338.322 240.533 337.922C236.667 336.456 240.133 334.189 245.067 334.989C253.067 336.189 248 333.522 236.667 330.456C222.933 326.722 217.067 324.856 215.2 323.522C213.333 322.189 201.733 319.122 193.6 317.789C190 317.256 187.2 317.389 186.133 318.322C184.8 319.522 184.133 319.389 183.467 317.789C182.667 315.522 169.867 314.856 169.067 316.989C168.533 318.589 136.533 316.322 130.4 314.189C126 312.722 128.533 312.456 149.733 312.589C163.067 312.722 179.333 313.389 185.867 314.189C192.533 314.989 198.133 315.389 198.533 315.122C198.8 314.722 198.4 314.456 197.6 314.456C196.667 314.456 196 313.789 196 313.122C196 312.322 198.267 312.056 201.733 312.456L207.333 313.122L202 310.722C199.067 309.256 193.867 307.789 190.267 307.256C186.667 306.722 184.267 305.656 184.8 304.989C185.733 303.522 197.333 304.722 199.333 306.589C200 307.256 210.267 307.789 222.267 307.789C240.8 307.789 274.4 310.722 289.333 313.789C291.2 314.189 289.067 312.589 284.667 310.456L276.667 306.456L286 306.989C291.2 307.389 297.467 308.056 300 308.456C303.467 309.122 304.133 308.989 302.533 307.922C301.467 307.256 299.067 306.322 297.2 305.922C290.267 304.456 278.133 300.056 280.8 299.922C285.6 299.656 285.6 297.922 281.067 294.189L276.667 290.589L281.067 290.456C283.467 290.456 286.533 289.922 287.733 289.256C289.067 288.589 293.867 288.856 299.333 289.922C324.533 294.589 337.067 296.989 341.733 297.789C355.733 300.456 338.667 292.589 320.667 287.922C317.733 287.256 312.8 285.922 309.6 285.122C302.4 283.256 295.6 277.122 298.267 274.722C299.467 273.389 302 273.389 308.267 274.456C318.933 276.189 318.267 276.189 319.067 273.122C319.867 269.922 322 269.789 333.067 272.456C337.6 273.522 346.267 274.989 352.4 275.789C358.4 276.589 364.933 277.522 367.067 277.922C369.067 278.456 370.667 278.189 370.667 277.389C370.667 275.922 362.933 273.256 345.333 269.122C338.4 267.389 329.6 264.989 326 263.789C322.267 262.456 316.4 260.989 312.933 260.456C307.867 259.656 306.667 258.989 306.667 256.856C306.667 254.589 307.333 254.322 310.4 254.856C312.4 255.389 320.933 256.856 329.333 258.456C337.733 259.922 348.4 261.922 353.067 262.856C357.6 263.922 361.333 264.189 361.333 263.522C361.333 262.989 361.067 262.456 360.667 262.456C357.6 262.456 333.6 256.589 332.4 255.522C329.467 253.122 330.533 251.789 334.933 251.789C337.2 251.789 338.8 251.389 338.4 250.989C337.333 250.056 319.2 245.922 297.333 241.789C273.733 237.389 273.333 237.256 273.333 235.922C273.333 235.256 274.4 234.989 275.733 235.256C297.333 239.789 321.2 242.589 343.333 243.122C353.733 243.389 363.067 244.856 387.2 250.456C405.2 254.589 404.933 252.989 386.667 246.856C385.067 246.322 385.067 246.056 386.4 245.522C388.8 244.589 398.133 246.456 431.333 254.456C466.667 262.989 483.867 266.322 496 266.989C506.933 267.656 506.4 266.456 494.533 263.256C462.533 254.456 456.667 252.722 456.267 251.656C456 250.989 454.133 250.456 452 250.456C447.6 250.456 434.267 247.922 414 243.122C406 241.122 388.8 237.256 376 234.456C341.733 226.989 333.333 224.856 333.333 223.522C333.333 222.989 333.6 222.456 334 222.456C336.533 222.456 429.2 243.389 432.933 244.722C433.867 245.122 434.667 244.456 434.667 243.256C434.667 240.056 434.4 240.056 471.333 248.322C476.4 249.522 483.067 250.456 486.133 250.456C489.067 250.456 501.067 252.856 512.667 255.789C533.333 260.989 537.6 261.389 534.533 257.656C533.2 256.056 534.267 255.922 541.467 256.722L550 257.522L545.733 253.922C540.4 249.522 540 246.456 544.667 246.456C546.533 246.456 549.2 245.789 550.533 244.856C553.6 242.989 565.6 245.256 588 251.656C595.733 253.922 603.467 255.789 605.333 255.656H608.667L605.333 254.189C603.467 253.389 599.067 251.389 595.333 249.656C588.133 246.456 572.667 242.589 427.333 208.056C414.933 204.989 402.4 202.189 399.6 201.656C394.267 200.722 391.467 198.456 395.733 198.456C397.067 198.456 400 198.989 402.133 199.656C404.267 200.322 410.533 201.922 416 203.122C421.467 204.322 439.467 208.589 456 212.589C499.2 223.122 578.8 242.189 582.667 242.856C586.267 243.522 600.8 247.922 610.533 251.122C616 252.989 620.4 252.856 615.467 250.989C610.933 249.256 613.467 247.656 619.333 248.589C622.667 248.989 625.333 249.122 625.333 248.722C625.333 247.789 603.467 240.189 590 236.589C583.467 234.856 573.467 232.056 568 230.456C552.267 225.922 494.8 211.522 456 202.456C422.267 194.589 409.067 190.589 422.667 192.456C429.867 193.389 483.467 206.322 522 216.456C596.667 236.056 602.133 237.256 608.267 235.922C612.533 234.856 615.867 234.989 621.333 236.456C630 238.722 653.333 243.922 669.333 247.256C675.6 248.456 690.267 252.456 702 256.056C713.733 259.656 725.2 262.589 727.333 262.722C729.6 262.722 734 263.389 737.067 264.189C741.6 265.256 743.2 265.122 744 263.789C744.533 262.856 746.4 262.189 748.133 262.189C753.067 262.189 785.333 270.456 788.533 272.456C794.933 276.589 815.733 284.722 821.333 285.389C824.667 285.789 838.933 290.722 853.067 296.456C867.2 302.056 879.067 306.456 879.467 306.056C880.267 305.256 874 300.989 866.667 297.656L860.667 294.856L866.667 293.922C870.8 293.256 875.467 293.656 880.933 294.989C898.133 299.522 892.267 296.189 871.733 289.656C854.533 284.322 850 282.589 850.933 281.789C851.333 281.389 856 282.589 861.467 284.456C874.933 289.122 877.867 287.922 864.933 283.256C859.333 281.122 854.8 279.256 854.933 278.989C855.2 278.856 859.6 279.789 864.667 281.122C889.467 287.922 905.333 292.456 911.867 294.722C915.867 296.056 919.333 296.856 919.733 296.589C920 296.189 917.467 294.189 914.133 292.189C910.667 290.056 908.267 288.056 908.667 287.656C909.2 286.989 902.133 282.989 888.667 276.056C884.533 274.056 882.667 272.189 882.667 270.456C882.667 268.989 883.6 267.789 884.667 267.789C889.6 267.789 908.8 274.056 923.867 280.589C935.6 285.656 941.333 287.389 944 286.989C947.6 286.189 957.467 290.189 959.333 293.122C960.533 295.122 962.667 294.722 962.667 292.456C962.667 291.389 961.067 289.522 959.067 288.189C956.933 286.856 954 284.589 952.533 282.989L949.733 280.056L953.733 279.256C957.867 278.456 970.533 281.789 972 283.922C972.533 284.589 974.933 285.389 977.333 285.922C981.733 286.589 981.867 286.589 979.467 284.589C978 283.389 976 282.456 974.933 282.456C973.867 282.456 971.6 281.256 969.867 279.922C967.333 277.922 967.067 277.256 968.667 276.589C969.733 276.189 972.667 276.189 975.067 276.456C978.267 276.989 976.933 276.056 970 272.589C960.533 268.056 948.933 258.322 951.867 257.389C952.667 257.122 952.933 256.322 952.533 255.522C951.867 254.589 952.933 254.322 955.467 254.989C957.6 255.522 961.467 256.189 964 256.322C968.667 256.722 976.8 259.522 973.6 259.656C971.067 259.789 972.8 262.056 976 262.856C977.467 263.256 978.4 262.989 977.867 262.322C976.8 260.456 979.733 260.856 984.133 263.256C986.4 264.322 990.4 265.122 993.067 264.856L998 264.322L994.4 262.722C991.067 261.389 989.2 258.456 991.733 258.456C992.8 258.456 1007.2 262.989 1011.07 264.456C1012.8 265.122 1013.33 264.722 1013.33 262.589C1013.33 260.989 1012.53 259.656 1011.73 259.656C1010.8 259.522 1012.4 258.989 1015.33 258.589L1020.67 257.789L1010.4 254.056C1004.8 251.922 999.2 249.122 997.867 247.656C996.667 246.322 994.533 245.122 993.2 245.122C991.867 245.122 990.4 244.456 990 243.789C989.6 242.989 990 242.456 990.933 242.456C994 242.456 988.933 239.789 985.867 239.789C984.267 239.789 982.267 238.856 981.333 237.789C980 236.189 980.133 235.789 982.133 235.656C983.6 235.656 982.667 234.856 980 233.922C977.333 232.989 974.667 232.722 973.733 233.389C971.2 235.389 960.4 232.056 956 227.922C954.933 226.856 952.133 225.256 949.6 224.189C947.2 223.256 944.933 221.522 944.4 220.456C944 219.389 942.533 218.456 941.2 218.456C939.867 218.456 938 217.256 937.067 215.789C936.133 214.322 934.533 213.122 933.467 213.122C931.467 213.122 903.467 204.056 899.467 202.189C897.067 200.989 856.8 186.856 840 181.389C835.2 179.789 826.267 176.722 820 174.589C813.733 172.456 797.867 167.256 784.667 163.122C753.867 153.389 740.8 148.989 746.667 149.922C749.2 150.456 757.6 152.856 765.2 155.389C772.8 157.789 779.733 159.656 780.533 159.389C781.333 159.122 776.533 157.122 770 154.856C763.333 152.589 740 144.456 718 136.722C685.2 125.122 638 109.922 598 97.7888C585.333 93.9222 574.667 91.6555 573.333 92.4555C572.533 92.8555 572 92.7222 572 92.0555C572 91.3888 569.2 90.3222 565.733 89.7888C562.133 89.3888 558.133 88.1889 556.667 87.2555C555.2 86.3222 552.533 85.2555 550.667 84.8555C547.067 84.0555 518.933 75.9222 506.667 72.1888C502.667 70.9888 495.467 69.2555 490.667 68.3222C478.133 65.9222 460.267 61.3888 444 56.4555C440 55.2555 433.733 53.7889 430 53.1222C426.4 52.5889 416.133 50.4555 407.333 48.4555C385.067 43.5222 364.267 39.7888 359.333 39.7888C357.067 39.7888 354.667 39.2555 354 38.5888C353.2 37.9222 350.133 36.9888 347.067 36.4555C342.267 35.6555 341.333 35.9222 341.333 37.6555C341.333 38.8555 340.8 39.7888 340 39.7888C339.333 39.7888 338.667 38.5889 338.667 37.2555C338.667 35.2555 337.333 34.4555 333.067 33.6555C329.867 33.1222 326.4 32.4555 325.333 32.3222C324.267 32.0555 319.467 31.3888 314.667 30.5888C309.867 29.9222 300.267 28.0555 293.333 26.5888C286.4 24.9888 275.333 22.8555 268.667 21.7888C262.133 20.7222 251.867 18.9888 246 17.9222C228 14.7222 222.667 14.1889 222.667 15.6555C222.667 16.4555 221.6 17.1222 220.133 17.1222C217.2 17.1222 210.4 13.7888 211.333 12.8555C212.4 11.7888 197.6 9.12216 190.4 9.12216C186.667 9.12216 184 9.78884 184 10.5888C184 11.3888 183.2 11.7889 182.4 11.3889C181.467 11.1222 180.8 10.1889 180.933 9.38885C181.067 8.58885 178.667 7.6555 175.6 7.12216C172.533 6.58883 167.333 5.25551 164.133 4.05551C158.8 2.18884 158.267 2.18884 157.067 4.18884C155.333 7.38884 151.067 6.98883 147.2 3.12216C143.2 -0.877838 142.667 -1.01116 142.667 2.58884ZM148 11.2555C148 12.3222 147.467 12.8555 146.667 12.4555C146 12.0555 145.333 11.1222 145.333 10.3222C145.333 9.65551 146 9.12216 146.667 9.12216C147.467 9.12216 148 10.0555 148 11.2555ZM196 11.7888C196 12.4555 195.2 13.1222 194.133 13.1222C193.067 13.1222 191.733 12.4555 191.333 11.7888C190.933 10.9888 191.733 10.4555 193.2 10.4555C194.8 10.4555 196 10.9888 196 11.7888ZM65.0667 14.7222C64.4 16.7222 58.6667 17.9222 58.6667 16.0555C58.6667 14.1888 60.2667 13.1222 63.0667 13.1222C64.4 13.1222 65.3333 13.7888 65.0667 14.7222ZM57.3333 33.1222C57.3333 33.7888 56.8 34.4555 56.1333 34.4555C55.3333 34.4555 54.4 33.7888 54 33.1222C53.6 32.3222 54.1333 31.7888 55.2 31.7888C56.4 31.7888 57.3333 32.3222 57.3333 33.1222ZM314.667 32.3222C314.667 32.7222 314.133 33.3888 313.333 33.7888C312.667 34.1888 312 33.9222 312 33.2555C312 32.4555 312.667 31.7888 313.333 31.7888C314.133 31.7888 314.667 32.0555 314.667 32.3222ZM270.267 35.2555C269.867 35.6555 268.667 35.7889 267.733 35.3889C266.667 34.9889 267.067 34.5888 268.533 34.5888C270 34.4555 270.8 34.8555 270.267 35.2555ZM138.667 38.9888C200.533 44.3222 229.6 48.3222 293.333 59.9222C301.733 61.3888 313.467 63.5222 319.333 64.4555C337.733 67.6555 358 71.9222 409.333 83.2555C468.933 96.4555 551.867 116.856 560.267 120.322C563.067 121.522 566.667 122.456 568.4 122.456C575.2 122.456 708.8 158.056 741.333 168.456C744.667 169.522 757.2 173.389 769.333 177.122C801.2 186.989 818.8 193.256 817.867 194.589C817.467 195.256 818.133 195.389 819.333 194.989C820.667 194.456 822.533 195.256 824.133 196.989C826 198.989 828.4 199.789 832.4 199.789C836 199.789 837.333 200.189 836.267 200.989C834.933 201.789 835.067 202.322 837.2 202.856C838.8 203.256 840 202.989 840 202.189C840 201.389 841.6 201.922 843.6 203.122C845.6 204.456 849.333 205.789 851.867 206.056C855.733 206.456 860.4 208.189 871.333 213.122C872.8 213.789 877.733 215.522 882.267 217.122C894.8 221.122 905.333 226.456 905.333 228.722C905.333 232.989 885.467 228.722 856 218.189C852 216.722 843.867 214.056 838 212.322C832.133 210.589 826.133 208.589 824.667 207.922C818.267 204.989 748.4 184.989 722 178.456C713.2 176.322 703.6 173.922 700.667 173.122C682.267 168.189 652.8 161.122 652.4 161.522C652.133 161.789 656.533 163.389 662.133 164.989C667.733 166.589 672 168.189 671.6 168.589C671.2 168.989 663.2 167.256 653.733 164.589C644.4 162.056 631.867 158.722 626 157.389C620.133 155.922 607.2 152.589 597.333 149.922C549.467 137.256 454.133 114.722 384 99.2555C349.733 91.7888 337.333 88.4555 340.267 87.5222C342.667 86.7222 342.4 86.5888 339.067 86.9888C336.667 87.1222 334.667 86.8555 334.667 86.1888C334.667 85.5222 331.867 85.3888 328.533 85.9222C324 86.5888 322.533 86.4555 323.2 85.2555C323.867 84.3222 322.933 84.0555 320.267 84.5888C318 85.1222 316 84.7222 315.467 83.9222C314.933 83.1222 312.8 82.4555 310.667 82.4555C308.667 82.4555 306.667 81.9222 306.4 81.2555C306.267 80.5889 303.333 79.6555 300 79.2555C287.467 77.7889 250.933 69.6555 248.8 67.9222C247.467 66.8555 243.067 66.0555 237.467 65.9222C232.4 65.7888 227.467 64.9888 226.4 64.1888C224.933 62.9888 211.6 60.7222 203.333 60.4555C201.867 60.3222 199.733 59.9222 198.667 59.3889C197.6 58.9889 192.8 57.6555 188.133 56.4555C181.333 54.7222 179.333 54.5888 178.533 55.9222C177.733 57.3888 176.933 57.2555 175.067 55.6555C172.667 53.5222 167.067 52.3222 135.333 47.7888C120.133 45.5222 103.467 42.1888 97.3333 40.3222C95.6 39.6555 95.6 39.5222 97.3333 38.4555C100.133 36.5888 113.2 36.8555 138.667 38.9888ZM377.333 44.9888C377.333 47.3888 374.933 47.7888 373.333 45.7888C372 44.0555 372.133 43.7888 374.533 43.7888C376 43.7888 377.333 44.3222 377.333 44.9888ZM327.733 46.9888C333.067 48.0555 337.867 49.2555 338.267 49.6555C339.867 51.2555 328.4 50.1888 319.333 47.7888C307.733 44.8555 313.467 44.3222 327.733 46.9888ZM93.8667 52.0555C92.8 55.6555 92.2667 56.4555 91.3333 55.6555C90.4 54.5889 92.2667 49.1222 93.6 49.1222C94.2667 49.1222 94.4 50.4555 93.8667 52.0555ZM385.2 51.1222C402.8 54.8555 473.067 72.0555 496.667 78.5888C513.467 83.1222 513.467 85.7888 496.667 81.9222C487.333 79.6555 484.933 80.1888 493.6 82.4555C504.933 85.6555 506.267 86.4555 498.667 85.6555C494.667 85.1222 486 83.3889 479.333 81.6555C456.933 75.7889 452.667 74.7222 431.333 69.9222C399.2 62.8555 368.4 56.1888 358.667 54.1888C353.867 53.2555 351.2 52.3222 352.667 52.0555C354.133 51.9222 359.2 52.5889 363.733 53.6555C368.933 54.8555 371.733 54.9888 371.2 54.1888C370.667 53.3888 371.333 51.9222 372.667 50.8555C375.733 48.7222 374 48.7222 385.2 51.1222ZM103.333 51.7888C103.733 52.4555 103.2 53.1222 102.133 53.1222C101.067 53.1222 99.7333 52.4555 99.3333 51.7888C98.9333 50.9888 99.4667 50.4555 100.533 50.4555C101.6 50.4555 102.933 50.9888 103.333 51.7888ZM117.333 57.1222C117.333 57.7889 116.4 58.4555 115.333 58.4555C114.267 58.4555 113.333 57.7889 113.333 57.1222C113.333 56.3222 114.267 55.7888 115.333 55.7888C116.4 55.7888 117.333 56.3222 117.333 57.1222ZM377.067 63.6555C380.4 65.6555 375.6 66.3222 371.333 64.4555L367.333 62.7222L371.333 62.5888C373.6 62.5888 376.133 62.9889 377.067 63.6555ZM40.2667 67.5222C41.4667 68.7222 30.9333 69.5222 29.2 68.4555C28.5333 67.9222 28.4 66.9888 28.8 66.1888C29.6 64.8555 38.5333 65.9222 40.2667 67.5222ZM156.8 75.5222C155.6 76.7222 151.867 74.4555 152.667 73.1222C153.333 72.0555 154.133 72.1889 155.467 73.2555C156.533 74.0555 157.067 75.1222 156.8 75.5222ZM41.8667 76.0555C43.8667 78.8555 43.6 81.1222 41.2 81.1222C40.5333 81.1222 40 80.1889 40 79.1222C40 78.0555 39.4667 77.1222 38.6667 77.1222C38 77.1222 37.7333 78.0555 38.1333 79.1222C39.3333 82.0555 33.0667 81.7888 26.6667 78.5888C23.7333 77.1222 21.0667 76.5889 20.6667 77.2555C20.2667 77.9222 18.8 77.6555 17.3333 76.8555C12.9333 74.0555 15.7333 73.1222 28 73.1222C38.6667 73.1222 40 73.3888 41.8667 76.0555ZM96 77.2555C96 78.7222 95.4667 79.6555 94.6667 79.1222C94 78.7222 93.7333 77.5222 94.2667 76.4555C95.2 73.6555 96 73.9222 96 77.2555ZM50.6667 77.7888C50.6667 78.8555 49.7333 79.7888 48.6667 79.7888C47.6 79.7888 46.6667 78.8555 46.6667 77.7888C46.6667 76.7222 47.6 75.7888 48.6667 75.7888C49.7333 75.7888 50.6667 76.7222 50.6667 77.7888ZM57.3333 79.7888C57.3333 80.4555 56.8 81.1222 56 81.1222C55.3333 81.1222 54.6667 80.4555 54.6667 79.7888C54.6667 78.9888 55.3333 78.4555 56 78.4555C56.8 78.4555 57.3333 78.9888 57.3333 79.7888ZM93.8667 83.1222C94.4 84.4555 93.7333 85.1222 92 85.1222C90.2667 85.1222 89.6 84.4555 90.1333 83.1222C90.6667 82.0555 91.4667 81.1222 92 81.1222C92.5333 81.1222 93.3333 82.0555 93.8667 83.1222ZM30.6667 85.1222C30.6667 85.7889 29.7333 86.4555 28.6667 86.4555C27.6 86.4555 26.6667 85.7889 26.6667 85.1222C26.6667 84.3222 27.6 83.7888 28.6667 83.7888C29.7333 83.7888 30.6667 84.3222 30.6667 85.1222ZM297.733 84.7222C296.8 84.9888 294.933 84.9888 293.733 84.7222C292.4 84.3222 293.2 84.0555 295.333 84.0555C297.6 84.0555 298.533 84.3222 297.733 84.7222ZM142.667 86.4555C142.667 87.1222 142.133 87.7888 141.333 87.7888C140.667 87.7888 140 87.1222 140 86.4555C140 85.6555 140.667 85.1222 141.333 85.1222C142.133 85.1222 142.667 85.6555 142.667 86.4555ZM262.667 90.4555C262.667 91.1222 262.133 91.7888 261.333 91.7888C260.667 91.7888 260 91.1222 260 90.4555C260 89.6555 260.667 89.1222 261.333 89.1222C262.133 89.1222 262.667 89.6555 262.667 90.4555ZM21.3333 91.1222C21.3333 92.7222 16.6667 101.122 15.7333 101.122C14.2667 101.122 14.4 100.589 16.9333 95.1222C18.8 91.2555 21.3333 88.8555 21.3333 91.1222ZM345.333 93.1222C345.333 93.7888 344.8 94.4555 344 94.4555C343.333 94.4555 342.667 93.7888 342.667 93.1222C342.667 92.3222 343.333 91.7888 344 91.7888C344.8 91.7888 345.333 92.3222 345.333 93.1222ZM331.6 97.1222C339.467 98.7222 349.867 100.722 354.667 101.789C359.467 102.989 373.2 105.922 385.333 108.589C416.133 115.122 439.733 120.456 465.333 126.589C477.467 129.522 497.2 134.322 509.333 137.256C552.933 147.656 663.867 176.589 665.2 177.922C666.4 178.989 661.867 178.322 655.467 176.456C641.733 172.322 529.2 143.789 506 138.456C500.133 137.256 477.333 131.922 455.333 126.722C417.733 117.789 399.067 113.656 342.667 101.789C329.867 99.1222 317.867 96.3222 316 95.7888C309.867 93.7888 316.8 94.3222 331.6 97.1222ZM221.333 98.4555C221.333 99.1222 220.8 99.7888 220 99.7888C219.333 99.7888 218.667 99.1222 218.667 98.4555C218.667 97.6555 219.333 97.1222 220 97.1222C220.8 97.1222 221.333 97.6555 221.333 98.4555ZM245.333 102.456C245.333 103.122 245.067 103.789 244.8 103.789C244.4 103.789 243.733 103.122 243.333 102.456C242.933 101.656 243.2 101.122 243.867 101.122C244.667 101.122 245.333 101.656 245.333 102.456ZM250.667 105.789C250.667 106.856 250.133 107.789 249.333 107.789C248.667 107.789 248 106.856 248 105.789C248 104.722 248.667 103.789 249.333 103.789C250.133 103.789 250.667 104.722 250.667 105.789ZM260 105.122C260 105.789 259.467 106.456 258.667 106.456C258 106.456 257.333 105.789 257.333 105.122C257.333 104.322 258 103.789 258.667 103.789C259.467 103.789 260 104.322 260 105.122ZM348.133 110.322C393.067 119.522 415.333 124.856 414.267 126.056C414 126.322 408.4 125.256 401.867 123.789C390.533 121.122 364.267 115.656 337.467 110.322C330.533 108.989 324.667 107.522 324.267 107.122C322.8 105.656 329.733 106.589 348.133 110.322ZM23.3333 109.122C22.9333 109.789 22 110.456 21.2 110.456C20.5333 110.456 20 109.789 20 109.122C20 108.322 20.9333 107.789 22.1333 107.789C23.2 107.789 23.7333 108.322 23.3333 109.122ZM8.93333 116.056C8.53333 117.122 8.13333 116.722 8.13333 115.256C8 113.789 8.4 112.989 8.8 113.522C9.2 113.922 9.33333 115.122 8.93333 116.056ZM6.13333 141.656C8 152.722 12.2667 168.056 16.8 178.989C17.4667 180.722 17.3333 181.256 16.2667 180.722C14.1333 179.256 6.93333 156.589 4.66667 143.789C3.6 137.522 2.8 128.589 2.93333 123.789C3.06667 116.189 3.2 115.922 3.6 121.789C3.86667 125.389 4.93333 134.456 6.13333 141.656ZM14.5333 154.456C16.1333 161.389 17.7333 168.322 18.1333 169.789C18.6667 171.522 18.5333 171.922 17.7333 171.122C14.6667 167.922 8 135.656 8.13333 125.389C8.26667 118.189 8.4 118.322 10 129.789C10.9333 136.322 12.9333 147.522 14.5333 154.456ZM23.4667 123.522C22.2667 124.722 18.5333 122.456 19.3333 121.122C20 120.056 20.8 120.189 22.1333 121.256C23.2 122.056 23.7333 123.122 23.4667 123.522ZM420.933 127.256C420.533 127.656 419.333 127.789 418.4 127.389C417.333 126.989 417.733 126.589 419.2 126.589C420.667 126.456 421.467 126.856 420.933 127.256ZM18.6667 132.989C18.6667 137.922 24.9333 164.856 26.8 168.189C28.4 171.122 28 172.056 25.7333 170.722C23.7333 169.522 16 139.656 16 133.522C16 131.122 16.6667 129.122 17.3333 129.122C18.1333 129.122 18.6667 130.856 18.6667 132.989ZM467.2 138.322C467.6 138.856 466.4 139.122 464.667 138.722C462.8 138.456 461.333 137.922 461.333 137.656C461.333 136.589 466.533 137.122 467.2 138.322ZM740.4 148.722C739.467 148.989 737.867 148.989 737.067 148.722C736.133 148.322 736.8 148.056 738.667 148.056C740.533 148.056 741.2 148.322 740.4 148.722ZM676.933 169.922C676.533 170.322 675.333 170.456 674.4 170.056C673.333 169.656 673.733 169.256 675.2 169.256C676.667 169.122 677.467 169.522 676.933 169.922ZM29.3333 177.922C29.3333 178.989 28.8 179.522 28 179.122C27.3333 178.722 26.6667 177.789 26.6667 176.989C26.6667 176.322 27.3333 175.789 28 175.789C28.8 175.789 29.3333 176.722 29.3333 177.922ZM675.6 180.589C675.2 180.989 674 181.122 673.067 180.722C672 180.322 672.4 179.922 673.867 179.922C675.333 179.789 676.133 180.189 675.6 180.589ZM680.667 182.456C681.067 183.256 680.533 183.389 679.467 182.989C677.067 182.056 676.667 181.122 678.533 181.122C679.333 181.122 680.267 181.656 680.667 182.456ZM19.2 184.589C19.6 185.656 19.4667 186.189 18.6667 185.789C17.8667 185.389 17.3333 184.456 17.3333 183.656C17.3333 181.789 18.2667 182.189 19.2 184.589ZM37.8667 198.722C38.2667 200.456 38.5333 203.256 38.5333 205.122L38.4 208.456L37.4667 204.989C36.8 203.122 35.6 200.322 34.8 198.722C33.6 196.322 33.6 195.789 35.0667 195.789C36.1333 195.789 37.3333 197.122 37.8667 198.722ZM56 221.122C56 221.789 55.4667 222.456 54.6667 222.456C54 222.456 53.3333 221.789 53.3333 221.122C53.3333 220.322 54 219.789 54.6667 219.789C55.4667 219.789 56 220.322 56 221.122ZM44.9333 224.056C44.5333 225.122 44.1333 224.722 44.1333 223.256C44 221.789 44.4 220.989 44.8 221.522C45.2 221.922 45.3333 223.122 44.9333 224.056ZM948 225.122C949.067 225.789 949.467 226.456 948.667 226.456C948 226.456 946.4 225.789 945.333 225.122C944.267 224.456 944 223.789 944.667 223.789C945.467 223.789 946.933 224.456 948 225.122ZM53.3333 236.322C51.6 238.056 48.6667 235.389 50 233.122C50.6667 232.056 51.4667 232.056 52.8 233.256C54.1333 234.322 54.4 235.256 53.3333 236.322ZM995.2 252.989C995.6 253.522 998.4 254.456 1001.33 254.989C1004.27 255.389 1006.67 256.456 1006.67 257.256C1006.67 258.056 1005.47 258.322 1003.73 257.789C996.133 255.522 992 253.789 992 252.856C992 251.389 994.267 251.522 995.2 252.989ZM114.533 255.256C115.733 256.322 99.2 255.656 97.4667 254.589C96.4 253.922 99.3333 253.656 104.8 254.056C109.867 254.456 114.267 254.989 114.533 255.256ZM525.333 254.456C525.333 255.122 524.133 255.789 522.667 255.789C521.2 255.789 520 255.122 520 254.456C520 253.656 521.2 253.122 522.667 253.122C524.133 253.122 525.333 253.656 525.333 254.456ZM78.6667 255.656C78.6667 256.322 80.2667 257.256 82.4 257.789L86 258.722L82.8 260.189C80.2667 261.389 79.3333 261.256 78 259.256C77.0667 258.056 75.4667 257.122 74.4 257.256C70.9333 257.656 69.2 257.122 70 255.789C71.0667 254.189 78.6667 254.056 78.6667 255.656ZM304.933 255.256C304.533 255.656 303.333 255.789 302.4 255.389C301.333 254.989 301.733 254.589 303.2 254.589C304.667 254.456 305.467 254.856 304.933 255.256ZM152.667 259.789C153.067 260.456 152.8 261.122 152.133 261.122C151.333 261.122 150.667 260.456 150.667 259.789C150.667 258.989 150.933 258.456 151.2 258.456C151.6 258.456 152.267 258.989 152.667 259.789ZM57.7333 266.056C56.8 266.322 55.2 266.322 54.4 266.056C53.4667 265.656 54.1333 265.389 56 265.389C57.8667 265.389 58.5333 265.656 57.7333 266.056ZM78.8 268.056C80 270.189 79.4667 270.456 74.1333 270.456C70.8 270.456 67.7333 269.789 67.2 268.989C66.8 268.189 64.9333 267.922 63.2 268.322C60.1333 269.122 58.9333 267.922 60.9333 265.922C61.4667 265.522 65.3333 265.256 69.7333 265.389C75.6 265.656 77.8667 266.322 78.8 268.056ZM248.933 267.256C248.533 267.656 247.333 267.789 246.4 267.389C245.333 266.989 245.733 266.589 247.2 266.589C248.667 266.456 249.467 266.856 248.933 267.256ZM282.667 273.122C285.333 273.922 285.467 274.189 283.333 274.189C281.867 274.189 279.2 273.656 277.333 273.122C274.667 272.322 274.533 272.056 276.667 272.056C278.133 272.056 280.8 272.589 282.667 273.122ZM86.2667 280.589C85.8667 280.989 84.6667 281.122 83.7333 280.722C82.6667 280.322 83.0667 279.922 84.5333 279.922C86 279.789 86.8 280.189 86.2667 280.589ZM833.733 286.056C832.8 286.322 831.2 286.322 830.4 286.056C829.467 285.656 830.133 285.389 832 285.389C833.867 285.389 834.533 285.656 833.733 286.056ZM114.667 291.789C114.667 292.456 113.467 293.122 112.133 293.122C110.667 293.122 109.067 292.456 108.667 291.789C108.133 290.989 109.333 290.456 111.2 290.456C113.067 290.456 114.667 290.989 114.667 291.789ZM169.867 306.322C170.667 307.522 158.667 309.256 156.933 308.189C156.4 307.922 156.267 306.989 156.667 306.322C157.733 304.856 168.933 304.722 169.867 306.322ZM134.667 309.789C136.533 311.922 136 312.189 132.8 310.989C131.6 310.589 130.667 309.656 130.667 308.989C130.667 307.122 132.8 307.522 134.667 309.789ZM172 310.456C172 311.122 171.733 311.789 171.467 311.789C171.067 311.789 170.4 311.122 170 310.456C169.6 309.656 169.867 309.122 170.533 309.122C171.333 309.122 172 309.656 172 310.456ZM166.533 320.322C165.067 321.522 157.333 322.189 157.333 321.122C157.333 320.322 159.6 319.789 162.267 319.789C164.933 319.789 166.8 320.056 166.533 320.322ZM150.4 326.322C150.8 327.656 150 327.789 146.533 327.122C138.8 325.522 137.333 323.789 143.867 324.056C147.467 324.322 150 325.122 150.4 326.322ZM169.467 325.522C169.333 327.122 167.467 326.722 166.933 324.989C166.533 324.189 167.067 323.656 168 323.922C168.8 324.322 169.467 324.989 169.467 325.522ZM193.333 335.789C195.067 336.989 195.067 337.122 193.333 336.989C192.267 336.989 190.133 336.456 188.667 335.789L186 334.589H188.667C190.133 334.589 192.267 335.122 193.333 335.789Z" fill="#FF4700"/>
</svg>
