<svg width="62" height="29" viewBox="0 0 62 29" fill="none" xmlns="http://www.w3.org/2000/svg">
<mask id="mask0_6_85" style="mask-type:luminance" maskUnits="userSpaceOnUse" x="0" y="0" width="18" height="28">
<path d="M0 0H17.5663V27.2392H0V0Z" fill="white"/>
</mask>
<g mask="url(#mask0_6_85)">
<path d="M15.7812 5.75029C16.1513 8.16674 15.5819 10.1957 14.0787 11.8315C13.0765 12.921 11.8385 13.6397 10.3655 13.9867C9.90488 14.0947 9.18304 14.1495 8.20312 14.1495C6.05111 14.1519 4.17069 14.4981 2.8231 16.0831C1.28969 17.8897 0.952199 19.9861 1.81141 22.3764C2.48402 23.8812 3.54335 24.9254 4.9902 25.5091C6.50296 26.1197 8.516 26.0006 10.2257 25.8807C11.042 25.8235 11.2961 25.1239 11.2961 24.383C11.2961 21.6855 11.2961 18.9863 11.3033 16.2872C11.3033 15.9743 11.3644 15.6384 11.4835 15.2843C11.9822 14.348 12.7708 14.001 13.8516 14.2456C14.3502 14.5243 14.6965 14.8237 14.8902 15.1445C14.9966 15.5598 15.0498 15.8282 15.0475 15.9553C15.0268 18.1922 15.0308 20.4268 15.061 22.6614C15.0633 22.8893 15.0911 23.0561 15.1443 23.1625C15.3302 23.5397 15.8249 23.6191 16.0671 23.2475C16.164 23.0998 16.2076 22.9124 16.1997 22.6845C16.1719 21.8332 16.1806 20.3323 16.2267 18.1843C16.5277 17.8055 16.8334 17.7206 17.1383 17.9286C17.5576 18.2129 17.5195 18.814 17.4854 19.2722C17.5044 20.3887 17.5044 21.4997 17.4854 22.6051C17.4774 23.0768 17.3924 23.4579 17.2312 23.7517C16.6531 24.8015 15.7248 25.0048 14.4432 24.3584C14.1906 24.1154 14.0072 23.8049 13.8913 23.4277C13.8174 23.2403 13.7809 23.0712 13.7809 22.9219C13.7888 20.6714 13.7864 18.4217 13.7737 16.1713C13.7713 15.6694 13.4529 15.239 12.9248 15.4907C12.7295 15.5836 12.6064 15.7814 12.608 15.9966C12.6326 18.8267 12.6366 21.7045 12.6175 24.6268C12.6048 26.3786 11.1445 27.033 9.56818 27.1044C7.71158 27.1878 6.15196 27.0973 4.88617 26.8336C-0.231803 25.0104 -1.69215 18.6878 2.25293 14.9039C2.96365 14.2233 3.85305 13.7326 4.75911 13.3419C4.82741 13.3141 4.85917 13.2339 4.83138 13.1664C4.82185 13.1457 4.80596 13.1259 4.7877 13.1108C1.56842 10.6499 0.586913 6.57695 2.85327 3.18773C4.29059 1.03414 6.97783 -0.258658 9.58486 0.0772463C12.689 0.477472 15.0586 2.68348 15.7812 5.75029ZM3.86337 10.3108C4.47244 11.3519 5.33086 12.0832 6.43943 12.5057C8.92099 13.4515 11.5407 12.8797 13.2353 10.8381C14.2835 9.57706 14.71 8.03254 14.5107 6.20293L14.2629 5.32942C14.12 4.70923 13.8174 4.11842 13.3552 3.55461C11.3327 0.848317 7.28117 0.592617 4.79644 2.79863C3.35435 4.07633 2.7818 5.82176 3.07562 8.03809C3.18918 8.90049 3.45282 9.65647 3.86416 10.3108H3.86337Z" fill="white"/>
</g>
<mask id="mask1_6_85" style="mask-type:luminance" maskUnits="userSpaceOnUse" x="24" y="0" width="19" height="28">
<path d="M24.6826 0.000976562H42.3688V27.2402H24.6826V0.000976562Z" fill="white"/>
</mask>
<g mask="url(#mask1_6_85)">
<path d="M40.6285 5.87951C41.1288 9.51331 39.2555 12.5634 35.9029 13.7991C33.3419 14.7432 30.5173 13.4536 28.2604 15.4976C26.0933 17.4591 25.6026 19.8763 26.7914 22.7517C27.6974 24.4122 29.0283 25.4302 30.7833 25.8059C31.9284 26.0504 33.7191 25.9702 34.8793 25.9115C35.9314 25.8583 36.1268 25.0943 36.1204 24.1446C36.1038 21.266 36.1204 18.3977 36.1705 15.5445C36.8089 14.2446 37.746 13.8674 38.9832 14.4129C39.4914 14.7448 39.7828 15.1641 39.8607 15.67C39.8567 17.9768 39.8567 20.2757 39.863 22.5659C39.863 23.044 40.0092 23.5482 40.5738 23.4736C40.8295 23.4394 41.0216 23.2211 41.0232 22.9638L41.051 18.2158C41.3814 17.6227 42.1016 17.7378 42.2739 18.3755C42.3343 18.601 42.3462 18.9496 42.3097 19.4237C42.3287 20.4846 42.3271 21.5201 42.3057 22.5262C42.2938 23.0551 42.2032 23.476 42.0309 23.7849C41.5036 24.7362 40.6341 24.9617 39.4207 24.463C39.1206 24.2605 38.8863 23.9342 38.7132 23.4871C38.7021 23.4037 38.6814 23.2973 38.6512 23.1702C38.6242 23.0622 38.6107 22.9582 38.6107 22.8558C38.6282 20.7347 38.6187 18.6113 38.5861 16.4887C38.5861 16.4792 38.5957 16.3449 38.6147 16.0885C38.6751 15.2959 37.4204 15.1212 37.4355 16.1075C37.4752 18.5827 37.4863 21.0611 37.4672 23.5379C37.4601 24.4575 37.4275 25.0221 37.3696 25.2365C36.7398 27.5259 33.6103 27.1677 31.664 27.1304C27.6982 27.0049 24.6711 23.692 24.845 19.8263C24.98 16.8333 26.7501 14.4264 29.5652 13.3782C29.6549 13.344 29.7001 13.2456 29.666 13.1558C29.6541 13.1241 29.6334 13.0979 29.6056 13.0764C24.9729 9.79362 25.5677 3.02234 30.7523 0.611449C31.8672 0.0921082 33.0497 -0.0921229 34.3004 0.0619323C37.4887 0.450247 39.9567 2.68564 40.6278 5.87951H40.6285ZM28.4971 10.0009C29.1284 11.1968 30.0384 12.0274 31.2264 12.4912C32.6828 13.0605 34.0812 13.1153 35.4256 12.6587C39.2349 11.3636 40.7024 6.52273 38.0263 3.38365C36.2824 1.23958 33.2498 0.76074 30.8349 1.97174C27.7768 3.50674 27.0907 7.06827 28.4971 10.0009Z" fill="white"/>
</g>
<mask id="mask2_6_85" style="mask-type:luminance" maskUnits="userSpaceOnUse" x="46" y="0" width="16" height="28">
<path d="M46.0273 0.404297H61.9999V27.8484H46.0273V0.404297Z" fill="white"/>
</mask>
<g mask="url(#mask2_6_85)">
<path d="M56.9367 2.05672C56.9296 2.16154 56.947 2.24016 56.9867 2.29178C56.8859 5.16165 56.8898 8.02756 56.9994 10.8879C56.7763 11.4438 56.4594 11.8392 56.0497 12.0727C55.3771 12.4594 53.9199 12.2752 53.0305 12.3157C52.9559 12.3173 52.8884 12.3514 52.8407 12.4078C52.5453 12.7644 52.5604 13.1058 52.8844 13.4338C52.9273 13.4767 52.9813 13.5013 53.0416 13.5037C54.012 13.5545 55.1381 13.4052 56.0576 13.7062C56.1601 13.8086 56.2411 13.8674 56.3022 13.8848C56.6453 14.3637 56.8501 14.7909 56.92 15.1641C56.928 18.686 56.9319 22.176 56.9303 25.6351C56.9303 26.1775 57.1535 26.6357 57.7769 26.3895C57.8189 26.3744 57.8602 26.3443 57.9023 26.2966C57.9841 26.2172 58.0278 26.1338 58.031 26.0489C58.058 25.2587 58.058 24.1724 58.031 22.7883C58.1374 18.5653 58.1414 14.3422 58.0445 10.1168L58.0786 2.19887C58.4447 0.449464 60.7365 -0.14214 61.629 1.5755C61.9792 2.24969 61.9395 2.88656 61.9379 3.88553C61.9379 6.90232 61.9451 9.91513 61.9657 12.9256L61.9562 18.5549L61.9491 19.7651L61.9054 27.1797C61.7196 27.6371 61.4599 27.8515 61.1264 27.8245C60.7182 27.6768 60.5101 27.3694 60.5046 26.9017C60.4625 23.9445 60.4593 20.9873 60.4919 18.0324C60.5427 10.4885 60.5387 5.22994 60.4784 2.26001C60.4633 1.57947 59.2936 1.70097 59.3428 2.56098C59.4111 3.73624 59.4413 4.50414 59.4341 4.86625C59.3508 8.89392 59.3595 13.3965 59.4604 18.3723C59.5008 20.3528 59.4834 22.643 59.4095 25.2413C59.3905 25.9464 59.3095 26.4435 59.1665 26.7318C58.6512 27.7721 57.1273 28.1127 56.28 27.1939C55.8933 26.8604 55.6884 26.4951 55.6638 26.0965C55.6145 25.3024 55.6034 24.0985 55.628 22.4873C55.6399 20.1543 55.6471 17.8228 55.6511 15.4913C55.6511 15.1633 55.6391 14.7615 55.2604 14.7639C53.7897 14.7639 52.8399 14.7369 52.4095 14.6821C50.9968 13.7284 50.8563 11.8861 52.5954 11.219C53.2997 10.9498 54.5076 11.0769 55.2659 11.0443C55.4708 11.0364 55.6336 10.8681 55.6336 10.6616V3.00091C55.6757 2.65944 55.6566 2.35054 55.5748 2.07578C55.5542 2.01146 55.5034 1.96064 55.439 1.94158C55.1865 1.86534 54.8554 1.82802 54.4472 1.82882C52.1046 1.8312 49.7461 1.86693 47.3749 1.93522C46.8389 1.93681 46.4165 1.79149 46.1076 1.49688C46.0599 1.45162 46.0329 1.3873 46.0353 1.32218C46.0464 0.771075 46.3402 0.496316 46.9144 0.500287C49.4833 0.515375 52.0514 0.534433 54.6235 0.556668C55.8289 0.568579 56.6159 0.877484 56.9383 2.05593L56.9367 2.05672Z" fill="white"/>
</g>
<mask id="mask3_6_85" style="mask-type:luminance" maskUnits="userSpaceOnUse" x="19" y="24" width="5" height="5">
<path d="M19.3955 24.3926H23.0547V28.0248H19.3955V24.3926Z" fill="white"/>
</mask>
<g mask="url(#mask3_6_85)">
<path d="M22.9686 26.2193C22.9686 27.2 22.1729 27.9957 21.1914 27.9957C20.2107 27.9957 19.415 27.2008 19.415 26.2193C19.415 25.2378 20.2099 24.4421 21.1914 24.4421C22.1729 24.4421 22.9686 25.2378 22.9686 26.2193ZM22.3461 26.2074C22.3461 25.5721 21.8307 25.0576 21.1954 25.0576C20.5601 25.0576 20.0456 25.5721 20.0456 26.2074C20.0456 26.8427 20.5601 27.3573 21.1954 27.3573C21.8307 27.3573 22.3461 26.8427 22.3461 26.2074Z" fill="white"/>
</g>
<mask id="mask4_6_85" style="mask-type:luminance" maskUnits="userSpaceOnUse" x="46" y="24" width="5" height="5">
<path d="M46.6348 24.3926H50.4973V28.0248H46.6348V24.3926Z" fill="white"/>
</mask>
<g mask="url(#mask4_6_85)">
<path d="M50.2987 26.2193C50.2987 27.1865 49.5149 27.9703 48.5469 27.9703C47.5797 27.9703 46.7959 27.1865 46.7959 26.2193C46.7959 25.2521 47.5797 24.4675 48.5469 24.4675C49.5149 24.4675 50.2987 25.2521 50.2987 26.2193ZM49.7126 26.2153C49.7126 25.5729 49.1917 25.0512 48.5493 25.0512C47.9068 25.0512 47.3859 25.5721 47.3859 26.2153C47.3859 26.857 47.906 27.3787 48.5493 27.3787C49.1925 27.3787 49.7126 26.8578 49.7126 26.2153Z" fill="white"/>
</g>
<path d="M22.0438 26.2259C22.0438 26.3636 22.0266 26.495 21.9913 26.6216C21.9561 26.7481 21.907 26.8599 21.8423 26.957C21.7776 27.0541 21.703 27.129 21.6186 27.1806C21.5343 27.2335 21.4458 27.2593 21.3549 27.2593C21.2631 27.2593 21.1755 27.2335 21.0911 27.1806C21.0068 27.129 20.9322 27.0541 20.8675 26.957C20.8028 26.8599 20.7528 26.7481 20.7184 26.6216C20.6832 26.495 20.666 26.3636 20.666 26.2259C20.666 26.0896 20.6832 25.9569 20.7184 25.8303C20.7528 25.7038 20.8028 25.5919 20.8675 25.4949C20.9322 25.3978 21.0068 25.3241 21.0911 25.2713C21.1755 25.2184 21.2631 25.1926 21.3549 25.1926C21.4458 25.1926 21.5343 25.2184 21.6186 25.2713C21.703 25.3241 21.7776 25.3978 21.8423 25.4949C21.907 25.5919 21.9561 25.7038 21.9913 25.8303C22.0266 25.9569 22.0438 26.0896 22.0438 26.2259Z" fill="white"/>
<path d="M48.909 26.2266C48.909 26.3638 48.8917 26.4945 48.8564 26.6213C48.8219 26.7481 48.7718 26.8594 48.7071 26.9564C48.6424 27.0535 48.5682 27.1286 48.4837 27.1816C48.3991 27.2334 48.3111 27.2593 48.2197 27.2593C48.1282 27.2593 48.0411 27.2334 47.9566 27.1816C47.872 27.1286 47.797 27.0535 47.7331 26.9564C47.6684 26.8594 47.6184 26.7481 47.583 26.6213C47.5485 26.4945 47.5312 26.3638 47.5312 26.2266C47.5312 26.0894 47.5485 25.9574 47.583 25.8306C47.6184 25.7038 47.6684 25.5925 47.7331 25.4954C47.797 25.3984 47.872 25.3233 47.9566 25.2716C48.0411 25.2185 48.1282 25.1926 48.2197 25.1926C48.3111 25.1926 48.3991 25.2185 48.4837 25.2716C48.5682 25.3233 48.6424 25.3984 48.7071 25.4954C48.7718 25.5925 48.8219 25.7038 48.8564 25.8306C48.8917 25.9574 48.909 26.0894 48.909 26.2266Z" fill="white"/>
</svg>
