<svg width="152" height="69" viewBox="0 0 152 69" fill="none" xmlns="http://www.w3.org/2000/svg">
<mask id="mask0_73_1812" style="mask-type:luminance" maskUnits="userSpaceOnUse" x="0" y="0" width="44" height="67">
<path d="M0 0H43.0657V66.7799H0V0Z" fill="white"/>
</mask>
<g mask="url(#mask0_73_1812)">
<path d="M38.6894 14.0973C39.5966 20.0215 38.2008 24.9956 34.5154 29.006C32.0585 31.6771 29.0234 33.439 25.4121 34.2897C24.2829 34.5545 22.5132 34.6888 20.1109 34.6888C14.835 34.6947 10.2249 35.5435 6.92114 39.4293C3.16182 43.8584 2.33442 48.998 4.44089 54.8579C6.08985 58.5471 8.68691 61.1072 12.234 62.5381C15.9427 64.0352 20.8779 63.7432 25.0694 63.4492C27.0708 63.3091 27.6937 61.5939 27.6937 59.7775C27.6937 53.1642 27.6937 46.5469 27.7113 39.9297C27.7113 39.1626 27.8612 38.3391 28.1532 37.4708C29.3758 35.1755 31.309 34.3248 33.9586 34.9244C35.1812 35.6077 36.03 36.3417 36.5051 37.1282C36.7659 38.1464 36.8964 38.8044 36.8905 39.1159C36.8399 44.6001 36.8497 50.0785 36.9236 55.5568C36.9295 56.1156 36.9976 56.5244 37.1281 56.7853C37.5836 57.71 38.7965 57.9047 39.3903 56.9936C39.6278 56.6315 39.7348 56.172 39.7154 55.6133C39.6472 53.5263 39.6687 49.8468 39.7816 44.5806C40.5194 43.652 41.2689 43.4437 42.0165 43.9538C43.0445 44.6507 42.951 46.1245 42.8673 47.2478C42.914 49.985 42.914 52.7086 42.8673 55.4186C42.8478 56.575 42.6395 57.5095 42.2443 58.2298C40.827 60.8035 38.5512 61.3019 35.409 59.7172C34.7899 59.1215 34.3402 58.3602 34.056 57.4355C33.8749 56.9761 33.7854 56.5614 33.7854 56.1954C33.8048 50.6781 33.799 45.1627 33.7678 39.6454C33.762 38.415 32.9813 37.3599 31.6867 37.977C31.2078 38.2048 30.906 38.6895 30.9099 39.2171C30.9703 46.1556 30.98 53.2109 30.9333 60.3752C30.9021 64.6699 27.3219 66.2741 23.4575 66.4493C18.9058 66.6537 15.0822 66.4318 11.979 65.7854C-0.568292 61.3155 -4.1485 45.8149 5.52332 36.5383C7.26573 34.8699 9.44617 33.6667 11.6675 32.7089C11.8349 32.6408 11.9128 32.4441 11.8447 32.2787C11.8213 32.228 11.7824 32.1794 11.7376 32.1424C3.84516 26.1092 1.43888 16.1239 6.99512 7.81487C10.5189 2.53509 17.1069 -0.634341 23.4983 0.189165C31.1085 1.17036 36.9178 6.57864 38.6894 14.0973ZM9.47148 25.2779C10.9647 27.8302 13.0692 29.6232 15.787 30.6589C21.8708 32.9776 28.2934 31.5759 32.4479 26.5706C35.0177 23.479 36.0631 19.6924 35.5745 15.207L34.9671 13.0655C34.6167 11.545 33.8749 10.0965 32.7419 8.7143C27.7833 2.07953 17.8506 1.45265 11.759 6.86093C8.22356 9.99337 6.8199 14.2725 7.54023 19.7061C7.81862 21.8203 8.46497 23.6737 9.47342 25.2779H9.47148Z" fill="black"/>
</g>
<mask id="mask1_73_1812" style="mask-type:luminance" maskUnits="userSpaceOnUse" x="60" y="0" width="44" height="67">
<path d="M60.5156 0.00195312H103.875V66.7819H60.5156V0.00195312Z" fill="white"/>
</mask>
<g mask="url(#mask1_73_1812)">
<path d="M99.6051 14.415C100.832 23.3236 96.2391 30.8014 88.0196 33.8306C81.7411 36.1454 74.8162 32.9838 69.2834 37.9949C63.9705 42.8035 62.7673 48.7297 65.6817 55.7791C67.9031 59.8499 71.1659 62.3458 75.4684 63.2666C78.2757 63.8662 82.6658 63.6696 85.5101 63.5255C88.0897 63.3951 88.5686 61.5223 88.553 59.1939C88.5121 52.1366 88.553 45.1047 88.6757 38.1098C90.2409 34.9228 92.5382 33.9981 95.5713 35.3355C96.8173 36.1493 97.5318 37.1772 97.7226 38.4174C97.7128 44.0729 97.7128 49.7089 97.7284 55.3236C97.7284 56.4956 98.0866 57.7318 99.4708 57.5488C100.098 57.4651 100.569 56.9297 100.573 56.2989L100.641 44.6589C101.451 43.2046 103.216 43.4869 103.639 45.0502C103.787 45.6031 103.816 46.4577 103.727 47.62C103.773 50.2209 103.769 52.7596 103.717 55.2262C103.688 56.5228 103.466 57.5546 103.043 58.3119C101.751 60.6442 99.6188 61.1971 96.644 59.9745C95.9081 59.4781 95.3338 58.6779 94.9094 57.5819C94.8821 57.3775 94.8315 57.1166 94.7575 56.8051C94.6914 56.5403 94.6583 56.2853 94.6583 56.0342C94.7011 50.8342 94.6777 45.6284 94.5979 40.4245C94.5979 40.4012 94.6213 40.0722 94.668 39.4433C94.816 37.5004 91.74 37.0721 91.777 39.4901C91.8743 45.5583 91.9016 51.6343 91.8548 57.7065C91.8373 59.9609 91.7575 61.3451 91.6154 61.8707C90.0715 67.4834 82.3991 66.6054 77.6274 66.5139C67.905 66.2063 60.4837 58.0842 60.9101 48.607C61.241 41.2694 65.5805 35.3686 72.482 32.7988C72.702 32.7151 72.8129 32.4737 72.7292 32.2537C72.7 32.1758 72.6494 32.1116 72.5813 32.059C61.2235 24.0109 62.6817 7.41029 75.3925 1.49973C78.1258 0.226507 81.0246 -0.225156 84.0909 0.152527C91.9074 1.10452 97.9581 6.58483 99.6032 14.415H99.6051ZM69.8635 24.519C71.4112 27.4509 73.6423 29.4873 76.5547 30.6242C80.1252 32.0201 83.5536 32.1544 86.8495 31.035C96.1885 27.8597 99.7862 15.9919 93.2254 8.29609C88.9502 3.03967 81.5152 1.86573 75.595 4.83464C68.0977 8.59785 66.4157 17.3294 69.8635 24.519Z" fill="black"/>
</g>
<mask id="mask2_73_1812" style="mask-type:luminance" maskUnits="userSpaceOnUse" x="112" y="0" width="41" height="69">
<path d="M112.842 0.990234H152V68.2725H112.842V0.990234Z" fill="white"/>
</mask>
<g mask="url(#mask2_73_1812)">
<path d="M139.588 5.04146C139.57 5.29845 139.613 5.49118 139.71 5.61772C139.463 12.6535 139.473 19.6796 139.741 26.6921C139.194 28.0549 138.418 29.0244 137.413 29.5968C135.764 30.5449 132.192 30.0932 130.011 30.1925C129.828 30.1964 129.663 30.2801 129.546 30.4183C128.822 31.2924 128.859 32.1296 129.653 32.9336C129.758 33.0387 129.891 33.0991 130.039 33.1049C132.418 33.2295 135.178 32.8635 137.433 33.6014C137.684 33.8525 137.882 33.9966 138.032 34.0394C138.873 35.2133 139.375 36.2607 139.547 37.1757C139.566 45.8099 139.576 54.3662 139.572 62.8466C139.572 64.1762 140.119 65.2995 141.647 64.696C141.751 64.659 141.852 64.5851 141.955 64.4683C142.156 64.2736 142.263 64.0692 142.27 63.8608C142.337 61.9238 142.337 59.2605 142.27 55.8672C142.531 45.514 142.541 35.1608 142.303 24.8017L142.387 5.38995C143.285 1.10109 148.903 -0.34929 151.091 3.86169C151.95 5.51454 151.853 7.07589 151.849 9.525C151.849 16.921 151.866 24.3072 151.917 31.6876L151.894 45.4887L151.876 48.4556L151.769 66.6331C151.313 67.7545 150.677 68.2801 149.859 68.2139C148.858 67.8518 148.348 67.0984 148.335 65.9517C148.232 58.7018 148.224 51.4518 148.304 44.2077C148.428 25.7128 148.418 12.821 148.271 5.53985C148.234 3.87142 145.366 4.16929 145.487 6.2777C145.654 9.159 145.728 11.0416 145.71 11.9293C145.506 21.8036 145.527 32.8421 145.775 45.0409C145.874 49.8963 145.831 55.5109 145.65 61.8809C145.603 63.6097 145.405 64.8284 145.054 65.5351C143.791 68.0855 140.055 68.9206 137.978 66.6682C137.03 65.8505 136.527 64.955 136.467 63.9777C136.346 62.0308 136.319 59.0794 136.379 55.1293C136.409 49.4096 136.426 43.6937 136.436 37.9778C136.436 37.1738 136.407 36.1887 135.478 36.1945C131.872 36.1945 129.544 36.1283 128.489 35.994C125.025 33.6559 124.681 29.1392 128.944 27.5039C130.671 26.8439 133.632 27.1554 135.492 27.0756C135.994 27.0561 136.393 26.6434 136.393 26.1372V7.35624C136.496 6.5191 136.449 5.76179 136.249 5.08819C136.198 4.9305 136.074 4.8059 135.916 4.75917C135.297 4.57228 134.485 4.48078 133.484 4.48273C127.741 4.48857 121.959 4.57617 116.146 4.7436C114.832 4.74749 113.796 4.39123 113.039 3.66895C112.922 3.55798 112.856 3.40029 112.862 3.24065C112.889 1.88956 113.609 1.21596 115.017 1.22569C121.315 1.26268 127.611 1.3094 133.917 1.36391C136.872 1.39312 138.801 2.15043 139.592 5.03952L139.588 5.04146Z" fill="black"/>
</g>
<mask id="mask3_73_1812" style="mask-type:luminance" maskUnits="userSpaceOnUse" x="47" y="59" width="10" height="10">
<path d="M47.5488 59.8008H56.5198V68.7055H47.5488V59.8008Z" fill="white"/>
</mask>
<g mask="url(#mask3_73_1812)">
<path d="M56.3058 64.2789C56.3058 66.6832 54.3551 68.6339 51.9488 68.6339C49.5445 68.6339 47.5938 66.6851 47.5938 64.2789C47.5938 61.8726 49.5425 59.9219 51.9488 59.9219C54.3551 59.9219 56.3058 61.8726 56.3058 64.2789ZM54.7795 64.2496C54.7795 62.6922 53.516 61.4306 51.9585 61.4306C50.4011 61.4306 49.1395 62.6922 49.1395 64.2496C49.1395 65.8071 50.4011 67.0686 51.9585 67.0686C53.516 67.0686 54.7795 65.8071 54.7795 64.2496Z" fill="black"/>
</g>
<mask id="mask4_73_1812" style="mask-type:luminance" maskUnits="userSpaceOnUse" x="114" y="59" width="10" height="10">
<path d="M114.332 59.8008H123.801V68.7056H114.332V59.8008Z" fill="white"/>
</mask>
<g mask="url(#mask4_73_1812)">
<path d="M123.312 64.2791C123.312 66.6503 121.391 68.5718 119.017 68.5718C116.646 68.5718 114.725 66.6503 114.725 64.2791C114.725 61.9078 116.646 59.9844 119.017 59.9844C121.391 59.9844 123.312 61.9078 123.312 64.2791ZM121.875 64.2693C121.875 62.6944 120.598 61.4153 119.023 61.4153C117.448 61.4153 116.171 62.6924 116.171 64.2693C116.171 65.8424 117.446 67.1214 119.023 67.1214C120.6 67.1214 121.875 65.8443 121.875 64.2693Z" fill="black"/>
</g>
</svg>
