<svg width="62" height="29" viewBox="0 0 62 29" fill="none" xmlns="http://www.w3.org/2000/svg"><mask id="a" style="mask-type:luminance" maskUnits="userSpaceOnUse" x="0" y="0" width="18" height="28"><path d="M0 0h17.566v27.24H0V0z" fill="#fff"/></mask><g mask="url(#a)"><path d="M15.781 5.75c.37 2.417-.2 4.446-1.702 6.082-1.003 1.089-2.24 1.808-3.713 2.155-.461.108-1.183.162-2.163.162-2.152.003-4.032.35-5.38 1.934-1.533 1.807-1.87 3.903-1.012 6.293.673 1.505 1.732 2.55 3.18 3.133 1.512.61 3.525.492 5.235.372.816-.058 1.07-.757 1.07-1.498 0-2.697 0-5.397.007-8.096 0-.313.061-.649.18-1.003.5-.936 1.288-1.283 2.369-1.038.498.278.845.578 1.038.899.107.415.16.683.157.81-.02 2.237-.016 4.472.014 6.706.002.228.03.395.083.502.186.377.68.456.923.084.097-.147.14-.335.133-.563-.028-.85-.02-2.352.027-4.5.3-.379.606-.463.911-.255.42.284.381.885.347 1.343a97.447 97.447 0 0 1 0 3.333c-.008.472-.093.853-.254 1.147-.578 1.05-1.506 1.253-2.788.606a2.13 2.13 0 0 1-.552-.93 1.398 1.398 0 0 1-.11-.506c.008-2.25.005-4.5-.007-6.75-.003-.503-.321-.933-.85-.681a.556.556 0 0 0-.316.506c.025 2.83.029 5.707.01 8.63-.013 1.752-1.473 2.406-3.05 2.477-1.856.084-3.416-.007-4.682-.27-5.118-1.824-6.578-8.146-2.633-11.93.71-.68 1.6-1.171 2.506-1.562a.135.135 0 0 0 .072-.176.163.163 0 0 0-.043-.055C1.568 10.65.587 6.577 2.853 3.188 4.291 1.034 6.978-.26 9.585.078c3.104.4 5.474 2.605 6.196 5.672zM3.863 10.31c.61 1.042 1.468 1.773 2.576 2.196 2.482.945 5.102.374 6.796-1.668 1.049-1.26 1.475-2.805 1.276-4.635l-.248-.874c-.143-.62-.446-1.21-.908-1.774C11.333.848 7.281.593 4.796 2.799c-1.442 1.277-2.014 3.023-1.72 5.24.113.861.377 1.617.788 2.272z" fill="#fff"/></g><mask id="b" style="mask-type:luminance" maskUnits="userSpaceOnUse" x="24" y="0" width="19" height="28"><path d="M24.683.001h17.686v27.24H24.683V0z" fill="#fff"/></mask><g mask="url(#b)"><path d="M40.629 5.88c.5 3.633-1.373 6.683-4.726 7.92-2.561.943-5.386-.346-7.643 1.698-2.167 1.961-2.657 4.378-1.469 7.254.906 1.66 2.237 2.678 3.992 3.054 1.145.244 2.936.164 4.096.105 1.052-.053 1.248-.817 1.241-1.766-.016-2.879 0-5.747.05-8.6.639-1.3 1.576-1.678 2.813-1.132.508.332.8.751.878 1.257-.004 2.307-.004 4.606.002 6.896 0 .478.146.982.71.908a.519.519 0 0 0 .45-.51l.028-4.748c.33-.593 1.05-.478 1.223.16.06.225.072.574.036 1.048.019 1.06.017 2.096-.004 3.102-.012.53-.103.95-.275 1.259-.527.951-1.397 1.177-2.61.678-.3-.203-.535-.529-.708-.976a3.32 3.32 0 0 0-.062-.317 1.29 1.29 0 0 1-.04-.314c.017-2.121.008-4.245-.025-6.367l.029-.4c.06-.793-1.195-.968-1.18.019.04 2.475.051 4.953.032 7.43-.007.92-.04 1.484-.097 1.698-.63 2.29-3.76 1.932-5.706 1.894-3.966-.125-6.993-3.438-6.819-7.304.135-2.993 1.905-5.4 4.72-6.448a.172.172 0 0 0 .04-.302C24.974 9.794 25.569 3.022 30.753.611A6.39 6.39 0 0 1 34.3.061c3.189.39 5.657 2.625 6.328 5.819zM28.497 10c.631 1.197 1.541 2.027 2.73 2.491 1.456.57 2.854.624 4.199.168 3.809-1.295 5.276-6.136 2.6-9.275C36.282 1.24 33.25.76 30.835 1.972 27.777 3.507 27.09 7.068 28.497 10z" fill="#fff"/></g><mask id="c" style="mask-type:luminance" maskUnits="userSpaceOnUse" x="46" y="0" width="16" height="28"><path d="M46.027.404H62v27.444H46.027V.404z" fill="#fff"/></mask><g mask="url(#c)"><path d="M56.937 2.057c-.007.105.01.183.05.235a117.1 117.1 0 0 0 .012 8.596c-.223.556-.54.951-.95 1.185-.672.386-2.13.202-3.018.243a.254.254 0 0 0-.19.092c-.296.356-.28.698.043 1.026a.232.232 0 0 0 .158.07c.97.05 2.096-.099 3.016.202.102.103.183.161.244.179.343.479.548.906.618 1.28.008 3.521.012 7.011.01 10.47 0 .542.224 1 .847.755a.313.313 0 0 0 .125-.093c.082-.08.126-.163.129-.248.027-.79.027-1.877 0-3.26.106-4.224.11-8.447.014-12.672l.034-7.918c.366-1.75 2.657-2.341 3.55-.623.35.674.31 1.31.309 2.31 0 3.016.007 6.03.028 9.04l-.01 5.629-.007 1.21-.044 7.415c-.185.457-.445.672-.779.645-.408-.148-.616-.456-.621-.923a351.055 351.055 0 0 1-.013-8.87c.05-7.543.047-12.802-.014-15.772-.015-.68-1.184-.559-1.135.301.068 1.175.098 1.943.091 2.305-.083 4.028-.075 8.53.026 13.506.04 1.98.023 4.271-.05 6.87-.02.704-.1 1.201-.243 1.49-.516 1.04-2.04 1.38-2.887.462-.387-.334-.592-.699-.616-1.098-.05-.794-.06-1.997-.036-3.609.012-2.333.02-4.664.023-6.996 0-.328-.012-.73-.39-.727-1.471 0-2.421-.027-2.852-.082-1.412-.954-1.553-2.796.186-3.463.705-.27 1.913-.142 2.67-.175a.383.383 0 0 0 .369-.382V3c.042-.342.023-.65-.06-.925a.205.205 0 0 0-.135-.134c-.252-.077-.584-.114-.992-.113-2.342.002-4.7.038-7.072.106-.536.002-.959-.144-1.267-.438a.231.231 0 0 1-.073-.175c.011-.55.305-.826.88-.822 2.568.015 5.136.034 7.709.057 1.205.012 1.992.32 2.314 1.499h-.001z" fill="#fff"/></g><mask id="d" style="mask-type:luminance" maskUnits="userSpaceOnUse" x="19" y="24" width="5" height="5"><path d="M19.395 24.393h3.66v3.632h-3.66v-3.632z" fill="#fff"/></mask><g mask="url(#d)"><path d="M22.969 26.22a1.777 1.777 0 1 1-3.555-.002 1.777 1.777 0 0 1 3.555.001zm-.623-.013a1.15 1.15 0 1 0-2.3.001 1.15 1.15 0 0 0 2.3 0z" fill="#fff"/></g><mask id="e" style="mask-type:luminance" maskUnits="userSpaceOnUse" x="46" y="24" width="5" height="5"><path d="M46.635 24.393h3.862v3.632h-3.862v-3.632z" fill="#fff"/></mask><g mask="url(#e)"><path d="M50.299 26.22a1.751 1.751 0 1 1-3.502 0 1.751 1.751 0 0 1 3.502 0zm-.586-.005a1.164 1.164 0 1 0-2.329 0 1.164 1.164 0 0 0 2.329 0z" fill="#fff"/></g><path d="M22.044 26.226c0 .138-.017.269-.053.396a1.16 1.16 0 0 1-.149.335.73.73 0 0 1-.223.224.488.488 0 0 1-.527 0 .731.731 0 0 1-.224-.224 1.14 1.14 0 0 1-.15-.335 1.468 1.468 0 0 1-.052-.396c0-.136.017-.27.052-.396.035-.126.085-.238.15-.335a.745.745 0 0 1 .223-.224.488.488 0 0 1 .528 0 .744.744 0 0 1 .223.224c.065.097.114.209.15.335.035.127.052.26.052.396zm26.865.001c0 .137-.017.267-.053.394a1.136 1.136 0 0 1-.149.335.75.75 0 0 1-.223.226.499.499 0 0 1-.264.077.495.495 0 0 1-.263-.077.74.74 0 0 1-.224-.226 1.16 1.16 0 0 1-.15-.335 1.502 1.502 0 0 1 0-.79c.035-.127.085-.238.15-.336a.722.722 0 0 1 .224-.223.485.485 0 0 1 .527 0 .732.732 0 0 1 .223.223c.065.098.115.209.15.336.035.126.052.258.052.396z" fill="#fff"/></svg>