<svg width="152" height="69" viewBox="0 0 152 69" fill="none" xmlns="http://www.w3.org/2000/svg"><mask id="a" style="mask-type:luminance" maskUnits="userSpaceOnUse" x="0" y="0" width="44" height="67"><path d="M0 0h43.066v66.78H0V0z" fill="#fff"/></mask><g mask="url(#a)"><path d="M38.69 14.097c.907 5.925-.49 10.899-4.175 14.909-2.456 2.671-5.492 4.433-9.103 5.284-1.13.264-2.899.399-5.301.399-5.276.006-9.886.855-13.19 4.74-3.76 4.43-4.587 9.569-2.48 15.429 1.649 3.69 4.246 6.25 7.793 7.68 3.709 1.497 8.644 1.205 12.835.911 2.002-.14 2.625-1.855 2.625-3.671 0-6.614 0-13.231.017-19.848 0-.767.15-1.59.442-2.46 1.223-2.294 3.156-3.145 5.806-2.546 1.222.684 2.071 1.418 2.546 2.204.26 1.018.391 1.676.386 1.988a720.688 720.688 0 0 0 .033 16.44c.005.56.074.968.204 1.23.456.924 1.669 1.119 2.262.208.238-.362.345-.822.325-1.38-.068-2.088-.046-5.767.067-11.033.737-.929 1.487-1.137 2.235-.627 1.027.697.934 2.17.85 3.294.047 2.737.047 5.46 0 8.17-.02 1.157-.227 2.092-.623 2.812-1.417 2.574-3.693 3.072-6.835 1.487-.62-.596-1.069-1.357-1.353-2.282-.181-.459-.27-.874-.27-1.24.019-5.517.013-11.032-.018-16.55-.006-1.23-.787-2.285-2.081-1.668-.48.228-.781.713-.777 1.24.06 6.939.07 13.994.023 21.158-.03 4.295-3.611 5.9-7.476 6.074-4.551.205-8.375-.017-11.478-.664-12.547-4.47-16.127-19.97-6.456-29.247 1.743-1.668 3.923-2.871 6.145-3.83a.331.331 0 0 0 .177-.43.4.4 0 0 0-.107-.136C3.845 26.11 1.438 16.124 6.995 7.815 10.52 2.535 17.107-.635 23.498.189c7.61.981 13.42 6.39 15.191 13.908zM9.47 25.277c1.494 2.553 3.598 4.346 6.316 5.382 6.084 2.319 12.506.917 16.66-4.088 2.57-3.092 3.616-6.879 3.127-11.364l-.607-2.142c-.35-1.52-1.092-2.968-2.225-4.35C27.783 2.08 17.85 1.452 11.759 6.86c-3.535 3.132-4.94 7.412-4.219 12.845.279 2.114.925 3.968 1.933 5.572h-.002z" fill="#000"/></g><mask id="b" style="mask-type:luminance" maskUnits="userSpaceOnUse" x="60" y="0" width="44" height="67"><path d="M60.516.002h43.359v66.78h-43.36V.002z" fill="#fff"/></mask><g mask="url(#b)"><path d="M99.605 14.415c1.227 8.909-3.366 16.386-11.585 19.416-6.279 2.314-13.204-.847-18.737 4.164-5.313 4.809-6.516 10.735-3.601 17.784 2.221 4.07 5.484 6.567 9.786 7.488 2.808.6 7.198.403 10.042.258 2.58-.13 3.059-2.003 3.043-4.331-.04-7.057 0-14.09.123-21.084 1.565-3.187 3.862-4.112 6.895-2.774 1.246.813 1.96 1.841 2.152 3.081-.01 5.656-.01 11.292.005 16.907 0 1.172.359 2.408 1.743 2.225a1.272 1.272 0 0 0 1.102-1.25l.068-11.64c.81-1.454 2.575-1.172 2.998.391.148.553.177 1.408.088 2.57.046 2.6.042 5.14-.01 7.606-.029 1.297-.251 2.329-.674 3.086-1.292 2.332-3.424 2.885-6.399 1.663-.736-.497-1.31-1.297-1.735-2.393a8.17 8.17 0 0 0-.152-.777 3.172 3.172 0 0 1-.099-.77c.043-5.2.02-10.407-.06-15.61 0-.024.023-.353.07-.982.148-1.943-2.928-2.37-2.891.047.097 6.068.125 12.144.078 18.216-.018 2.255-.098 3.64-.24 4.165-1.543 5.612-9.216 4.734-13.988 4.643-9.722-.308-17.143-8.43-16.717-17.907.331-7.338 4.67-13.238 11.572-15.808a.421.421 0 0 0 .247-.545.44.44 0 0 0-.148-.195c-11.358-8.048-9.9-24.649 2.811-30.56C78.126.228 81.025-.224 84.091.154c7.816.952 13.867 6.432 15.512 14.262h.002zM69.863 24.519c1.548 2.932 3.78 4.968 6.692 6.105 3.57 1.396 6.999 1.53 10.294.411 9.34-3.175 12.937-15.043 6.376-22.739-4.275-5.256-11.71-6.43-17.63-3.461-7.497 3.763-9.18 12.494-5.731 19.684z" fill="#000"/></g><mask id="c" style="mask-type:luminance" maskUnits="userSpaceOnUse" x="112" y="0" width="41" height="69"><path d="M112.842.99H152v67.282h-39.158V.99z" fill="#fff"/></mask><g mask="url(#c)"><path d="M139.588 5.041c-.018.257.025.45.122.577a287.54 287.54 0 0 0 .031 21.074c-.547 1.363-1.323 2.332-2.328 2.905-1.649.948-5.221.496-7.402.595a.623.623 0 0 0-.465.226c-.724.874-.687 1.712.107 2.516a.57.57 0 0 0 .386.17c2.379.126 5.139-.24 7.394.497.251.252.449.396.599.438.841 1.174 1.343 2.222 1.515 3.137.019 8.634.029 17.19.025 25.67 0 1.33.547 2.453 2.075 1.85a.761.761 0 0 0 .308-.228c.201-.194.308-.399.315-.607.067-1.937.067-4.6 0-7.994.261-10.353.271-20.706.033-31.065l.084-19.412c.898-4.289 6.516-5.74 8.704-1.528.859 1.653.762 3.214.758 5.663 0 7.396.017 14.782.068 22.163l-.023 13.8-.018 2.968-.107 18.177c-.456 1.121-1.092 1.647-1.91 1.58-1.001-.361-1.511-1.115-1.524-2.261a861.28 861.28 0 0 1-.031-21.744c.124-18.495.114-31.387-.033-38.668-.037-1.669-2.905-1.37-2.784.738.167 2.881.241 4.764.223 5.651-.204 9.875-.183 20.913.065 33.112.099 4.855.056 10.47-.125 16.84-.047 1.729-.245 2.947-.596 3.654-1.263 2.55-4.999 3.386-7.076 1.133-.948-.818-1.451-1.713-1.511-2.69-.121-1.947-.148-4.899-.088-8.849.03-5.72.047-11.435.057-17.151 0-.804-.029-1.79-.958-1.784-3.606 0-5.934-.066-6.989-.2-3.464-2.338-3.808-6.855.455-8.49 1.727-.66 4.688-.349 6.548-.428a.938.938 0 0 0 .901-.939V7.357c.103-.838.056-1.595-.144-2.269a.503.503 0 0 0-.333-.329c-.619-.187-1.431-.278-2.432-.276-5.743.006-11.525.093-17.338.26-1.314.004-2.35-.352-3.107-1.074a.566.566 0 0 1-.177-.428c.027-1.351.747-2.025 2.155-2.015 6.298.037 12.594.083 18.9.138 2.955.03 4.884.786 5.675 3.676l-.004.001z" fill="#000"/></g><mask id="d" style="mask-type:luminance" maskUnits="userSpaceOnUse" x="47" y="59" width="10" height="10"><path d="M47.549 59.8h8.97v8.906h-8.97V59.8z" fill="#fff"/></mask><g mask="url(#d)"><path d="M56.306 64.279a4.357 4.357 0 1 1-8.713-.003 4.357 4.357 0 0 1 8.713.003zm-1.526-.03a2.82 2.82 0 1 0-5.64.003 2.82 2.82 0 0 0 5.64-.002z" fill="#000"/></g><mask id="e" style="mask-type:luminance" maskUnits="userSpaceOnUse" x="114" y="59" width="10" height="10"><path d="M114.332 59.8h9.469v8.906h-9.469V59.8z" fill="#fff"/></mask><g mask="url(#e)"><path d="M123.312 64.28a4.292 4.292 0 0 1-4.295 4.292 4.293 4.293 0 1 1 4.295-4.293zm-1.437-.01z" fill="#000"/></g></svg>