<svg width="61" height="54" viewBox="0 0 61 54" fill="none" xmlns="http://www.w3.org/2000/svg"><path fill-rule="evenodd" clip-rule="evenodd" d="M16.072.11a183.05 183.05 0 0 0-.04 2.805c-.029 2.913-.045 25.779-.018 25.806.032.032.517-.28 1.611-1.036a4353.154 4353.154 0 0 1 4.526-3.122l1.932-1.336c1.715-1.185 3.886-2.687 4.278-2.962.445-.312.515-.359.533-.359.01 0 .02.39.02.865a159 159 0 0 0 .015 1.96l.015 1.093 1.634 1.032c.9.567 1.863 1.176 2.142 1.353 1.04.661 1.129.718 1.208.77l1.138.732a561.775 561.775 0 0 1 1.656 1.068l.673.433c.3.193.888.568 1.305.832a199.08 199.08 0 0 1 1.357.866 294.27 294.27 0 0 1 4.228 2.727c.382.258.587.38.606.361.05-.051.077-23.558.03-26.832-.02-1.483-.03-1.708-.072-1.708-.026 0-.402.253-1.422.956a576.48 576.48 0 0 1-3.214 2.191 823.452 823.452 0 0 0-3.203 2.184c-1.609 1.106-1.679 1.15-1.81 1.15-.072 0-.324-.15-1.307-.778a529.63 529.63 0 0 0-3.151-1.986 315.45 315.45 0 0 1-1.38-.871 1392.322 1392.322 0 0 0-5.451-3.438L22.312 3.86c-1.016-.638-2.484-1.565-3.577-2.257C17.642.909 17.65.914 16.895.46c-.49-.296-.776-.46-.799-.46-.007 0-.018.05-.024.11zm2.64 13.286c-.017 8.13-.012 9.983.023 10.069.014.034.042.02.192-.092a65.618 65.618 0 0 1 2.355-1.66l1.099-.75 1.518-1.037a361.13 361.13 0 0 0 2.933-2.022l1.437-.994a603.65 603.65 0 0 0 1.817-1.26c.895-.623 1.864-1.293 2.296-1.586l.399-.27-.318-.203-.974-.622c-.36-.231-.919-.586-1.242-.79-.322-.205-.98-.622-1.46-.929a79.77 79.77 0 0 0-1.047-.66 9.469 9.469 0 0 1-.414-.267 47.97 47.97 0 0 0-1.058-.677c-.835-.523-3.656-2.304-4.462-2.817-.857-.546-3.027-1.882-3.057-1.882-.01 0-.027 3.803-.037 8.45zm23.437-2.703c-.101.058-.406.263-.861.58l-.575.396c-.928.635-1.098.753-2.772 1.92a1127.203 1127.203 0 0 1-3.421 2.376c-.25.175-.892.616-1.426.982l-1.201.821-.23.157.006.578.02 2.17.014 1.59.37.231c.748.466 1.056.66 1.89 1.193 1.073.688 1.317.843 2.012 1.283.599.38 1.683 1.072 2.944 1.88a665.991 665.991 0 0 0 2.369 1.518c.412.26.725.451.819.5l.095.048.015-1.003c.064-4.265.1-16.947.048-17.175l-.023-.099-.093.054z" fill="#000"/><path d="M7.164 43.44h-2.94V51h-1.08v-7.56H.204v-.96h6.96v.96zm4.743 7.62c-.68 0-1.252-.116-1.716-.348a3.038 3.038 0 0 1-1.116-.96 4.227 4.227 0 0 1-.612-1.38 6.506 6.506 0 0 1-.192-1.584V42.48h1.08v4.308c0 .416.04.824.12 1.224.088.392.228.744.42 1.056.192.312.452.56.78.744.328.184.736.276 1.224.276.496 0 .908-.092 1.236-.276.328-.192.588-.444.78-.756.192-.32.328-.676.408-1.068.088-.392.132-.792.132-1.2V42.48h1.08v4.308c0 .576-.068 1.124-.204 1.644a3.834 3.834 0 0 1-.624 1.356 3.084 3.084 0 0 1-1.128.936c-.456.224-1.012.336-1.668.336zm14.362-1.02V51h-5.784v-8.52h5.676v.96h-4.596v2.76h3.996v.9h-3.996v2.94h4.704zm6.486-5.772a1.777 1.777 0 0 0-.385-.324 3.102 3.102 0 0 0-.54-.276c-.2-.088-.42-.156-.66-.204a3.11 3.11 0 0 0-.732-.084c-.655 0-1.14.124-1.451.372-.313.248-.468.588-.468 1.02 0 .304.08.544.24.72.16.176.404.32.732.432.335.112.76.228 1.271.348a8.561 8.561 0 0 1 1.536.468c.432.184.764.432.996.744.233.304.349.712.349 1.224 0 .408-.08.764-.24 1.068a2.063 2.063 0 0 1-.648.744 3.06 3.06 0 0 1-.985.432 5.366 5.366 0 0 1-1.223.132 6.13 6.13 0 0 1-1.273-.132 5.732 5.732 0 0 1-1.164-.408 5.02 5.02 0 0 1-1.032-.66l.517-.912c.128.136.292.272.492.408.207.128.44.248.695.36.265.112.549.204.852.276.305.064.616.096.936.096.608 0 1.08-.108 1.416-.324.336-.224.504-.548.504-.972 0-.32-.096-.576-.288-.768-.183-.192-.46-.352-.827-.48a14.724 14.724 0 0 0-1.345-.384 9.733 9.733 0 0 1-1.452-.468c-.392-.176-.688-.404-.887-.684-.192-.28-.288-.644-.288-1.092 0-.544.132-1.004.396-1.38.264-.376.628-.66 1.091-.852a4.078 4.078 0 0 1 1.572-.288 4.501 4.501 0 0 1 2.005.456c.288.144.552.316.791.516l-.504.876zm8.452-.828h-2.94V51h-1.08v-7.56h-2.94v-.96h6.96v.96zM42.434 51v-8.52h1.08V51h-1.08zm3.117 0v-8.52h1.08v7.56h4.752V51h-5.832zm10.206.06c-.6 0-1.144-.12-1.632-.36a4.084 4.084 0 0 1-1.272-.972 4.686 4.686 0 0 1-.816-1.392 4.574 4.574 0 0 1-.288-1.596c0-.568.1-1.108.3-1.62.208-.52.492-.98.852-1.38a4.066 4.066 0 0 1 1.284-.96c.488-.24 1.02-.36 1.596-.36.6 0 1.144.124 1.632.372s.908.58 1.26.996c.352.416.624.88.816 1.392a4.507 4.507 0 0 1-.012 3.204c-.2.512-.484.972-.852 1.38-.36.4-.784.716-1.272.948a3.67 3.67 0 0 1-1.596.348zm-2.916-4.32c0 .432.068.852.204 1.26.144.4.344.756.6 1.068.256.312.564.56.924.744.36.184.76.276 1.2.276a2.56 2.56 0 0 0 1.224-.288c.36-.192.664-.448.912-.768.256-.32.448-.68.576-1.08.136-.4.204-.804.204-1.212 0-.432-.072-.848-.216-1.248a3.262 3.262 0 0 0-.6-1.068 2.678 2.678 0 0 0-.924-.744 2.5 2.5 0 0 0-1.176-.276 2.56 2.56 0 0 0-1.224.288c-.36.184-.668.436-.924.756-.248.32-.44.68-.576 1.08a3.675 3.675 0 0 0-.204 1.212z" fill="#000"/></svg>